<mxfile host="app.diagrams.net" modified="2020-10-23T12:33:02.523Z" agent="5.0 (Windows NT 10.0; Win64; x64) AppleWebKit/537.36 (KHTML, like Gecko) Chrome/86.0.4240.75 Safari/537.36" etag="hh2c3CW3Ut6PrVNZvguc" version="13.8.1" type="github">
  <diagram id="_ZqgYvkALlKc9vcL9xfy" name="Page-1">
    <mxGraphModel dx="2272" dy="1862" grid="0" gridSize="10" guides="1" tooltips="1" connect="1" arrows="1" fold="1" page="1" pageScale="1" pageWidth="850" pageHeight="1100" math="0" shadow="0">
      <root>
        <mxCell id="0" />
        <mxCell id="1" parent="0" />
        <mxCell id="6ZfNqcn49MTVpPQ85q8o-32" value="" style="rounded=0;whiteSpace=wrap;html=1;labelBackgroundColor=none;fontColor=none;" vertex="1" parent="1">
          <mxGeometry x="-239" y="-861" width="1944" height="1000" as="geometry" />
        </mxCell>
        <mxCell id="6ZfNqcn49MTVpPQ85q8o-31" value="" style="rounded=0;whiteSpace=wrap;html=1;labelBackgroundColor=none;fontColor=none;" vertex="1" parent="1">
          <mxGeometry x="-239" y="139" width="1944" height="1000" as="geometry" />
        </mxCell>
        <mxCell id="6ZfNqcn49MTVpPQ85q8o-27" value="" style="whiteSpace=wrap;html=1;aspect=fixed;labelBackgroundColor=#FF297E;fontColor=#FFFFFF;" vertex="1" parent="1">
          <mxGeometry x="18" y="826" width="192" height="192" as="geometry" />
        </mxCell>
        <mxCell id="6ZfNqcn49MTVpPQ85q8o-2" value="" style="endArrow=none;html=1;" edge="1" parent="1">
          <mxGeometry width="50" height="50" relative="1" as="geometry">
            <mxPoint x="2229" y="994" as="sourcePoint" />
            <mxPoint x="2229" y="132" as="targetPoint" />
          </mxGeometry>
        </mxCell>
        <mxCell id="6ZfNqcn49MTVpPQ85q8o-4" value="" style="shape=image;verticalLabelPosition=bottom;labelBackgroundColor=#ffffff;verticalAlign=top;aspect=fixed;imageAspect=0;image=data:image/png,iVBORw0KGgoAAAANSUhEUgAAAHkAAABfCAYAAADMD2hiAAAgAElEQVR4Ae2dCXDc133fmU6mzSRxmsx0JpOknbbTNpcT24nbNBMnk6SdNo2nThwfikzHiSxZVmQ3smX50BFZB2lJpCgSFA8R90XcxH0s7vvaxe4CewJYYLHY+z6x9/Xp/P8LgKBEEqBMEpSF/86b/9v3fu/6fd97/9/7veuYJ7yFLxgiFAgQODI/MTzw+/2EQiGi0SjHfqlMwQvTBvwuB06HA8eReeB4IODidN6ZsdvtrK2tiUAfO3Z+jhcVDo6eB5sDWeCgJr9dFKfTKfZMx45dnOclhf3BLuGHPHeOcJo1bxKTP3Ugs+pJkgNcRyB/cGqOLZzGG80QTmT3NZFkVqwIQqs/GMi5PFvpLPl8HvJ5ouksqZ2+4IPDow98Tu3hNJ6tDMF4dl8TShwY5DwOf4hm+Rq/XLnIP81YKJ1a5Vcrl3haacPoT/BurBOp9HW3XIqs0F9sP+lMRrRlE2Ecni3R7to0YbY5CPgjpLdpc6kYZrMZu92GxeMnlYhg3jThDUbJJCNsbm4STQgp50nvTWAnoe13Lpsiu51Bl9mE2RUQffKZFHbLJpsWd4EynyOTFup84YkGvZhMJoLx9I7TTd+5XIZMbocDebLZLKlkjHDiergbaW4azYEdA/Ec7rsPco5pnZE3xzUcuzDPH3Su8mjbIscuLvC3E8t06r3XAQVU3Wf4zDdfJpPPoZut5m/+9yOshPKkAuu8/OgXeK1DQT5s5elvP8FXvvBNOicXabtQxKvffZw//vTTeJKF8sa9Rs69/kP+8fEneadnlOGiK7x08gxDUgNTF6/w0suvcrZ8BO3KPBWyjVsyaW2uGKXFgX6ojdOvvMHrZ99hZNGKQ93Nt557hdOvvkHbgJwtxyYDZbJCWTIRrhS9yKmzF5FagrtxJ6Ne9MHtDG67WlR9jK2HCv/SAToHezHZzWic18NZ1ZLrNLux3bklm/DRYwgSiGUJxrJs5YQqDqFEHqHpJLIQyW67xbPcQUvOIV3ZpGhSx7HLMv60Z41vdqk49o6cr0ytIln1Xwc55eC5z/5X/uffvUAmn6K7+Tn+4Jf+Cl0kj2d1lOOf+u88WyfHOPQmx793gcXuNzn+TJFY2oELz/DtCwM3ljzupr9jSHSbON2ITGsjnkwxebYfgdWjF6/RM9DLhRnDjeH2/FueOMvg5DANF+tFiZSsnwsNHchm2hleE8DJ0F1dg1wqp/v8dKEsCS/VTVUYXUFSqSTTXU3U9I1zrfoU//c7F7BYzdTVXGVUbmJzqYtzZSUUl1zDFfHQ3NWC2W7G6Q8jHemkvG0EvayDc6UllDZ0sJUptPqoy0hJRQULRiebuiWaWxoYmJyjpbSM2Y0AwQ0ZtTU1LDmDuBRLdHdIuHLhZZ640EIsA5F0jhXFFMXV/TjDEa5VVjOm9bC2NEtxlQRHNEf44N/kAsjnJrQcuyjlj7vXeLJziWOXFjg+uQfkXIzSk0/yvWe/z+Nf+wHeVA7COh76Tw+x5C/0waXf/Sov1MlRtj7LN19twiqr4ovffJFsws0jn/kcUtf1Lk7AKeE10dncIzJ+5LUzPPvi64wumBg7c5ETP3qd881DaDVTXNwGOeHb5J3iEuYM210wYJRdolPSTU+Dchf6rv4hZkau0a9ziW5qSTdT07P0XZotgJwOUXTq+7xR9A5anZo3vvtDBpZWWZi6xvP1E4RDJs688HX+6plzzI21UFTbw8xAFw01Q7SP9iGf7qBtap63//lZOmeWMcy1cLq8nc6rpxjWO8U0F7uu8OKpKjY8YerPnaa5q5sTr75KX1cX1aUS7IZ5vvHoV3ilpIK+H12ibVDF7FgzzzTPEk1BLA+S89/jN3/371mxb/K53/ot/rlGyWjJC/zGR4+zHMyxlcwdVPDKMb+8SZV0lV+pWuTTknWe7tXwy9UqnpatM7iy3ZLTAcrefJGXnnmMj33iz1G542Td8/yvX/w/KLZBfvPRz/JUyQy+xWY+88i3KH7t2zxb3I9TVsuff/HbxHdhKFji7nVaattExo+93orFX3AffLmU9v45AokcluVRTo0tix6ZRBiVWo0jGBP/J7Z8jFZdRW/QUX7mDDK9CZ10hJLmEfTzLZRJZBgWpbxW3MHGipbWNye2W7KH8voyjK4A0WiIpYl2XnmhGLlygrPDiyw0XKSqpornT77NQF8NJQNK1pTjNJT00NDfzsJUGx2KdQxSCW+8dJ6hwasMGML4tJ00L2yKeQu7N2g6/xa1bYNca5bg97lp7mvF6/MguVrFG+XlVFSWUFT0Q3reGMAaAM/GFN9vk7OVyhNMZPFFopg9YbFbtrn94rfaH4mJboJgdkfd9Zh6g+elVl6QWelY8yBfs/OqzMZL8xu8o/UVGFPgP0TNdLQPi2OzXMRC5clq7EK1A6ba6uiSCt/PDE3lZ/jhuRr8WbAt9dDUN7sTw+47E/WjWdKJ8RvHNXhCKVHQMk7oCCcKZH6XkckNz26YvRbz0gBNzYXu3mfScvnUm5y+Uoc1mCJiUXDqjdOcOV2NwRMnF/aimdwolCWfoq/pCqffPMfEkpauK5do6ZhkK2in4UojyplpLl96mybJHJaNRWpKijlX1oQjFka7rMVmXkZvtiBpuERtxzBWk5YV1xZhuxadvfCtdugnuXjpAmqjDZ16mXA4hEqvFt8rWi3SwXYuni1jXDbO6sQqvkiWZGCTyYFJ/MmcKFmHkhDNINq3hC48mWOv2x2ADLFkGo0/jj6YIJTOkU6lMQQTaP0JXEK3fPTcNw54k+CO3PUh1H3L/1FCB+CAME72bmUICd3xPkZQmAiasYMpQ/J5crtjwdvlRKC7dcuOb/mIpa6PRYWYBPqdUebtYt7xy6Xid0Qvhstlyd4mXztx77xz+TzpVLyQ13yCQDBANB69abqCckigv/HJk4jEyewM0G/0vPm/A/LYGkphCxUUIoJS5LYmmsHgSR4M5KhtncFK+c0zt9c1HWCkdxjhy/nuJxNzUlFyFp09coNX1fAQrr1Dz0wSj+Pm39iwW03D4MgN4ff9k88wMNjNZnhfyl2CmtEx9Jsb6H1RtJMtXO3sQbOm5UbZv0AedCxRufDecbpJbiC4LTfsRnwbi9+ipndEd3OKXGqXJ4F4FnMwhTWUPpgJFnK97wRF2KSj4/wsiaCNhuJiekblkE8zI2mkZUIhqjpn+9u4UF5KTU3nNjPyONYnKS4uZnbTyWJ3Kd94+jKBbS2VSTdCdUkZ36lswuSw0dTYzJzGimWxm8cffRKpcZPpa00MTC+JQpwwxF9s70Ru9WNZ0dJxrQHJ7KooxC1MtDA4p8a5YSAaj7GoXya4FcOxaSYesdPZN4HHo2G8o42hsTFG+toZmFkll48x0F5MacsgUcC8J09rdjsWywrPPf4UnWNq7M51cvk0s4NNTMzryOXCdDWUc+XKZc5Or4ngZONeJDV1TCwYsNldBAMepBPDVNW04k6CZ3OO0opyTIE4dtUc11rG8W/rhj3GBa51y1HJxmlsHsCXymFTTFFf14NyopXHH/1HZLZtpcvNq8JtXYVpY2GNwC1noSKbK/RfHKGns5XhyTl6K0qQGRw0Xj7BF770FYbGBimp7GZipJsLxR1i95AJOamufYfZ+TlK32lhXNLGm+fbiabypIMOSksvMjc7yQ9KyrF6Nzn13GP83++8hV4npejNt7EGAlSe+gF/++mnWBY4RJL26k780Rh1Z9+gsaOHM+WNjLSf5cl/fIRHv/oEV+sv0zGj4OKJFxhckDLQoUC/MIrcFEXXf4KiknpKn3uF1rYeflhZx1BfG43Dg4xK2qmr7qey5oqYp+fKqpiZuEa3TEnpmQtMzc3SJSlipLKCJ578Ko899DzNtVepGxymt/kK5yYKQzj7Ygffef4N9EY7bY1dKOeGOHnyHTpaa6joGqexoYoZxSIbummeeOzr/P3xf+D8mFBRwbuhoGNAhXKkkuN/+zAXhxRUFT1PVfs0tpV53jpVhCWyt8u7Labv8dwX5LBRR9fpXprbW9HZfSx21VPecJWXypopf/kxqmqraJZocaxKeftSk6hiS/utVNVexevz0XC+GZlsltY+jZh4wrVO4+UmfB4LL1SW0F52kfqrVXzvpbdYNZnoaupEPt/MG7VXOffdF5k1FjRTvWUdeENhWus7CaVSSK710FDyI169Us3w2CxOywYXT5xlZHaOolOnUFmdtHb1EM6DfuR15B4X82/14nL6Kerroq2+nmGdEbN6mpI36mmuaBXz9FxZOZNjzUjUBvra+rFaDXT3vUXn2QucK25idEbOSHkV8zobC6M1vDZcKFcy7EbScpHLNQ3U1/eyIJ2kbWCFpH+Z8kv1lFyqwh2KYFUP8+Rz5xgaHmFzW3/v2ZBTUdpAzbk3qSw7x9nGWUxrUt4+8wrjSh0d9S2EMzfKM+9B8jYO+4Kc8DnRTJhwrcp55ZWTVDcMEPKYKDn1NlWl5ZgcTjpKL/DKpWIGJ1XbY80MCxO1nDh5kmsKA7GgDbnaUshGPoO8p5IzJ4ooG55hRTZF0bm3qOkYJxqL0tFUSdf4IKXnz1NR04Z9W1+s7e+kd3EFlVxFJB5HrdDidBmpLTvFhXd6iKXSjE9N4N3aondkFOO6gjlpoaU4V4cwBfwYR9UE/CFGNTqc3nVKzr/Mj965iiOdYKm3SsxT6eAMJqMKvd2NRqnB53eh1kwS9G1Q/eZpLrUMEwisUHLidS6VVDOyXpAhInYtRUVFSORqVIt6LOZ1FnV2sexLeivK2XpOnjrNqtXDYFMNRecvseYuKG62fBaUch0dlVe4WF7JnHqTyd5azpQ14QqHaWsoZWzt5rLKbbDd9doX5F3KQ7akYjbG5mYOnAthpit5a2H/wPH8JBB+YED+SWD2YZXhroKcz2XJiKLXYRXnKN2bcWBfkKN2IyM1ipuFvdEtE2K8t52u5hZxzvNGz6N/h8mBfUEWxsntRbOkIk5aKyoYmFoC0swPXaNzRi3mfWGkhyvVlTQ0SVCNX6NnR8g6zJIdpb3LgX1BLoyTR+nrbKV3cJzOkmKU6y6aLr/KF44/wujECFdKWhmQtHGhrAeXQ09d9/X5292UjiyHxoF9QQ5vCOPkHhrb2jD6o2j7GilrqONEVas4Tq6sqaR1aJWAScnl4nZstkVq+lWHVqCjhN/LgX1BTnjtLI0YsevmeenlE1TW9uFzrnH59fNUXilm3Wqj9cp5Xr5wGcn4EnNtlUzsWZ3x3iSPXO43B/YF+c4yFGNysJ/YzbT5dxbREfVd5MBdBvku5uwoqrvGgSOQ7xorH9yIjkB+cLG5azk7AvmusfLBjei2IAvLcywWi7hlRNiaIhiLxYzb48Qf8opGsAtuO/5H7wKf7pQPGxsbhMN3sITlDurUbUEWdqfLZDKE5SMul5NQJIDL5WJiSEpjRS9NFX1MDctwu92in9PlFGkF+iNzZzwwGo3odLdYAnQHgN6MdF+QhV3qO8/S/Br/7/Nv8if/9nE++jMP8zs/8zB/8u++zrceegut3LhDdvR+HxxIJpOsrhbmv99H8NsG2RfknYQH2ub4b//mH/j1f/E5PvZzX+L3/vWXRfO7P/cw/+WnPscf/vIjjHYv3DaxI89bc0DoNXd4fWuq9+ezL8gbG0bMa04+9Wtf46M/8xCf+IUv87s/+zAf/8hxPvELx/mdn32YT3zkOB/9Vw/xp//+61iMhT1G7y87H95Qhw7y6e/X8ps//Xl+/xe/zKd+9TE+8/Gn+dSvPcYf/cpj/NXvPcOf/ccnxFb9Gz/9ed56/uouUiHnGkOSAVbNAfKZGDaT+6brl3cD7GvJsa6R0jc4gskdxOf3sr1RcN+QewkSES++rZstHt5LdX/thwZyPB5nSanmi3/4rNhFf/wjX+Jrnz7J2y838vSXzvLVv3iV15+p5K9//xl+b7uFP/RHz5FKFvSai30tdPUPUNXUhTcSw7O9bzeTyZDNJgn6C2ucdvaRZ7ctuWyWTHbPwrV8DnF9fypIU0MlkwoNLo+dnv4+toTDD7KZGypPOp0hn88hvMUnV3iHXQZmF4zYtMOM6ByFOLex3JuekP67l8zfa8gPDeREIo50VsGf/YcnxC754z9/nCc/+zrvvHaNHzzyNl//zI944fHLYjctfKOFLlxo1VvhAniq/lYa2tvoHh4m6POimTawpp6npKSE06+VoVApaaioZGJqnvbKBi6XXmbeEsSlmuXiufNIdU70g/3UNvTi2MpCJkxLQzmD0zL8fjdD4yNsrquoulhKdXkNi2tWJE0V1PfPsRW0UlFcTE1dJ/U1JbR0zzLfW8uzL55jYUbCO2XlFJdX4whF0Ex1cfHC28gV6wx319PUN4+4RPxeI7sn/kMDOZ6II5ct8pe//RQCwCLIf/M6J79VzqnvV/P08bO8/I0S/uI3/0nsrj/+81/iLz/6FLFoYfuAAHL3xDSjnSPodTpGKweQjPSiXl6krfYyIzODtHdLiXqM1F0ZxG1fobtxDv3yPOUXz1NW2894bQca0/bO/VSI1uYappVawiEfI5MSOqrbsEbBKu2kf17PeMc1pItr2NfUtF6t5BuPPc6ZkkqqyrpYWVEyIbXh1Q/TObeBdUlC79gkbz93gvKKSno6Rmm61oo7fv9XAB4ayLFYjJWVFZ764hlRsBIErb/+5DN87+/P85X/8SKf/eQzPPN3RXz2k98Tu+vf/pdfFLvxnb1Ti31NtPRKxIXxy6sGZhrGqas6yYm3S2iv72RJI2N4ykDcs8lo8yLRoI2RCgnVVy/Q1NRCQ5uEqfoxLN7t3cvpEE11pUgm5zFbNxkcG2B2tJf2rkHaq64wpLKgm+3l7JliBrvaqG/vor2phNa2XqbU64RcK9TWXEMlG2BmPYRvZZx+6RKdZRX0DoyyaTPTPzJIZLuX39PQ7rn10EAWEt40mxjukCEAKEjWovnIcT72cw/z8V8QJOwv8/u/+HeipC1I32N7hlFbXjNT4+OsWvwELHquNU+i0eiYnprFYAmSzyYJhGLk0kmC3i2ymSRh3xY+i4EZqRKXP0jYEyK5c2IMecyrKkbHp9h0+glFwmRTEaRjYzSVXkZucqJXzKIzOckmw0hlMoKxGNq5KWa1RrK5DGs6JXa3l0giQzoWJJLKErYbGRfidPkJhYO7h8ncc2T3JHCoIBsMBnG/0/Nfu8R/PvY3fOznC2NkAVjBCN9iYdws+L30jeLCMVB7Mi9aEy6ay2tY2l5M/m7vH+d/0KKkrqaSzh4pyUNogT9O3veGPVSQdwboyUSaE0+Vi8D++k99TlSKCIoRQRHyyV/6Cq9/t4pU6nC4LJ4vtpdjH0D7oYG8tbWFXq+/oXUqZpY583wt3/jcKb75+VOcfaGOxbmVXbYKDD8yd86DSCTC8nJh89wuM++S5bYar1QqhVwuR6PRoNVqRQX6hmkdk3kd4V2wGzGa1kQ/gebIvD8eLC4uijN5dwnXG6K5Lcg7lDdtmeQLv6OWe9d6rh1+3+33gUC+24kexXd/OXAE8v3l96GkdgTyobD9/iZ6BPL95fehpHYE8qGw/f4megCQ8wRtZgYGhlCtOG8xBZfH4na+56Dz2M5Un3BvQjzATFcvA0Nz2HfncrfD3WI+wGd2E02mSR10R0Y+xYpsmG7J6E2PZLq/rH1wUtsfZOFoo7EpNj1RUuk0mVQcn8fG+rpN3G4ejfiw2ZyEojHS6YToZ7S6SCdDNPf1Y7AXjiZK+F3opizEwy5kkwYiIRdOh5twtDAt6bKssrpZqERinHY3ka0YthUlfYMzeF1BMjnIJkNsJW4x4Z9LoZvu42pHNfH7PSH84GD6npzsDzIQ9WwyPdqHxREmYFbRPzaDbHYe3ZqV6dFhlrSrKPU6rOsqJGPTTE8NYrZZaenpZdlSOC0+FXIx2zmNQrOIWmtgcqKV1TUTi8taLKYVpuWz4oTCynohTvXaJmq1Hv2ilN6BaYyaRdadIdaUCqzbiw3eUxrBIRNgZLhRPC74pv4fQsf9QRZWWGRz5BJ+RmYXMBk1qO1bEHUjH1OjWNaQzaZZ0qmwGDXo3XHibj3LFhezBsMus1NBJ6P1A6gMZtKpAGrNFORzLOkX0StV2IWmF3Htxin04NpFHXaHBf26H3JRtBolSt066du00lzETp+kluhtaD5sOB8A5CwO4xKDQ0PMrdnwWTX09A8zNDGLIxTCaDKKJ7yvmYx4nCY2/XGi3g3M/girSilL+sI1RKlwALPWV+BvOoJxQ0U2k0YIFwhYGR3ppX9iToxz3bROOpdjY81EMOhldmKEUBoMM2Osb97+ZLpczMu8dPC+r+x4kCvO/iALuc/nxO+xYA1aVKjMvgMeECpcvnELqerdXMlmSN/i0FHhwJmw28rklFI81PvdQY/+354DBwN5TxypeFiccN/jdF+sQYcVe0A4BfPouVMO3DHId5rAEf3hc+AI5MPH4J7n4Ajke87iw0/gQCCnYgGMBgOe4LvvfLlegHgwvGfB3XX3+29LoJXLWDXvvUE2gU6xgHxxmXgmh8u8yoJSRSKbw+sPilq8bHILT+R6+aI+D/HtsZrXZkQ6P8ea7fohpplYBM8eGWHLHxDP8ox6rMgXFETSeUJ2EwrFkqiYyWx5kcsVuMM7ipwsQb//hgX+94pXBwLZvDTN8MQkcyNKQombS8tRn5/ELS5wzKdi2K17mX5vipNPRxlraqW1tYPRKRnJTJZ8NsFUezftnX0M9EnYcLlpbSilsaGB4RE185PtSJfNzPe2smAuKG6EG28kV8/TPbkuHkxXcbWUq9faaayqYknnFTPvXxnmhbeaSArj8WyMxqJzKDaMSGpr6JUMYnQEseqUdDXU0DesI+DeYKC3lYr2bvF6pNDqJC8VlRC7OTvvKoMOBLJVqyaSA7NmEaPNhnJuhjWTkzWFjMGBQZzeLQIbbqKxOFq1gtFZOZFEko2FOcYmlrCuKamprmV9W1MVdVmZGOhHuqAjGd1CPTGPzvTjb5QTToBvHb6+Tkrgv+DWPircApdkw2QktuWnq6OJsbFx+hc2yCUDtF65Qt/E4i5jhVP6F2bmGB6fJpuOUz86jrhdIGKlt7Nd1It7LTJ+ePosK44o4c0lyi6Wozet0VZdjcZR2EwuLAvWqhaYntOLJ987VpT0To+RyWeQDQj3SA1zP9bxHwhk89IE7R09TClNBDwbzMxoxJqpXHaSjgdQLirQja6wolmgtq2T7t5uJhUK5FqrOE4WDvxeVKgKm9PySVRKFYF4CufyIirtMlKJgviPcWj3Djp23ThtMtvOX/HtWp6gXW4Xroyjq/4S8jULbY1ldHT1Mzy/QDoVo/HyG3SKd1YVgqr7G2joHaGupBSjw0Pz2Dji9aEJD4P93WL37jbJqRkaZ3honMGJCYa7e1j1xslEbLR21DGtNpMJOxkb7md0SkUuG0c1Pkjv4AB9NfXU1bdQXFnBuv8OLqu4oWQH/3NAkGWs2f3CrbrE/BaWlt0kQw6mZ1WsrWpZUutZnzKwsaylf2QO3coaHts6k9NKTGYXyWgI6fQ0vlhKvL9Cr1SiWjGgk0pZXTWhnzLv5thv17DpsLO+ocNt1+Pe3le1S3AbSypopa68nCmZApV6jRX5grg5oLWumRmFioWJHnQmC+1t9cjkc7R1tzM20MPsygpDLbWo1jdRzc3QfLWCax2dtNSWipeZlbY2iCrdvsZa5hRmdIsatEsTtChNDDcWUzeqRDM6gGLDjGZRi3xUQkezFPPmGmrZGK2to9jsZpY1KmprWhgeGqKnvZEXT/6IJUFFfI+fA4EcCwZICFNAgv4/GSMQKggo1vVlpAsK8T5lw4wWfziFeU3HgmJJvHLHZtSzoDCQymYxb6xg2xbcMtEAC7J5DCYHuXSakPt6QYWtMr5QELfXTjhoJxzfEVQOxomY10h3ZydyvQWv1UwolSfhN9HT1UH/lFJUl+rlE7R3S7B5Aqysr4gtM+Q0smK2YzYYsLl3bk3NYd0woFNJaWvrQKo2iZmwbVrx+dyYgwkyIQe+eJawy0E4FkMjHaO7b5JwMsPK0gwd3X14Y3kCFi2dHZ1obTtxQyC4fTfhwYr2vqkOBPJ+sTtXVIxI9Rxd+LYfpw7H/66AnEklD3hB2OEU8sOe6l0B+cPOxAe9/EcgP+gI3YX8HYF8F5j4oEdxBPKDjtBdyN8RyHeBiQ96FAcCWTh550EwDzozH9T87QuyoOUSLmQOHrIRrm9/z1XFDypXH7B8vS+QQ4m8OBt1c+BzhJP5g1cKMa6dSpRDiPtm8R6B/P5rzp2DnMjhC2/hiRWuXN8LSDQNoVgKuy+IP5a7KVh76QW7LxLDG00XaGNpPOEYwmXQ76Y7Avk+gryVyiKbHWFyfoNwGoQ58HgWYqkMKosbz1aSDYcDYXIlJrhnIZzIs5VBnDvdEibTkwW74GfQj6NzbiHcDhwK+ZhXTOLZDhvNXv9UHIF8n0AWFgz4g2EUKg1jUhWuGDgsNjoHJlDoVrhQVceYYh2j3Yo74Gd8bIjuGSXOcBSNSsZA/ziKjTBOm5H+0UnU9ijry2NI+seRTCxg9bpFkJ2hGNL5SablBnyxQqs+Avk+gSy03DXNLL3zWsb6B1FbPMzPSFlxbOEPBmmbWsBgdTCvGGFhQY1m08vK6hJTci0D/Z1oVoziEYtGq4X6pgZah6XoNRNMKE2sri4xuaBFrp1BNjxJbWMztZV9rHmShBPCt/pI8Hq/MN/BNzlHJJFgeFhCz9AUvQO99I1IGZ2YRL7mwBOM0DezgGZ9kznlKAqFCpl6A6VaxoxSh3RxEm94C6msh9YhYTnRlHjarVo9xuCSgUX1AjOLOqRL4yxMzCIZkbG4ZsO7/e0/Avn9Qgx3BHJwK4rBbkdY4p7IZDCYNjFb7UhGp9Haw2ysrCJXb7DhsOMNBpkamWBQrscTibFhs+CLJDA5LKwurzAyKkdrsgB8X4QAAAG+SURBVOJwWZick+6hs+INh5gVzuRUGHYFvCOQ7zHIgqQrSLyBeI5Iim3JN0dkW/ASTpSNJPPimZTRDCKNMBSK5SEhCE+JnXA5UVAThDBh0cuWII0nEdc57dAJgtxOWEGg20k7eMDuOpfPYwul35exh9II4X/SngO15HAiK34ThdZ0WCacPNg3OZXNY/AkcW9lcEfuwGxlxHC32o/1QQZ+X5CFwgl1+0EwB2G0ALLJn0KsmPHCWF7Q2AkKmh03wS5W1r3+iawY7kML8kGY+6DQ7IAsgLirUElkcQdi4udFGJv7Iwl80cx1fwHsI5AfFAj3z8fNQBZ2M2jmRrnas8Dmho7K2h6skYwI7E5FOAJ5f94+MBQ3AzkoCH7xKN11lbz44nmk6z4iqRt15B8akF9W3vutLPe6Ngjnn28G0oSTggLluhGk9mgyg82bENWre/0Eu0AvhNteeXyvs3lf4xdu2wsEAhw79tYMT89ukk4mSCYSJD6gJhJLYHBGcIdiuIPXjUuwhxL4thI3uO/ShGJiuK3YB7fst8LMbDYXQD6ntDJgsOGx27DbbNg+wMZqtWG1vQ9j/WCX+3aYCWeX/39zlyjWb5fIzwAAAABJRU5ErkJggg==;" vertex="1" parent="1">
          <mxGeometry x="-10" y="781" width="81" height="63.6" as="geometry" />
        </mxCell>
        <mxCell id="6ZfNqcn49MTVpPQ85q8o-5" value="" style="shape=image;verticalLabelPosition=bottom;labelBackgroundColor=#ffffff;verticalAlign=top;aspect=fixed;imageAspect=0;image=data:image/png,iVBORw0KGgoAAAANSUhEUgAAAHkAAABfCAYAAADMD2hiAAAgAElEQVR4Ae2dCXDc133fmU6mzSRxmsx0JpOknbbTNpcT24nbNBMnk6SdNo2nThwfikzHiSxZVmQ3smX50BFZB2lJpCgSFA8R90XcxH0s7vvaxe4CewJYYLHY+z6x9/Xp/P8LgKBEEqBMEpSF/86b/9v3fu/6fd97/9/7veuYJ7yFLxgiFAgQODI/MTzw+/2EQiGi0SjHfqlMwQvTBvwuB06HA8eReeB4IODidN6ZsdvtrK2tiUAfO3Z+jhcVDo6eB5sDWeCgJr9dFKfTKfZMx45dnOclhf3BLuGHPHeOcJo1bxKTP3Ugs+pJkgNcRyB/cGqOLZzGG80QTmT3NZFkVqwIQqs/GMi5PFvpLPl8HvJ5ouksqZ2+4IPDow98Tu3hNJ6tDMF4dl8TShwY5DwOf4hm+Rq/XLnIP81YKJ1a5Vcrl3haacPoT/BurBOp9HW3XIqs0F9sP+lMRrRlE2Ecni3R7to0YbY5CPgjpLdpc6kYZrMZu92GxeMnlYhg3jThDUbJJCNsbm4STQgp50nvTWAnoe13Lpsiu51Bl9mE2RUQffKZFHbLJpsWd4EynyOTFup84YkGvZhMJoLx9I7TTd+5XIZMbocDebLZLKlkjHDiergbaW4azYEdA/Ec7rsPco5pnZE3xzUcuzDPH3Su8mjbIscuLvC3E8t06r3XAQVU3Wf4zDdfJpPPoZut5m/+9yOshPKkAuu8/OgXeK1DQT5s5elvP8FXvvBNOicXabtQxKvffZw//vTTeJKF8sa9Rs69/kP+8fEneadnlOGiK7x08gxDUgNTF6/w0suvcrZ8BO3KPBWyjVsyaW2uGKXFgX6ojdOvvMHrZ99hZNGKQ93Nt557hdOvvkHbgJwtxyYDZbJCWTIRrhS9yKmzF5FagrtxJ6Ne9MHtDG67WlR9jK2HCv/SAToHezHZzWic18NZ1ZLrNLux3bklm/DRYwgSiGUJxrJs5YQqDqFEHqHpJLIQyW67xbPcQUvOIV3ZpGhSx7HLMv60Z41vdqk49o6cr0ytIln1Xwc55eC5z/5X/uffvUAmn6K7+Tn+4Jf+Cl0kj2d1lOOf+u88WyfHOPQmx793gcXuNzn+TJFY2oELz/DtCwM3ljzupr9jSHSbON2ITGsjnkwxebYfgdWjF6/RM9DLhRnDjeH2/FueOMvg5DANF+tFiZSsnwsNHchm2hleE8DJ0F1dg1wqp/v8dKEsCS/VTVUYXUFSqSTTXU3U9I1zrfoU//c7F7BYzdTVXGVUbmJzqYtzZSUUl1zDFfHQ3NWC2W7G6Q8jHemkvG0EvayDc6UllDZ0sJUptPqoy0hJRQULRiebuiWaWxoYmJyjpbSM2Y0AwQ0ZtTU1LDmDuBRLdHdIuHLhZZ640EIsA5F0jhXFFMXV/TjDEa5VVjOm9bC2NEtxlQRHNEf44N/kAsjnJrQcuyjlj7vXeLJziWOXFjg+uQfkXIzSk0/yvWe/z+Nf+wHeVA7COh76Tw+x5C/0waXf/Sov1MlRtj7LN19twiqr4ovffJFsws0jn/kcUtf1Lk7AKeE10dncIzJ+5LUzPPvi64wumBg7c5ETP3qd881DaDVTXNwGOeHb5J3iEuYM210wYJRdolPSTU+Dchf6rv4hZkau0a9ziW5qSTdT07P0XZotgJwOUXTq+7xR9A5anZo3vvtDBpZWWZi6xvP1E4RDJs688HX+6plzzI21UFTbw8xAFw01Q7SP9iGf7qBtap63//lZOmeWMcy1cLq8nc6rpxjWO8U0F7uu8OKpKjY8YerPnaa5q5sTr75KX1cX1aUS7IZ5vvHoV3ilpIK+H12ibVDF7FgzzzTPEk1BLA+S89/jN3/371mxb/K53/ot/rlGyWjJC/zGR4+zHMyxlcwdVPDKMb+8SZV0lV+pWuTTknWe7tXwy9UqnpatM7iy3ZLTAcrefJGXnnmMj33iz1G542Td8/yvX/w/KLZBfvPRz/JUyQy+xWY+88i3KH7t2zxb3I9TVsuff/HbxHdhKFji7nVaattExo+93orFX3AffLmU9v45AokcluVRTo0tix6ZRBiVWo0jGBP/J7Z8jFZdRW/QUX7mDDK9CZ10hJLmEfTzLZRJZBgWpbxW3MHGipbWNye2W7KH8voyjK4A0WiIpYl2XnmhGLlygrPDiyw0XKSqpornT77NQF8NJQNK1pTjNJT00NDfzsJUGx2KdQxSCW+8dJ6hwasMGML4tJ00L2yKeQu7N2g6/xa1bYNca5bg97lp7mvF6/MguVrFG+XlVFSWUFT0Q3reGMAaAM/GFN9vk7OVyhNMZPFFopg9YbFbtrn94rfaH4mJboJgdkfd9Zh6g+elVl6QWelY8yBfs/OqzMZL8xu8o/UVGFPgP0TNdLQPi2OzXMRC5clq7EK1A6ba6uiSCt/PDE3lZ/jhuRr8WbAt9dDUN7sTw+47E/WjWdKJ8RvHNXhCKVHQMk7oCCcKZH6XkckNz26YvRbz0gBNzYXu3mfScvnUm5y+Uoc1mCJiUXDqjdOcOV2NwRMnF/aimdwolCWfoq/pCqffPMfEkpauK5do6ZhkK2in4UojyplpLl96mybJHJaNRWpKijlX1oQjFka7rMVmXkZvtiBpuERtxzBWk5YV1xZhuxadvfCtdugnuXjpAmqjDZ16mXA4hEqvFt8rWi3SwXYuni1jXDbO6sQqvkiWZGCTyYFJ/MmcKFmHkhDNINq3hC48mWOv2x2ADLFkGo0/jj6YIJTOkU6lMQQTaP0JXEK3fPTcNw54k+CO3PUh1H3L/1FCB+CAME72bmUICd3xPkZQmAiasYMpQ/J5crtjwdvlRKC7dcuOb/mIpa6PRYWYBPqdUebtYt7xy6Xid0Qvhstlyd4mXztx77xz+TzpVLyQ13yCQDBANB69abqCckigv/HJk4jEyewM0G/0vPm/A/LYGkphCxUUIoJS5LYmmsHgSR4M5KhtncFK+c0zt9c1HWCkdxjhy/nuJxNzUlFyFp09coNX1fAQrr1Dz0wSj+Pm39iwW03D4MgN4ff9k88wMNjNZnhfyl2CmtEx9Jsb6H1RtJMtXO3sQbOm5UbZv0AedCxRufDecbpJbiC4LTfsRnwbi9+ipndEd3OKXGqXJ4F4FnMwhTWUPpgJFnK97wRF2KSj4/wsiaCNhuJiekblkE8zI2mkZUIhqjpn+9u4UF5KTU3nNjPyONYnKS4uZnbTyWJ3Kd94+jKBbS2VSTdCdUkZ36lswuSw0dTYzJzGimWxm8cffRKpcZPpa00MTC+JQpwwxF9s70Ru9WNZ0dJxrQHJ7KooxC1MtDA4p8a5YSAaj7GoXya4FcOxaSYesdPZN4HHo2G8o42hsTFG+toZmFkll48x0F5MacsgUcC8J09rdjsWywrPPf4UnWNq7M51cvk0s4NNTMzryOXCdDWUc+XKZc5Or4ngZONeJDV1TCwYsNldBAMepBPDVNW04k6CZ3OO0opyTIE4dtUc11rG8W/rhj3GBa51y1HJxmlsHsCXymFTTFFf14NyopXHH/1HZLZtpcvNq8JtXYVpY2GNwC1noSKbK/RfHKGns5XhyTl6K0qQGRw0Xj7BF770FYbGBimp7GZipJsLxR1i95AJOamufYfZ+TlK32lhXNLGm+fbiabypIMOSksvMjc7yQ9KyrF6Nzn13GP83++8hV4npejNt7EGAlSe+gF/++mnWBY4RJL26k780Rh1Z9+gsaOHM+WNjLSf5cl/fIRHv/oEV+sv0zGj4OKJFxhckDLQoUC/MIrcFEXXf4KiknpKn3uF1rYeflhZx1BfG43Dg4xK2qmr7qey5oqYp+fKqpiZuEa3TEnpmQtMzc3SJSlipLKCJ578Ko899DzNtVepGxymt/kK5yYKQzj7Ygffef4N9EY7bY1dKOeGOHnyHTpaa6joGqexoYoZxSIbummeeOzr/P3xf+D8mFBRwbuhoGNAhXKkkuN/+zAXhxRUFT1PVfs0tpV53jpVhCWyt8u7Labv8dwX5LBRR9fpXprbW9HZfSx21VPecJWXypopf/kxqmqraJZocaxKeftSk6hiS/utVNVexevz0XC+GZlsltY+jZh4wrVO4+UmfB4LL1SW0F52kfqrVXzvpbdYNZnoaupEPt/MG7VXOffdF5k1FjRTvWUdeENhWus7CaVSSK710FDyI169Us3w2CxOywYXT5xlZHaOolOnUFmdtHb1EM6DfuR15B4X82/14nL6Kerroq2+nmGdEbN6mpI36mmuaBXz9FxZOZNjzUjUBvra+rFaDXT3vUXn2QucK25idEbOSHkV8zobC6M1vDZcKFcy7EbScpHLNQ3U1/eyIJ2kbWCFpH+Z8kv1lFyqwh2KYFUP8+Rz5xgaHmFzW3/v2ZBTUdpAzbk3qSw7x9nGWUxrUt4+8wrjSh0d9S2EMzfKM+9B8jYO+4Kc8DnRTJhwrcp55ZWTVDcMEPKYKDn1NlWl5ZgcTjpKL/DKpWIGJ1XbY80MCxO1nDh5kmsKA7GgDbnaUshGPoO8p5IzJ4ooG55hRTZF0bm3qOkYJxqL0tFUSdf4IKXnz1NR04Z9W1+s7e+kd3EFlVxFJB5HrdDidBmpLTvFhXd6iKXSjE9N4N3aondkFOO6gjlpoaU4V4cwBfwYR9UE/CFGNTqc3nVKzr/Mj965iiOdYKm3SsxT6eAMJqMKvd2NRqnB53eh1kwS9G1Q/eZpLrUMEwisUHLidS6VVDOyXpAhInYtRUVFSORqVIt6LOZ1FnV2sexLeivK2XpOnjrNqtXDYFMNRecvseYuKG62fBaUch0dlVe4WF7JnHqTyd5azpQ14QqHaWsoZWzt5rLKbbDd9doX5F3KQ7akYjbG5mYOnAthpit5a2H/wPH8JBB+YED+SWD2YZXhroKcz2XJiKLXYRXnKN2bcWBfkKN2IyM1ipuFvdEtE2K8t52u5hZxzvNGz6N/h8mBfUEWxsntRbOkIk5aKyoYmFoC0swPXaNzRi3mfWGkhyvVlTQ0SVCNX6NnR8g6zJIdpb3LgX1BLoyTR+nrbKV3cJzOkmKU6y6aLr/KF44/wujECFdKWhmQtHGhrAeXQ09d9/X5292UjiyHxoF9QQ5vCOPkHhrb2jD6o2j7GilrqONEVas4Tq6sqaR1aJWAScnl4nZstkVq+lWHVqCjhN/LgX1BTnjtLI0YsevmeenlE1TW9uFzrnH59fNUXilm3Wqj9cp5Xr5wGcn4EnNtlUzsWZ3x3iSPXO43B/YF+c4yFGNysJ/YzbT5dxbREfVd5MBdBvku5uwoqrvGgSOQ7xorH9yIjkB+cLG5azk7AvmusfLBjei2IAvLcywWi7hlRNiaIhiLxYzb48Qf8opGsAtuO/5H7wKf7pQPGxsbhMN3sITlDurUbUEWdqfLZDKE5SMul5NQJIDL5WJiSEpjRS9NFX1MDctwu92in9PlFGkF+iNzZzwwGo3odLdYAnQHgN6MdF+QhV3qO8/S/Br/7/Nv8if/9nE++jMP8zs/8zB/8u++zrceegut3LhDdvR+HxxIJpOsrhbmv99H8NsG2RfknYQH2ub4b//mH/j1f/E5PvZzX+L3/vWXRfO7P/cw/+WnPscf/vIjjHYv3DaxI89bc0DoNXd4fWuq9+ezL8gbG0bMa04+9Wtf46M/8xCf+IUv87s/+zAf/8hxPvELx/mdn32YT3zkOB/9Vw/xp//+61iMhT1G7y87H95Qhw7y6e/X8ps//Xl+/xe/zKd+9TE+8/Gn+dSvPcYf/cpj/NXvPcOf/ccnxFb9Gz/9ed56/uouUiHnGkOSAVbNAfKZGDaT+6brl3cD7GvJsa6R0jc4gskdxOf3sr1RcN+QewkSES++rZstHt5LdX/thwZyPB5nSanmi3/4rNhFf/wjX+Jrnz7J2y838vSXzvLVv3iV15+p5K9//xl+b7uFP/RHz5FKFvSai30tdPUPUNXUhTcSw7O9bzeTyZDNJgn6C2ucdvaRZ7ctuWyWTHbPwrV8DnF9fypIU0MlkwoNLo+dnv4+toTDD7KZGypPOp0hn88hvMUnV3iHXQZmF4zYtMOM6ByFOLex3JuekP67l8zfa8gPDeREIo50VsGf/YcnxC754z9/nCc/+zrvvHaNHzzyNl//zI944fHLYjctfKOFLlxo1VvhAniq/lYa2tvoHh4m6POimTawpp6npKSE06+VoVApaaioZGJqnvbKBi6XXmbeEsSlmuXiufNIdU70g/3UNvTi2MpCJkxLQzmD0zL8fjdD4yNsrquoulhKdXkNi2tWJE0V1PfPsRW0UlFcTE1dJ/U1JbR0zzLfW8uzL55jYUbCO2XlFJdX4whF0Ex1cfHC28gV6wx319PUN4+4RPxeI7sn/kMDOZ6II5ct8pe//RQCwCLIf/M6J79VzqnvV/P08bO8/I0S/uI3/0nsrj/+81/iLz/6FLFoYfuAAHL3xDSjnSPodTpGKweQjPSiXl6krfYyIzODtHdLiXqM1F0ZxG1fobtxDv3yPOUXz1NW2894bQca0/bO/VSI1uYappVawiEfI5MSOqrbsEbBKu2kf17PeMc1pItr2NfUtF6t5BuPPc6ZkkqqyrpYWVEyIbXh1Q/TObeBdUlC79gkbz93gvKKSno6Rmm61oo7fv9XAB4ayLFYjJWVFZ764hlRsBIErb/+5DN87+/P85X/8SKf/eQzPPN3RXz2k98Tu+vf/pdfFLvxnb1Ti31NtPRKxIXxy6sGZhrGqas6yYm3S2iv72RJI2N4ykDcs8lo8yLRoI2RCgnVVy/Q1NRCQ5uEqfoxLN7t3cvpEE11pUgm5zFbNxkcG2B2tJf2rkHaq64wpLKgm+3l7JliBrvaqG/vor2phNa2XqbU64RcK9TWXEMlG2BmPYRvZZx+6RKdZRX0DoyyaTPTPzJIZLuX39PQ7rn10EAWEt40mxjukCEAKEjWovnIcT72cw/z8V8QJOwv8/u/+HeipC1I32N7hlFbXjNT4+OsWvwELHquNU+i0eiYnprFYAmSzyYJhGLk0kmC3i2ymSRh3xY+i4EZqRKXP0jYEyK5c2IMecyrKkbHp9h0+glFwmRTEaRjYzSVXkZucqJXzKIzOckmw0hlMoKxGNq5KWa1RrK5DGs6JXa3l0giQzoWJJLKErYbGRfidPkJhYO7h8ncc2T3JHCoIBsMBnG/0/Nfu8R/PvY3fOznC2NkAVjBCN9iYdws+L30jeLCMVB7Mi9aEy6ay2tY2l5M/m7vH+d/0KKkrqaSzh4pyUNogT9O3veGPVSQdwboyUSaE0+Vi8D++k99TlSKCIoRQRHyyV/6Cq9/t4pU6nC4LJ4vtpdjH0D7oYG8tbWFXq+/oXUqZpY583wt3/jcKb75+VOcfaGOxbmVXbYKDD8yd86DSCTC8nJh89wuM++S5bYar1QqhVwuR6PRoNVqRQX6hmkdk3kd4V2wGzGa1kQ/gebIvD8eLC4uijN5dwnXG6K5Lcg7lDdtmeQLv6OWe9d6rh1+3+33gUC+24kexXd/OXAE8v3l96GkdgTyobD9/iZ6BPL95fehpHYE8qGw/f4megCQ8wRtZgYGhlCtOG8xBZfH4na+56Dz2M5Un3BvQjzATFcvA0Nz2HfncrfD3WI+wGd2E02mSR10R0Y+xYpsmG7J6E2PZLq/rH1wUtsfZOFoo7EpNj1RUuk0mVQcn8fG+rpN3G4ejfiw2ZyEojHS6YToZ7S6SCdDNPf1Y7AXjiZK+F3opizEwy5kkwYiIRdOh5twtDAt6bKssrpZqERinHY3ka0YthUlfYMzeF1BMjnIJkNsJW4x4Z9LoZvu42pHNfH7PSH84GD6npzsDzIQ9WwyPdqHxREmYFbRPzaDbHYe3ZqV6dFhlrSrKPU6rOsqJGPTTE8NYrZZaenpZdlSOC0+FXIx2zmNQrOIWmtgcqKV1TUTi8taLKYVpuWz4oTCynohTvXaJmq1Hv2ilN6BaYyaRdadIdaUCqzbiw3eUxrBIRNgZLhRPC74pv4fQsf9QRZWWGRz5BJ+RmYXMBk1qO1bEHUjH1OjWNaQzaZZ0qmwGDXo3XHibj3LFhezBsMus1NBJ6P1A6gMZtKpAGrNFORzLOkX0StV2IWmF3Htxin04NpFHXaHBf26H3JRtBolSt066du00lzETp+kluhtaD5sOB8A5CwO4xKDQ0PMrdnwWTX09A8zNDGLIxTCaDKKJ7yvmYx4nCY2/XGi3g3M/girSilL+sI1RKlwALPWV+BvOoJxQ0U2k0YIFwhYGR3ppX9iToxz3bROOpdjY81EMOhldmKEUBoMM2Osb97+ZLpczMu8dPC+r+x4kCvO/iALuc/nxO+xYA1aVKjMvgMeECpcvnELqerdXMlmSN/i0FHhwJmw28rklFI81PvdQY/+354DBwN5TxypeFiccN/jdF+sQYcVe0A4BfPouVMO3DHId5rAEf3hc+AI5MPH4J7n4Ajke87iw0/gQCCnYgGMBgOe4LvvfLlegHgwvGfB3XX3+29LoJXLWDXvvUE2gU6xgHxxmXgmh8u8yoJSRSKbw+sPilq8bHILT+R6+aI+D/HtsZrXZkQ6P8ea7fohpplYBM8eGWHLHxDP8ox6rMgXFETSeUJ2EwrFkqiYyWx5kcsVuMM7ipwsQb//hgX+94pXBwLZvDTN8MQkcyNKQombS8tRn5/ELS5wzKdi2K17mX5vipNPRxlraqW1tYPRKRnJTJZ8NsFUezftnX0M9EnYcLlpbSilsaGB4RE185PtSJfNzPe2smAuKG6EG28kV8/TPbkuHkxXcbWUq9faaayqYknnFTPvXxnmhbeaSArj8WyMxqJzKDaMSGpr6JUMYnQEseqUdDXU0DesI+DeYKC3lYr2bvF6pNDqJC8VlRC7OTvvKoMOBLJVqyaSA7NmEaPNhnJuhjWTkzWFjMGBQZzeLQIbbqKxOFq1gtFZOZFEko2FOcYmlrCuKamprmV9W1MVdVmZGOhHuqAjGd1CPTGPzvTjb5QTToBvHb6+Tkrgv+DWPircApdkw2QktuWnq6OJsbFx+hc2yCUDtF65Qt/E4i5jhVP6F2bmGB6fJpuOUz86jrhdIGKlt7Nd1It7LTJ+ePosK44o4c0lyi6Wozet0VZdjcZR2EwuLAvWqhaYntOLJ987VpT0To+RyWeQDQj3SA1zP9bxHwhk89IE7R09TClNBDwbzMxoxJqpXHaSjgdQLirQja6wolmgtq2T7t5uJhUK5FqrOE4WDvxeVKgKm9PySVRKFYF4CufyIirtMlKJgviPcWj3Djp23ThtMtvOX/HtWp6gXW4Xroyjq/4S8jULbY1ldHT1Mzy/QDoVo/HyG3SKd1YVgqr7G2joHaGupBSjw0Pz2Dji9aEJD4P93WL37jbJqRkaZ3honMGJCYa7e1j1xslEbLR21DGtNpMJOxkb7md0SkUuG0c1Pkjv4AB9NfXU1bdQXFnBuv8OLqu4oWQH/3NAkGWs2f3CrbrE/BaWlt0kQw6mZ1WsrWpZUutZnzKwsaylf2QO3coaHts6k9NKTGYXyWgI6fQ0vlhKvL9Cr1SiWjGgk0pZXTWhnzLv5thv17DpsLO+ocNt1+Pe3le1S3AbSypopa68nCmZApV6jRX5grg5oLWumRmFioWJHnQmC+1t9cjkc7R1tzM20MPsygpDLbWo1jdRzc3QfLWCax2dtNSWipeZlbY2iCrdvsZa5hRmdIsatEsTtChNDDcWUzeqRDM6gGLDjGZRi3xUQkezFPPmGmrZGK2to9jsZpY1KmprWhgeGqKnvZEXT/6IJUFFfI+fA4EcCwZICFNAgv4/GSMQKggo1vVlpAsK8T5lw4wWfziFeU3HgmJJvHLHZtSzoDCQymYxb6xg2xbcMtEAC7J5DCYHuXSakPt6QYWtMr5QELfXTjhoJxzfEVQOxomY10h3ZydyvQWv1UwolSfhN9HT1UH/lFJUl+rlE7R3S7B5Aqysr4gtM+Q0smK2YzYYsLl3bk3NYd0woFNJaWvrQKo2iZmwbVrx+dyYgwkyIQe+eJawy0E4FkMjHaO7b5JwMsPK0gwd3X14Y3kCFi2dHZ1obTtxQyC4fTfhwYr2vqkOBPJ+sTtXVIxI9Rxd+LYfpw7H/66AnEklD3hB2OEU8sOe6l0B+cPOxAe9/EcgP+gI3YX8HYF8F5j4oEdxBPKDjtBdyN8RyHeBiQ96FAcCWTh550EwDzozH9T87QuyoOUSLmQOHrIRrm9/z1XFDypXH7B8vS+QQ4m8OBt1c+BzhJP5g1cKMa6dSpRDiPtm8R6B/P5rzp2DnMjhC2/hiRWuXN8LSDQNoVgKuy+IP5a7KVh76QW7LxLDG00XaGNpPOEYwmXQ76Y7Avk+gryVyiKbHWFyfoNwGoQ58HgWYqkMKosbz1aSDYcDYXIlJrhnIZzIs5VBnDvdEibTkwW74GfQj6NzbiHcDhwK+ZhXTOLZDhvNXv9UHIF8n0AWFgz4g2EUKg1jUhWuGDgsNjoHJlDoVrhQVceYYh2j3Yo74Gd8bIjuGSXOcBSNSsZA/ziKjTBOm5H+0UnU9ijry2NI+seRTCxg9bpFkJ2hGNL5SablBnyxQqs+Avk+gSy03DXNLL3zWsb6B1FbPMzPSFlxbOEPBmmbWsBgdTCvGGFhQY1m08vK6hJTci0D/Z1oVoziEYtGq4X6pgZah6XoNRNMKE2sri4xuaBFrp1BNjxJbWMztZV9rHmShBPCt/pI8Hq/MN/BNzlHJJFgeFhCz9AUvQO99I1IGZ2YRL7mwBOM0DezgGZ9kznlKAqFCpl6A6VaxoxSh3RxEm94C6msh9YhYTnRlHjarVo9xuCSgUX1AjOLOqRL4yxMzCIZkbG4ZsO7/e0/Avn9Qgx3BHJwK4rBbkdY4p7IZDCYNjFb7UhGp9Haw2ysrCJXb7DhsOMNBpkamWBQrscTibFhs+CLJDA5LKwurzAyKkdrsgB8X4QAAAG+SURBVOJwWZick+6hs+INh5gVzuRUGHYFvCOQ7zHIgqQrSLyBeI5Iim3JN0dkW/ASTpSNJPPimZTRDCKNMBSK5SEhCE+JnXA5UVAThDBh0cuWII0nEdc57dAJgtxOWEGg20k7eMDuOpfPYwul35exh9II4X/SngO15HAiK34ThdZ0WCacPNg3OZXNY/AkcW9lcEfuwGxlxHC32o/1QQZ+X5CFwgl1+0EwB2G0ALLJn0KsmPHCWF7Q2AkKmh03wS5W1r3+iawY7kML8kGY+6DQ7IAsgLirUElkcQdi4udFGJv7Iwl80cx1fwHsI5AfFAj3z8fNQBZ2M2jmRrnas8Dmho7K2h6skYwI7E5FOAJ5f94+MBQ3AzkoCH7xKN11lbz44nmk6z4iqRt15B8akF9W3vutLPe6Ngjnn28G0oSTggLluhGk9mgyg82bENWre/0Eu0AvhNteeXyvs3lf4xdu2wsEAhw79tYMT89ukk4mSCYSJD6gJhJLYHBGcIdiuIPXjUuwhxL4thI3uO/ShGJiuK3YB7fst8LMbDYXQD6ntDJgsOGx27DbbNg+wMZqtWG1vQ9j/WCX+3aYCWeX/39zlyjWb5fIzwAAAABJRU5ErkJggg==;" vertex="1" parent="1">
          <mxGeometry x="-451" y="310.5" width="121" height="95" as="geometry" />
        </mxCell>
        <mxCell id="6ZfNqcn49MTVpPQ85q8o-6" value="" style="shape=image;verticalLabelPosition=bottom;labelBackgroundColor=#ffffff;verticalAlign=top;aspect=fixed;imageAspect=0;image=data:image/png,iVBORw0KGgoAAAANSUhEUgAAAHYAAABVCAYAAACcnxCJAAAbo0lEQVR4Ae2dd2yj6Z3fJ0CAAAkC5C8Dl4IYKcgd4iBGLsghcQ7xxTnDcGwgOZ9zsC+Xtbd4ffa5bLW9a8/O7M7u7JSdXqXp0qiMpFGnGqlKSqwSOyWSYqdIkWLvYvkE70tpRrPeGWl8a08TgZfv+z58yu/5fp/+/J4f98j9MY7qvHj8AYKBAIHd64nGwOfzsba2xp63lB72nFMTy+YpFYsUd68nGoNUKoVA7p73NF7+7pV5cpUau58nH4FSqSS2OHeIzZarT36udnMgtjZCd7pL7FNWGISu9AHE1iiUSozZgrw84WHGn2TIEuDlSQ/TazmKu832Y1sctiG2zNyim1f6F9hzZJbvjNj5couaPafUvKGwow/nxIzVahkGz5/gZ28eQOnLkl9zcmLfPk5faSdbhqxnnpMXL5MEguYZ3nl3Hx2D86TSXo7vf4W91/oobOkBLOoR3jnwPjfGpih/EnS1PNValVjQgD0YvuMjHLRjWIndef/4Q61cpvJJhbFWZGlJTbL08RA7e3dYlDhj9w+cL69TYZ3FRdVDp5GOLNLcep1oYWeybPralthZm5tfDJvYc1rNS1InX+vQsadxnrdnHSxsEFut5omHo5x+8wVePith5ur7vP3uKd76mx8wYHTSf+Db/JN/9+ckqHL8Jy9x7FQjr736Nntf+zH7j57ntRef4/qke1MmOke6kJi9dA9fR6K1Y5hfIFZah1wel81Gz9U3ONXWSzQWRAAt6V9CoTATjceIZ7Jk0yG0cyrCqQrr2Sja+QXSuTLW0SaOnmkSC5Fr0cRyOFVPs1YmthYkV8oSdprRGJ1U7kgD3sUFfKEw0VROdC9Gc6yFfegW9KQyVRSyJsZMQfL5IuVinkKhxFrYxcLCIoVchg9OHeLGhJlIPCTG6jLNIjc6xed8wse8ap6V3N0U02E7M3IlmXKVlhvH+HnDMKUtBX+LaPd93JZYocZuEvs9qZOvbxD7yznHnRorxL4w0cnLL3yXIY0T+3QTf/yFL/K1v/gey8kCedsgf/qVF4lUK/Qfe4v/9oUv8+P3D/Cr535Ai8pDx6++z/4L8jtCDgy3c7q9m/beNnSGBd544S85dG6EhY5bnDzSyrXTL/NOQxdGVTOymSFunrhIS+s4qjkJ05o5Gk4d5OyZ85xtmiS6auLVF7/FmzdkqPsusu/9U4zODvP8957nuTf340rVoJpgQnoJ+WQrh/fv5fD+w2iWVkV57JO9/OQH3+ZH393LmUsdLIcC9PWMs2ib5afP/R8+bJYyr5fS0TWASmMhZFUj11hw6/r4zl98m+ahSfZ+8CtOtUiQTzei1Si4duEUJy+fRa6b4cpHr3PoveNcvjmGMB/JRey0Nh6nseE03bJRTp8+yJvnpfcUtDtAPeBhW2JVS272jpjYc1LFd0YcfLldy56GefarHBg3m+L1Apl8hr4TP+fHP7/Au3uf551WKe/+9H/z/pAdPFK+8MXnCKZDvPx/v8rtaQWvvfh1/vxr3+JMq4QjP3qeC5KlO2L29FzmlaMN6J0rTM92ceHyZT768BzDl0axWKqs2ZvReYOsGJo4f+EATdJ6WKuym8FJGc3dfWJcvafa6Lp+lc4bDbx+vBmHUY/ZuEh/y0n2nW2nb2yCaBGoxBmRnGFCeo0p6zIRYxPDSq0Yh+T9Axw83cygRIFFp+DC6TNMW0yo20a4dfEMf32+kXH5MLc6O5mYU+JSzdDXN8LkFQmXLh3hndYuejVK9Cth5mSHuNXWjyNYpRyZ58qli/SNXCGXXaWv8yOE1nZ1cZa+gXmgxO3WdrrkU/Q579+93AHtYw/bEtujdfCuysf3p1zctgZp0rn5/oyXX83YGQtkxeiqSR9nTh3kpy++woDSw+LCMC/9zau8sXc/zmiesk/JD3/8HrFKiYmus/zotdc5cq6JJessr7zwl7x98sY9fc+Ubha90CED8u4z7P/gGB19I8xLdCw7CmR8UxxsvMX8fD9Ws5rmkx9x8GgH8/pZ9JZ5Gs4e4O29H9CpszDX2cwHhw9ytVdBasXOiYYGZlQ6jh0+TFPXUL0Pr6TQKLvRL4xgcvsIL0nQLNULS9Sp5Nz+D7jYOwnVHE3nL+POlZhpvsCRQ+9wdngC7YIS87KVppP7eHvvMeZUZrobTnL42Hs0a83My/ppuNiBemEAr9vE2V/+gl+ePsuSx4pWM0AqGUYu7xSJreQidJ8+yP539iKzLGG06ZA6o3UwHuJ7G2JruKJp+jxJpME0yWKZWDKL1J+k153EX7zbLxTzOdbvvkK5JDYtnyTLemnLQKO6fedRLAjV6t7P+nqZuyErZHMbo4u0k6buW4Qyd0cbheLd8Ovl+nCsul4gly/cV8atqVVLBbK/JkONYnFLPgBhcFYsb4JQpljcHPrVKAtjhI2PEF9+/UELQTVy+bsyb4Z7mPs2xD5MVI+J33KO4OrqFtIfE7l+x2I8fcT+jgF8XJP77RFbyzI3PsXWxqpQzLG2frcB3RaUapGV/NYYIOrSMGVybBv0WfewLbHldAarUkW/bFwkKR/zI51QEo4ESBdiJINRYms50ukwm1Mxl2GOtpYbtNzsIRSyI5VKWckUGWw/yfOHWgkEXIxKpfhC9QUOgYRU0E5X9xAra2uoFDJ0xiBuwxDf/NmH4lbizKQUgy1KyDZK56yZQsJJZ1cXhqAwFy2jGOlhdHqBYPbegvCsErwtsaGZEd597SNONVxibHKWQ8ff5rm/eo6fHfsAiXyOoQsnuCpRMDM4RKIChZCN86evcqu9mTOX+4m4NLz07W9y5FoPI0M3eeXCABGvntf/3zf54fF2hCFFLR/k1oWrdEqmiKQS3HjvVb710tsMTQ3x1wfPE1oNcuqN7/HtVz9Ca5QzPK2gv7uRzp5eGm9I6Om+yYXmJs6fP8qpaduzyuU9+d6WWI90mvFuO3GrncGPmnjr4Af0jgyjtS8zeP0crX1TtFw4wa0pqxhxdHGa5n4d+egyN842cr6vnzPnjnPm+BE0SxauL1hQX+mg9dxpnjt+ijSwHlZz9tI1hHHg8vgEbR9e4o3j++mYU3JJqcM8MEb70Yv85NQhuqSD9Eok3O7oJl9aZ/hqJ2f3nsbiTaKZu83pKcs9GXxWX7Ylds1qx6IJEHO5sat9KCcHOXbmLGZ/BI9SgWkphko+itoXFzGsFvP0XzrLviPHGJpUMzXUydGDRxmZmiQe8XLtTAuDXS2cOfY+jWMKkUxq68z0tvDekfMo5xRcPv4hJ9o6WIyu0nOpmcHuXi4eP8TZ3iH0i0Zs/iBG5S3eefc9bs7ZSGZctJ44zb5393Fde3dp8lklVcj3tsQ+CeAU435u3Wqn8VgjywGhDdj9PBXEFlJhpqenWfLV13d3aX1Kauwukb+OwFNRY389W7suu8Q+pWVgl9hdYusI1Go1yoKKSblMtVqhVnuIJcKnFMTHMVsPVWMFXVVBETmfzZJIJonE4uSyWXK5HJXK5nbV45jNZ0+mHRFbq4HT5WXJ7iCRiDOhXuBM6wD7L7Rwpn2QlVCYZCIu1uJnD8LHM8c7IjYUjjAqnWZGrmJOq+dPX3iTz/z+f+Iff/b3+df/9asMTSlIJ6IkEw+vwvF4wvLkS7UDYmtYbVYmpuRMy5U035bwuf/8Jf79P/sML/zxv+W//Kt/yi/2HWDRE2TB5iSZ2VBJrZRZmBnmWssg8XQWh8d9Z/fnYWArpyPcbm1maNLIJ2mO3htXHpfHi8dlJJq7q7Fwr59n421bYoV+1WIxMKuYRT6rZFAyxOFXvsvJF75K//4X+eFXvsDxfW8zOjtPz5QWqysgIhfzLHDhSj/+aFgkey2RoFQpEQuvkEiliYSCJDJ18KMhL4l8GUFPJR1dxbuyqStcY2bwNt1SPatrUQq5HF6Pl6QYrkY6HsYXrOsDlVIxXAYl/RPTyCeamdLq8YfrilMlQY2mUqa0RT3laad3W2KzuTzDMhlXb3Vys7efoaFBbJLrWG4eRXr0DZpff5G+Uwdp6Bzk7O0x5ox2EbNyfo3Rjhv0jk1SLSaZ1WhQyG5x6fx5bjQ00HrjBleH5lg0jXH4wJscv3ILi1JF4/GLnLt6BaO/TkrYa6PlSgMasw/WYzQe2ceRy4O4F7VcbGzkytVLmJ1LSDtucrPxCs09MpSyZhovXKOl8xYapRqdYYk1rx250vC083knf9sSK9TYQamME1dv8NrRE7x14jTG0XYCPSe4+eNv8d43vsTJ/W/yXtsgb1/vYdpUJ7ZaWRcVxbTSLnplchSqOcaHmzGtBlDelBFZCdIpn6b54jEaWnuYkM+gG51BNecmqNczPVHXkqhQo1aM0t7VxohUi6KriwOXrzE+JWPaEiLjVXOz6zbTs4JWYZrB/lGkwzewxcskPWrarrWhNNmIOs2MyDR3Mv60P2xLrACA3mTkUksbPz96nFePHOfQoQMor7yF5P3v8/o3/oTvf+95Xjl9lZ+eb8IeqDej67kQ/Z03uNDcgd7pYEGvR6sawhkLY5JoiYWDDGkNmIxzXL9+hbEZKz69BasxyIrZgl7rF7Ffcai4dvkSreOzqGQjNDeeobFvCK1eg94dJe4xoDKbmei+TuOZS3QOz2JU93C6oYGrXX0Egl56b17g1MmLTKjqhe5pJ1XI346IDUcivH/2HK8fPsKL73zIH3z+j2j8wf/k8PP/g2996Y/40n/4PP/wM/+Cg2cbqG5RJ82lYsTTdTVQYWFDvASNCWH+BFQ3NDBzyRjxVLauCiq4bfiteyoTX4uwqcmZSsYobKhuCtHciWu9QDye2tBOrJFNJUgV6nPr9XyWRLquAy3G+Qx87YhYAYfhGTlf+eEr/IP/+HX2/L3f48/+8HNce/Fr7P9ff8J//5f/nH/zB59n0eF6BiB7MrK4Y2KF7NyWTvO5L/4Ze/7+77Fnz9/hDz/7Wd76xtdoOXaIYDD4ZOT4GZHyoYgVMBGWEKdmFNxs66KzZ0C0c/CMYPVEZfOhiX2icvcMC7tL7FNK/i6xu8Q+pQg8pdnarbG7xD6lCDyl2dpRjS2l15ifNxFNfvJh3HIpy2oq80CIMqsBFtQLrMTyd/xlMgkSHztNt/ljLpEivbH7s+n2oHutVsSoHGPaUDfa8SC/z8Jv2xNbyTE3rUFvcRCK1smrVQV9p014ahTzWdEGo+BSrQjL9pCKBVC7VjaWDWssSZWo53QoZsykioJBjwqZTIqMeKyyRnHLllqtWiGXypBai2A2L7N+z0bsxjrkZvIb92IxwcLcLF1dV9G5dhXHtye2WsKsEWw7LIqEBZeNjMvGkMkNxJKryCdmWDCZWFmLsmybZ3RsGJ1liUXjLGdbJCTyQgmosTxtJZZIYlPZsBjlyGdVOJcdRFMpbKYJBoZHsYViBJ0GJuU6lv1BHAYtLTfbMej0BFazJAPLOLfR9p8d70DvT3yM9mfvdXtiRUyqhJc06Mx2rCYtvmyVuNOFbkaFZslHPu7D5LBj0KtZiaVYss3j9PtR+tc2EBVq7ASdHf2YV+J4bDJc0RSRgIV5vYVFZ30nxzhhQKNV4Y0XWXE5WbQ7sdlDVEspbDYLerOVcOqTNSOq61nM+jE0ns1N+mePzK053p7YSgGPw4RKNYfC7sa+qGV8RolcrcfjtmP1hynE/ZgdduxOC6l8EbvDgi8UYGRcRTIv7LAINdZCNFE3thFYmiScyrPqs2L3+tBpxpHPzqEzu3A6TazmKyKxLm8AtXySSLqI36JEo7t//7nmVnPs5Cl6h6S4V3cPZm1PLJCNh3G4vJQq4F5SozY6CCeEbbAqhdI6tco6xVKJUqlIpVoT74LOcTwYJrdhUqyUK1Le6CvXSznKlSrl9YJomKqQiuBY9lCsQqVcpFwVrKyURP/p2ArxVBrTnBqXf8OS2taiufFcLqSxmAxodHpWU3ctxnyC12fCaUfEbkUiEvZxn9Zwq7dP9TkT8qCzLH+yXcVPNaWnJ7KHJvbpyfrTnZNdYp9SfneJfZaJLZfyrEVj3NdEU61KMV+s6yw9YqDCfi+x9KYd5RrVcom1SIjQqnBFKRYKhAJewrF7B2LCAC6aEgaEZUJBP4FgmEx2c6WtxmoojKD6LHySkSDJQv1F0NdaS95dTXvE2b+T/A5qbI0l9TgDg8NoVE7RfM+d0JsPtRKx4Np9Ta/m4nGK9y0Vm5H8Le+VPGrJAFcbrzA6rRFlSfsczM0omBrrZd+r79AhGUcq6+fQ2QaarjSgXPCJieYSQdraztHY0ILL5aGv4yYnDrxP27BR/N2plnPhxEl65Vq8ATuXLx/jZtsYoYCHnqsXOd/chi/+eJG7I2KdRrMIlF2nxRsKY1zQE4nGsWoUzGkMojHI5EqK0noOnU6DYyVOpZhBMylnaXmFOUkb/bMmMY5apYzLoGVqeo5MoULM6URvciBOd/8W3K7YdXT1103RCvNmYeEx7jAinai7KW5Oi7ErlDJUq8KSZgpJa5to9dwxMY7GFie5PMOYrq6iapqR4xbMeleS3B4cIVOroRoYpO1iN+E8ODUSpOPjTA+MManoZyH4eM2dd0SsdW6Uvv4RdPYVPIsLaHRW3HYb1uUwIbsZvdHK8rSdWd0ETS1t9IzLmNWZcLoj5HIF7Bo5Vm9EBDsWXEZn9BDxOzGazWgH5Sz5Yjs4l/Ng1u0LMiSGlXs8pZbNyKYEYqtMXJciLFErVOPMBurz3NnRdoQG2SGZxLqUpxjVMaKzU8mtIJPr6i1QJYFkfEycaulvD3Hj0G2EVVKvRcbQ5Czjtzrp6BvAKVqIuyf5R/qyI2JtKjlWzyqVKvidS3jDGVY9i+hsXvw2A0bzEp5ZJ2q1QgTE5Q9gnNdgWAqQzq0TtM5jEjYEhFoUdDE37yDgWsRgMmGW2clsWMkrZUJ4A26CKy5WQh5W1+qm1neCUCa4xI2rTSxYFlle9uEwW1icVyMdV4nEjl6UiMROT/bSPL7AwlQ/w30KFn0u1LNyesdkTPXeRu9axauZQrUUhnIKu0NBb98osqkphsbGmJCOIZlWMN3fS+/tLvrGdcwMDzKmfLzsS+2I2GQkSmljUyWdiJPIrlMr59EpFajnLZSLOUxyB7lcEvXsDBann3I+jWJajtOXoijY6Lc5xFIv7NwsGrVMK9RkC2WSgRjFcj3y9WyEYNjPasRHJBpgLf5wBpijXgMtza1oLV5WvB6CwRWCQWGnp4bP4hVr4KrbQNONJgZGFOIKl8vnIpzNoxnvQSLTC7rqrNo9xBIlqKRxe20kwgFa2tqxhtPUaikGO1tQmsNUy0Wk/R10D6nIbyjB76QQ/i787IDY7cSoYZRPo3bsLr5vh9Tv8vdPgdgquUxOLOm/S8F303owAp8CsQ9OYPfXR4PALrGPBvffeqq7xP7WIX40CewS+2hw/62nukvsbx3iR5PAtsQKM0xBK+JxuwQti82D05vQPWoZBZmERZzH4bMtsQJY8XzlsbtiuQr5LRsLwvpA4hHLKciUEfR7HoPPjogVABNBy1VIr0OhBrlyHcjN3z6te7JYI1Wsiuk9KM74JxArKM5thhHk3Pq+6b6Te6qEaOZgJ363+hFkeiKJFQD3et3IlTr0rqhIsgBeslAnQlAET208b7ptzXiyUAd+87dkQSCxJpIhuAnxh2NpVhJFksXqnXiFODbDbMZ3f2KFcOt4fXEimbIYbjPdzbD1u+DvY/IUERXY/YEYK/GSKM+mn60ypIrckWerXE8osVUypXUUshHG5uYZk86gXY6SLlVYy1bIl6uYrQ7sKxkRsFi2THqTNLEWVlhLl4jnyqxl1smUIbwSRG91EytWiWVK5GpgMlvQ2WPigr3gX/iz3sx6jXi2hFibN8i4P7FCIVjH508QzdVIF6sIfsUCJBSeQnVDrrLYvQg1O55dJ1GssizoMfujhMIpVlNVUnnBjxBHjVh2HaGpzVZqWE0WlqN5ciXBvXyncD6xxKYKRXSqBUIlyGXWkGudON1OWm4NoHEG6GtrpXfKwKJjkeZbA2h9aXLlGqlsHqVsgn6pAd/qGj3dfYwZfFjnZzjf1MViIMxYXw+yOTvmxWWMjgha7TytXUPoLGuiNbbbgxIGBuaw+3N1ou/bFFdJ5/OY7AEcy25GRmT0jM0ya3JgDSbwuIMYbUGUs2N09U2xZPfSIxllwRNmRtLB9YFJDM5VnH4PQ6MSuocmUAaSrNgttLf3Y1wK0Nt6he45G6alRW529qGwh0gLhe/JbIqF0l4QiV0tQyoeYFJnY9lpo6+vm44pA3qzE2c4j8u+wK2uTjoVdvHftZwOC7IFv7gfuxJwMTk2wKV+BQ63D4PVSygRZWRijFsto8yZ3Wg18yiMHrEv185I6J+Q48uDaVKHzhYX/x78/jW2Jv6XrVxtRbtgRD7vxup0MKU0oDaY0djsqBRq2m920z+kQKk2MD2jxR6KYbdYcQajGCxLjAxOYQnlcLutDBpcLHsW6Wi/zfC4GZN5CX8oRHv3bboGRpBoF0mW6l3KE9jH3m2Kh6aUDExIsfr8zEhGGJBNMqpaxGgSzt0oGe2vuw0rnQjaR6tBHwOSSZRGN8qJSQZGZfSM6/D4gkinZpEqxukenWJsVM6s3o7B7GJiao7RKSWzs2Y0Jg1SlRJJ1xR6R2oHxGaZ1VjFIymG5RjLrmX0jjV0iknGFvxEgj6G+keZMTkJxOJMjgwwMG1m2WFjTKlDaXCgVmqZnFAyMjnJsMHK+MQQfcNTTKsWMSxomVywMDExx9C0GkcwQapUb/KfQGKFfqqKPxhAvWDGFsqIyl3BUIh56zKBeIm1RByHdwV3IIR+0U0wXhQHGcJGuls4ymEJEIqnMNjsLIfSpPLrLHmDuENxzFYnzlCC1WSOaLZKaDWMSr/EShqS6RTaeSX9o5M4QsVtmuIKyfw6oXiO1USO1VSJaCpPJL3Oaiwjypkt13Avu9BYPfgjMYw2O/5EiWQmi8UdwL+WJ57NYzaaGJbI0LgTRMJh5m1uVpJFIrEYFn+MSDyBRm/GGUqK2DxxTbEgsHAJgwdhMJOrQloYOGy8Zysbo8QC4khZmC5ky3U3wY9wCacHRLciCP6F8ML8WBi8CP4zohskNkfVRUQzuJlyDc/yMv2DY0zZXCSK9b4slq2Q+/g8dkNOQVZhxC3GJcS3EacQVhjFivKUN2WsifIIgyphoCQcyRVkWo2uMiQdY0JhEkfXgtvWfAqFNVGoyygMzMR8ZiukC0/IPLZaq4nnb4QzOI/qEtQ+hXm/cAxoU4ZsqUppy7lZYYEi/2nKuF5D+ENrQXNE+HfmzXQfdBdkKmxogzzqNYptFygetYC76f9mCOwS+5vh9tiH2iX2safoNxNwl9jfDLfHPtQdYvepPey5pBMXBR57qXcF3BYB4U+vAoEAew7P+/lH1+dxBVZYDYcIhXavJxkDn89XJzaezhBKpIjFYsRjMfEuPO9eTy4GmUyG/w+1NWhmfy9sVgAAAABJRU5ErkJggg==;" vertex="1" parent="1">
          <mxGeometry x="-451" y="430.5" width="118" height="85" as="geometry" />
        </mxCell>
        <mxCell id="6ZfNqcn49MTVpPQ85q8o-7" value="" style="shape=image;verticalLabelPosition=bottom;labelBackgroundColor=#ffffff;verticalAlign=top;aspect=fixed;imageAspect=0;image=data:image/png,iVBORw0KGgoAAAANSUhEUgAAAHYAAABVCAYAAACcnxCJAAAbo0lEQVR4Ae2dd2yj6Z3fJ0CAAAkC5C8Dl4IYKcgd4iBGLsghcQ7xxTnDcGwgOZ9zsC+Xtbd4ffa5bLW9a8/O7M7u7JSdXqXp0qiMpFGnGqlKSqwSOyWSYqdIkWLvYvkE70tpRrPeGWl8a08TgZfv+z58yu/5fp/+/J4f98j9MY7qvHj8AYKBAIHd64nGwOfzsba2xp63lB72nFMTy+YpFYsUd68nGoNUKoVA7p73NF7+7pV5cpUau58nH4FSqSS2OHeIzZarT36udnMgtjZCd7pL7FNWGISu9AHE1iiUSozZgrw84WHGn2TIEuDlSQ/TazmKu832Y1sctiG2zNyim1f6F9hzZJbvjNj5couaPafUvKGwow/nxIzVahkGz5/gZ28eQOnLkl9zcmLfPk5faSdbhqxnnpMXL5MEguYZ3nl3Hx2D86TSXo7vf4W91/oobOkBLOoR3jnwPjfGpih/EnS1PNValVjQgD0YvuMjHLRjWIndef/4Q61cpvJJhbFWZGlJTbL08RA7e3dYlDhj9w+cL69TYZ3FRdVDp5GOLNLcep1oYWeybPralthZm5tfDJvYc1rNS1InX+vQsadxnrdnHSxsEFut5omHo5x+8wVePith5ur7vP3uKd76mx8wYHTSf+Db/JN/9+ckqHL8Jy9x7FQjr736Nntf+zH7j57ntRef4/qke1MmOke6kJi9dA9fR6K1Y5hfIFZah1wel81Gz9U3ONXWSzQWRAAt6V9CoTATjceIZ7Jk0yG0cyrCqQrr2Sja+QXSuTLW0SaOnmkSC5Fr0cRyOFVPs1YmthYkV8oSdprRGJ1U7kgD3sUFfKEw0VROdC9Gc6yFfegW9KQyVRSyJsZMQfL5IuVinkKhxFrYxcLCIoVchg9OHeLGhJlIPCTG6jLNIjc6xed8wse8ap6V3N0U02E7M3IlmXKVlhvH+HnDMKUtBX+LaPd93JZYocZuEvs9qZOvbxD7yznHnRorxL4w0cnLL3yXIY0T+3QTf/yFL/K1v/gey8kCedsgf/qVF4lUK/Qfe4v/9oUv8+P3D/Cr535Ai8pDx6++z/4L8jtCDgy3c7q9m/beNnSGBd544S85dG6EhY5bnDzSyrXTL/NOQxdGVTOymSFunrhIS+s4qjkJ05o5Gk4d5OyZ85xtmiS6auLVF7/FmzdkqPsusu/9U4zODvP8957nuTf340rVoJpgQnoJ+WQrh/fv5fD+w2iWVkV57JO9/OQH3+ZH393LmUsdLIcC9PWMs2ib5afP/R8+bJYyr5fS0TWASmMhZFUj11hw6/r4zl98m+ahSfZ+8CtOtUiQTzei1Si4duEUJy+fRa6b4cpHr3PoveNcvjmGMB/JRey0Nh6nseE03bJRTp8+yJvnpfcUtDtAPeBhW2JVS272jpjYc1LFd0YcfLldy56GefarHBg3m+L1Apl8hr4TP+fHP7/Au3uf551WKe/+9H/z/pAdPFK+8MXnCKZDvPx/v8rtaQWvvfh1/vxr3+JMq4QjP3qeC5KlO2L29FzmlaMN6J0rTM92ceHyZT768BzDl0axWKqs2ZvReYOsGJo4f+EATdJ6WKuym8FJGc3dfWJcvafa6Lp+lc4bDbx+vBmHUY/ZuEh/y0n2nW2nb2yCaBGoxBmRnGFCeo0p6zIRYxPDSq0Yh+T9Axw83cygRIFFp+DC6TNMW0yo20a4dfEMf32+kXH5MLc6O5mYU+JSzdDXN8LkFQmXLh3hndYuejVK9Cth5mSHuNXWjyNYpRyZ58qli/SNXCGXXaWv8yOE1nZ1cZa+gXmgxO3WdrrkU/Q579+93AHtYw/bEtujdfCuysf3p1zctgZp0rn5/oyXX83YGQtkxeiqSR9nTh3kpy++woDSw+LCMC/9zau8sXc/zmiesk/JD3/8HrFKiYmus/zotdc5cq6JJessr7zwl7x98sY9fc+Ubha90CED8u4z7P/gGB19I8xLdCw7CmR8UxxsvMX8fD9Ws5rmkx9x8GgH8/pZ9JZ5Gs4e4O29H9CpszDX2cwHhw9ytVdBasXOiYYGZlQ6jh0+TFPXUL0Pr6TQKLvRL4xgcvsIL0nQLNULS9Sp5Nz+D7jYOwnVHE3nL+POlZhpvsCRQ+9wdngC7YIS87KVppP7eHvvMeZUZrobTnL42Hs0a83My/ppuNiBemEAr9vE2V/+gl+ePsuSx4pWM0AqGUYu7xSJreQidJ8+yP539iKzLGG06ZA6o3UwHuJ7G2JruKJp+jxJpME0yWKZWDKL1J+k153EX7zbLxTzOdbvvkK5JDYtnyTLemnLQKO6fedRLAjV6t7P+nqZuyErZHMbo4u0k6buW4Qyd0cbheLd8Ovl+nCsul4gly/cV8atqVVLBbK/JkONYnFLPgBhcFYsb4JQpljcHPrVKAtjhI2PEF9+/UELQTVy+bsyb4Z7mPs2xD5MVI+J33KO4OrqFtIfE7l+x2I8fcT+jgF8XJP77RFbyzI3PsXWxqpQzLG2frcB3RaUapGV/NYYIOrSMGVybBv0WfewLbHldAarUkW/bFwkKR/zI51QEo4ESBdiJINRYms50ukwm1Mxl2GOtpYbtNzsIRSyI5VKWckUGWw/yfOHWgkEXIxKpfhC9QUOgYRU0E5X9xAra2uoFDJ0xiBuwxDf/NmH4lbizKQUgy1KyDZK56yZQsJJZ1cXhqAwFy2jGOlhdHqBYPbegvCsErwtsaGZEd597SNONVxibHKWQ8ff5rm/eo6fHfsAiXyOoQsnuCpRMDM4RKIChZCN86evcqu9mTOX+4m4NLz07W9y5FoPI0M3eeXCABGvntf/3zf54fF2hCFFLR/k1oWrdEqmiKQS3HjvVb710tsMTQ3x1wfPE1oNcuqN7/HtVz9Ca5QzPK2gv7uRzp5eGm9I6Om+yYXmJs6fP8qpaduzyuU9+d6WWI90mvFuO3GrncGPmnjr4Af0jgyjtS8zeP0crX1TtFw4wa0pqxhxdHGa5n4d+egyN842cr6vnzPnjnPm+BE0SxauL1hQX+mg9dxpnjt+ijSwHlZz9tI1hHHg8vgEbR9e4o3j++mYU3JJqcM8MEb70Yv85NQhuqSD9Eok3O7oJl9aZ/hqJ2f3nsbiTaKZu83pKcs9GXxWX7Ylds1qx6IJEHO5sat9KCcHOXbmLGZ/BI9SgWkphko+itoXFzGsFvP0XzrLviPHGJpUMzXUydGDRxmZmiQe8XLtTAuDXS2cOfY+jWMKkUxq68z0tvDekfMo5xRcPv4hJ9o6WIyu0nOpmcHuXi4eP8TZ3iH0i0Zs/iBG5S3eefc9bs7ZSGZctJ44zb5393Fde3dp8lklVcj3tsQ+CeAU435u3Wqn8VgjywGhDdj9PBXEFlJhpqenWfLV13d3aX1Kauwukb+OwFNRY389W7suu8Q+pWVgl9hdYusI1Go1yoKKSblMtVqhVnuIJcKnFMTHMVsPVWMFXVVBETmfzZJIJonE4uSyWXK5HJXK5nbV45jNZ0+mHRFbq4HT5WXJ7iCRiDOhXuBM6wD7L7Rwpn2QlVCYZCIu1uJnD8LHM8c7IjYUjjAqnWZGrmJOq+dPX3iTz/z+f+Iff/b3+df/9asMTSlIJ6IkEw+vwvF4wvLkS7UDYmtYbVYmpuRMy5U035bwuf/8Jf79P/sML/zxv+W//Kt/yi/2HWDRE2TB5iSZ2VBJrZRZmBnmWssg8XQWh8d9Z/fnYWArpyPcbm1maNLIJ2mO3htXHpfHi8dlJJq7q7Fwr59n421bYoV+1WIxMKuYRT6rZFAyxOFXvsvJF75K//4X+eFXvsDxfW8zOjtPz5QWqysgIhfzLHDhSj/+aFgkey2RoFQpEQuvkEiliYSCJDJ18KMhL4l8GUFPJR1dxbuyqStcY2bwNt1SPatrUQq5HF6Pl6QYrkY6HsYXrOsDlVIxXAYl/RPTyCeamdLq8YfrilMlQY2mUqa0RT3laad3W2KzuTzDMhlXb3Vys7efoaFBbJLrWG4eRXr0DZpff5G+Uwdp6Bzk7O0x5ox2EbNyfo3Rjhv0jk1SLSaZ1WhQyG5x6fx5bjQ00HrjBleH5lg0jXH4wJscv3ILi1JF4/GLnLt6BaO/TkrYa6PlSgMasw/WYzQe2ceRy4O4F7VcbGzkytVLmJ1LSDtucrPxCs09MpSyZhovXKOl8xYapRqdYYk1rx250vC083knf9sSK9TYQamME1dv8NrRE7x14jTG0XYCPSe4+eNv8d43vsTJ/W/yXtsgb1/vYdpUJ7ZaWRcVxbTSLnplchSqOcaHmzGtBlDelBFZCdIpn6b54jEaWnuYkM+gG51BNecmqNczPVHXkqhQo1aM0t7VxohUi6KriwOXrzE+JWPaEiLjVXOz6zbTs4JWYZrB/lGkwzewxcskPWrarrWhNNmIOs2MyDR3Mv60P2xLrACA3mTkUksbPz96nFePHOfQoQMor7yF5P3v8/o3/oTvf+95Xjl9lZ+eb8IeqDej67kQ/Z03uNDcgd7pYEGvR6sawhkLY5JoiYWDDGkNmIxzXL9+hbEZKz69BasxyIrZgl7rF7Ffcai4dvkSreOzqGQjNDeeobFvCK1eg94dJe4xoDKbmei+TuOZS3QOz2JU93C6oYGrXX0Egl56b17g1MmLTKjqhe5pJ1XI346IDUcivH/2HK8fPsKL73zIH3z+j2j8wf/k8PP/g2996Y/40n/4PP/wM/+Cg2cbqG5RJ82lYsTTdTVQYWFDvASNCWH+BFQ3NDBzyRjxVLauCiq4bfiteyoTX4uwqcmZSsYobKhuCtHciWu9QDye2tBOrJFNJUgV6nPr9XyWRLquAy3G+Qx87YhYAYfhGTlf+eEr/IP/+HX2/L3f48/+8HNce/Fr7P9ff8J//5f/nH/zB59n0eF6BiB7MrK4Y2KF7NyWTvO5L/4Ze/7+77Fnz9/hDz/7Wd76xtdoOXaIYDD4ZOT4GZHyoYgVMBGWEKdmFNxs66KzZ0C0c/CMYPVEZfOhiX2icvcMC7tL7FNK/i6xu8Q+pQg8pdnarbG7xD6lCDyl2dpRjS2l15ifNxFNfvJh3HIpy2oq80CIMqsBFtQLrMTyd/xlMgkSHztNt/ljLpEivbH7s+n2oHutVsSoHGPaUDfa8SC/z8Jv2xNbyTE3rUFvcRCK1smrVQV9p014ahTzWdEGo+BSrQjL9pCKBVC7VjaWDWssSZWo53QoZsykioJBjwqZTIqMeKyyRnHLllqtWiGXypBai2A2L7N+z0bsxjrkZvIb92IxwcLcLF1dV9G5dhXHtye2WsKsEWw7LIqEBZeNjMvGkMkNxJKryCdmWDCZWFmLsmybZ3RsGJ1liUXjLGdbJCTyQgmosTxtJZZIYlPZsBjlyGdVOJcdRFMpbKYJBoZHsYViBJ0GJuU6lv1BHAYtLTfbMej0BFazJAPLOLfR9p8d70DvT3yM9mfvdXtiRUyqhJc06Mx2rCYtvmyVuNOFbkaFZslHPu7D5LBj0KtZiaVYss3j9PtR+tc2EBVq7ASdHf2YV+J4bDJc0RSRgIV5vYVFZ30nxzhhQKNV4Y0XWXE5WbQ7sdlDVEspbDYLerOVcOqTNSOq61nM+jE0ns1N+mePzK053p7YSgGPw4RKNYfC7sa+qGV8RolcrcfjtmP1hynE/ZgdduxOC6l8EbvDgi8UYGRcRTIv7LAINdZCNFE3thFYmiScyrPqs2L3+tBpxpHPzqEzu3A6TazmKyKxLm8AtXySSLqI36JEo7t//7nmVnPs5Cl6h6S4V3cPZm1PLJCNh3G4vJQq4F5SozY6CCeEbbAqhdI6tco6xVKJUqlIpVoT74LOcTwYJrdhUqyUK1Le6CvXSznKlSrl9YJomKqQiuBY9lCsQqVcpFwVrKyURP/p2ArxVBrTnBqXf8OS2taiufFcLqSxmAxodHpWU3ctxnyC12fCaUfEbkUiEvZxn9Zwq7dP9TkT8qCzLH+yXcVPNaWnJ7KHJvbpyfrTnZNdYp9SfneJfZaJLZfyrEVj3NdEU61KMV+s6yw9YqDCfi+x9KYd5RrVcom1SIjQqnBFKRYKhAJewrF7B2LCAC6aEgaEZUJBP4FgmEx2c6WtxmoojKD6LHySkSDJQv1F0NdaS95dTXvE2b+T/A5qbI0l9TgDg8NoVE7RfM+d0JsPtRKx4Np9Ta/m4nGK9y0Vm5H8Le+VPGrJAFcbrzA6rRFlSfsczM0omBrrZd+r79AhGUcq6+fQ2QaarjSgXPCJieYSQdraztHY0ILL5aGv4yYnDrxP27BR/N2plnPhxEl65Vq8ATuXLx/jZtsYoYCHnqsXOd/chi/+eJG7I2KdRrMIlF2nxRsKY1zQE4nGsWoUzGkMojHI5EqK0noOnU6DYyVOpZhBMylnaXmFOUkb/bMmMY5apYzLoGVqeo5MoULM6URvciBOd/8W3K7YdXT1103RCvNmYeEx7jAinai7KW5Oi7ErlDJUq8KSZgpJa5to9dwxMY7GFie5PMOYrq6iapqR4xbMeleS3B4cIVOroRoYpO1iN+E8ODUSpOPjTA+MManoZyH4eM2dd0SsdW6Uvv4RdPYVPIsLaHRW3HYb1uUwIbsZvdHK8rSdWd0ETS1t9IzLmNWZcLoj5HIF7Bo5Vm9EBDsWXEZn9BDxOzGazWgH5Sz5Yjs4l/Ng1u0LMiSGlXs8pZbNyKYEYqtMXJciLFErVOPMBurz3NnRdoQG2SGZxLqUpxjVMaKzU8mtIJPr6i1QJYFkfEycaulvD3Hj0G2EVVKvRcbQ5Czjtzrp6BvAKVqIuyf5R/qyI2JtKjlWzyqVKvidS3jDGVY9i+hsXvw2A0bzEp5ZJ2q1QgTE5Q9gnNdgWAqQzq0TtM5jEjYEhFoUdDE37yDgWsRgMmGW2clsWMkrZUJ4A26CKy5WQh5W1+qm1neCUCa4xI2rTSxYFlle9uEwW1icVyMdV4nEjl6UiMROT/bSPL7AwlQ/w30KFn0u1LNyesdkTPXeRu9axauZQrUUhnIKu0NBb98osqkphsbGmJCOIZlWMN3fS+/tLvrGdcwMDzKmfLzsS+2I2GQkSmljUyWdiJPIrlMr59EpFajnLZSLOUxyB7lcEvXsDBann3I+jWJajtOXoijY6Lc5xFIv7NwsGrVMK9RkC2WSgRjFcj3y9WyEYNjPasRHJBpgLf5wBpijXgMtza1oLV5WvB6CwRWCQWGnp4bP4hVr4KrbQNONJgZGFOIKl8vnIpzNoxnvQSLTC7rqrNo9xBIlqKRxe20kwgFa2tqxhtPUaikGO1tQmsNUy0Wk/R10D6nIbyjB76QQ/i787IDY7cSoYZRPo3bsLr5vh9Tv8vdPgdgquUxOLOm/S8F303owAp8CsQ9OYPfXR4PALrGPBvffeqq7xP7WIX40CewS+2hw/62nukvsbx3iR5PAtsQKM0xBK+JxuwQti82D05vQPWoZBZmERZzH4bMtsQJY8XzlsbtiuQr5LRsLwvpA4hHLKciUEfR7HoPPjogVABNBy1VIr0OhBrlyHcjN3z6te7JYI1Wsiuk9KM74JxArKM5thhHk3Pq+6b6Te6qEaOZgJ363+hFkeiKJFQD3et3IlTr0rqhIsgBeslAnQlAET208b7ptzXiyUAd+87dkQSCxJpIhuAnxh2NpVhJFksXqnXiFODbDbMZ3f2KFcOt4fXEimbIYbjPdzbD1u+DvY/IUERXY/YEYK/GSKM+mn60ypIrckWerXE8osVUypXUUshHG5uYZk86gXY6SLlVYy1bIl6uYrQ7sKxkRsFi2THqTNLEWVlhLl4jnyqxl1smUIbwSRG91EytWiWVK5GpgMlvQ2WPigr3gX/iz3sx6jXi2hFibN8i4P7FCIVjH508QzdVIF6sIfsUCJBSeQnVDrrLYvQg1O55dJ1GssizoMfujhMIpVlNVUnnBjxBHjVh2HaGpzVZqWE0WlqN5ciXBvXyncD6xxKYKRXSqBUIlyGXWkGudON1OWm4NoHEG6GtrpXfKwKJjkeZbA2h9aXLlGqlsHqVsgn6pAd/qGj3dfYwZfFjnZzjf1MViIMxYXw+yOTvmxWWMjgha7TytXUPoLGuiNbbbgxIGBuaw+3N1ou/bFFdJ5/OY7AEcy25GRmT0jM0ya3JgDSbwuIMYbUGUs2N09U2xZPfSIxllwRNmRtLB9YFJDM5VnH4PQ6MSuocmUAaSrNgttLf3Y1wK0Nt6he45G6alRW529qGwh0gLhe/JbIqF0l4QiV0tQyoeYFJnY9lpo6+vm44pA3qzE2c4j8u+wK2uTjoVdvHftZwOC7IFv7gfuxJwMTk2wKV+BQ63D4PVSygRZWRijFsto8yZ3Wg18yiMHrEv185I6J+Q48uDaVKHzhYX/x78/jW2Jv6XrVxtRbtgRD7vxup0MKU0oDaY0djsqBRq2m920z+kQKk2MD2jxR6KYbdYcQajGCxLjAxOYQnlcLutDBpcLHsW6Wi/zfC4GZN5CX8oRHv3bboGRpBoF0mW6l3KE9jH3m2Kh6aUDExIsfr8zEhGGJBNMqpaxGgSzt0oGe2vuw0rnQjaR6tBHwOSSZRGN8qJSQZGZfSM6/D4gkinZpEqxukenWJsVM6s3o7B7GJiao7RKSWzs2Y0Jg1SlRJJ1xR6R2oHxGaZ1VjFIymG5RjLrmX0jjV0iknGFvxEgj6G+keZMTkJxOJMjgwwMG1m2WFjTKlDaXCgVmqZnFAyMjnJsMHK+MQQfcNTTKsWMSxomVywMDExx9C0GkcwQapUb/KfQGKFfqqKPxhAvWDGFsqIyl3BUIh56zKBeIm1RByHdwV3IIR+0U0wXhQHGcJGuls4ymEJEIqnMNjsLIfSpPLrLHmDuENxzFYnzlCC1WSOaLZKaDWMSr/EShqS6RTaeSX9o5M4QsVtmuIKyfw6oXiO1USO1VSJaCpPJL3Oaiwjypkt13Avu9BYPfgjMYw2O/5EiWQmi8UdwL+WJ57NYzaaGJbI0LgTRMJh5m1uVpJFIrEYFn+MSDyBRm/GGUqK2DxxTbEgsHAJgwdhMJOrQloYOGy8Zysbo8QC4khZmC5ky3U3wY9wCacHRLciCP6F8ML8WBi8CP4zohskNkfVRUQzuJlyDc/yMv2DY0zZXCSK9b4slq2Q+/g8dkNOQVZhxC3GJcS3EacQVhjFivKUN2WsifIIgyphoCQcyRVkWo2uMiQdY0JhEkfXgtvWfAqFNVGoyygMzMR8ZiukC0/IPLZaq4nnb4QzOI/qEtQ+hXm/cAxoU4ZsqUppy7lZYYEi/2nKuF5D+ENrQXNE+HfmzXQfdBdkKmxogzzqNYptFygetYC76f9mCOwS+5vh9tiH2iX2safoNxNwl9jfDLfHPtQdYvepPey5pBMXBR57qXcF3BYB4U+vAoEAew7P+/lH1+dxBVZYDYcIhXavJxkDn89XJzaezhBKpIjFYsRjMfEuPO9eTy4GmUyG/w+1NWhmfy9sVgAAAABJRU5ErkJggg==;" vertex="1" parent="1">
          <mxGeometry x="-451" y="550.5" width="118" height="85" as="geometry" />
        </mxCell>
        <mxCell id="6ZfNqcn49MTVpPQ85q8o-8" value="" style="shape=image;verticalLabelPosition=bottom;labelBackgroundColor=#ffffff;verticalAlign=top;aspect=fixed;imageAspect=0;image=data:image/png,iVBORw0KGgoAAAANSUhEUgAAAHYAAABVCAYAAACcnxCJAAAbo0lEQVR4Ae2dd2yj6Z3fJ0CAAAkC5C8Dl4IYKcgd4iBGLsghcQ7xxTnDcGwgOZ9zsC+Xtbd4ffa5bLW9a8/O7M7u7JSdXqXp0qiMpFGnGqlKSqwSOyWSYqdIkWLvYvkE70tpRrPeGWl8a08TgZfv+z58yu/5fp/+/J4f98j9MY7qvHj8AYKBAIHd64nGwOfzsba2xp63lB72nFMTy+YpFYsUd68nGoNUKoVA7p73NF7+7pV5cpUau58nH4FSqSS2OHeIzZarT36udnMgtjZCd7pL7FNWGISu9AHE1iiUSozZgrw84WHGn2TIEuDlSQ/TazmKu832Y1sctiG2zNyim1f6F9hzZJbvjNj5couaPafUvKGwow/nxIzVahkGz5/gZ28eQOnLkl9zcmLfPk5faSdbhqxnnpMXL5MEguYZ3nl3Hx2D86TSXo7vf4W91/oobOkBLOoR3jnwPjfGpih/EnS1PNValVjQgD0YvuMjHLRjWIndef/4Q61cpvJJhbFWZGlJTbL08RA7e3dYlDhj9w+cL69TYZ3FRdVDp5GOLNLcep1oYWeybPralthZm5tfDJvYc1rNS1InX+vQsadxnrdnHSxsEFut5omHo5x+8wVePith5ur7vP3uKd76mx8wYHTSf+Db/JN/9+ckqHL8Jy9x7FQjr736Nntf+zH7j57ntRef4/qke1MmOke6kJi9dA9fR6K1Y5hfIFZah1wel81Gz9U3ONXWSzQWRAAt6V9CoTATjceIZ7Jk0yG0cyrCqQrr2Sja+QXSuTLW0SaOnmkSC5Fr0cRyOFVPs1YmthYkV8oSdprRGJ1U7kgD3sUFfKEw0VROdC9Gc6yFfegW9KQyVRSyJsZMQfL5IuVinkKhxFrYxcLCIoVchg9OHeLGhJlIPCTG6jLNIjc6xed8wse8ap6V3N0U02E7M3IlmXKVlhvH+HnDMKUtBX+LaPd93JZYocZuEvs9qZOvbxD7yznHnRorxL4w0cnLL3yXIY0T+3QTf/yFL/K1v/gey8kCedsgf/qVF4lUK/Qfe4v/9oUv8+P3D/Cr535Ai8pDx6++z/4L8jtCDgy3c7q9m/beNnSGBd544S85dG6EhY5bnDzSyrXTL/NOQxdGVTOymSFunrhIS+s4qjkJ05o5Gk4d5OyZ85xtmiS6auLVF7/FmzdkqPsusu/9U4zODvP8957nuTf340rVoJpgQnoJ+WQrh/fv5fD+w2iWVkV57JO9/OQH3+ZH393LmUsdLIcC9PWMs2ib5afP/R8+bJYyr5fS0TWASmMhZFUj11hw6/r4zl98m+ahSfZ+8CtOtUiQTzei1Si4duEUJy+fRa6b4cpHr3PoveNcvjmGMB/JRey0Nh6nseE03bJRTp8+yJvnpfcUtDtAPeBhW2JVS272jpjYc1LFd0YcfLldy56GefarHBg3m+L1Apl8hr4TP+fHP7/Au3uf551WKe/+9H/z/pAdPFK+8MXnCKZDvPx/v8rtaQWvvfh1/vxr3+JMq4QjP3qeC5KlO2L29FzmlaMN6J0rTM92ceHyZT768BzDl0axWKqs2ZvReYOsGJo4f+EATdJ6WKuym8FJGc3dfWJcvafa6Lp+lc4bDbx+vBmHUY/ZuEh/y0n2nW2nb2yCaBGoxBmRnGFCeo0p6zIRYxPDSq0Yh+T9Axw83cygRIFFp+DC6TNMW0yo20a4dfEMf32+kXH5MLc6O5mYU+JSzdDXN8LkFQmXLh3hndYuejVK9Cth5mSHuNXWjyNYpRyZ58qli/SNXCGXXaWv8yOE1nZ1cZa+gXmgxO3WdrrkU/Q579+93AHtYw/bEtujdfCuysf3p1zctgZp0rn5/oyXX83YGQtkxeiqSR9nTh3kpy++woDSw+LCMC/9zau8sXc/zmiesk/JD3/8HrFKiYmus/zotdc5cq6JJessr7zwl7x98sY9fc+Ubha90CED8u4z7P/gGB19I8xLdCw7CmR8UxxsvMX8fD9Ws5rmkx9x8GgH8/pZ9JZ5Gs4e4O29H9CpszDX2cwHhw9ytVdBasXOiYYGZlQ6jh0+TFPXUL0Pr6TQKLvRL4xgcvsIL0nQLNULS9Sp5Nz+D7jYOwnVHE3nL+POlZhpvsCRQ+9wdngC7YIS87KVppP7eHvvMeZUZrobTnL42Hs0a83My/ppuNiBemEAr9vE2V/+gl+ePsuSx4pWM0AqGUYu7xSJreQidJ8+yP539iKzLGG06ZA6o3UwHuJ7G2JruKJp+jxJpME0yWKZWDKL1J+k153EX7zbLxTzOdbvvkK5JDYtnyTLemnLQKO6fedRLAjV6t7P+nqZuyErZHMbo4u0k6buW4Qyd0cbheLd8Ovl+nCsul4gly/cV8atqVVLBbK/JkONYnFLPgBhcFYsb4JQpljcHPrVKAtjhI2PEF9+/UELQTVy+bsyb4Z7mPs2xD5MVI+J33KO4OrqFtIfE7l+x2I8fcT+jgF8XJP77RFbyzI3PsXWxqpQzLG2frcB3RaUapGV/NYYIOrSMGVybBv0WfewLbHldAarUkW/bFwkKR/zI51QEo4ESBdiJINRYms50ukwm1Mxl2GOtpYbtNzsIRSyI5VKWckUGWw/yfOHWgkEXIxKpfhC9QUOgYRU0E5X9xAra2uoFDJ0xiBuwxDf/NmH4lbizKQUgy1KyDZK56yZQsJJZ1cXhqAwFy2jGOlhdHqBYPbegvCsErwtsaGZEd597SNONVxibHKWQ8ff5rm/eo6fHfsAiXyOoQsnuCpRMDM4RKIChZCN86evcqu9mTOX+4m4NLz07W9y5FoPI0M3eeXCABGvntf/3zf54fF2hCFFLR/k1oWrdEqmiKQS3HjvVb710tsMTQ3x1wfPE1oNcuqN7/HtVz9Ca5QzPK2gv7uRzp5eGm9I6Om+yYXmJs6fP8qpaduzyuU9+d6WWI90mvFuO3GrncGPmnjr4Af0jgyjtS8zeP0crX1TtFw4wa0pqxhxdHGa5n4d+egyN842cr6vnzPnjnPm+BE0SxauL1hQX+mg9dxpnjt+ijSwHlZz9tI1hHHg8vgEbR9e4o3j++mYU3JJqcM8MEb70Yv85NQhuqSD9Eok3O7oJl9aZ/hqJ2f3nsbiTaKZu83pKcs9GXxWX7Ylds1qx6IJEHO5sat9KCcHOXbmLGZ/BI9SgWkphko+itoXFzGsFvP0XzrLviPHGJpUMzXUydGDRxmZmiQe8XLtTAuDXS2cOfY+jWMKkUxq68z0tvDekfMo5xRcPv4hJ9o6WIyu0nOpmcHuXi4eP8TZ3iH0i0Zs/iBG5S3eefc9bs7ZSGZctJ44zb5393Fde3dp8lklVcj3tsQ+CeAU435u3Wqn8VgjywGhDdj9PBXEFlJhpqenWfLV13d3aX1Kauwukb+OwFNRY389W7suu8Q+pWVgl9hdYusI1Go1yoKKSblMtVqhVnuIJcKnFMTHMVsPVWMFXVVBETmfzZJIJonE4uSyWXK5HJXK5nbV45jNZ0+mHRFbq4HT5WXJ7iCRiDOhXuBM6wD7L7Rwpn2QlVCYZCIu1uJnD8LHM8c7IjYUjjAqnWZGrmJOq+dPX3iTz/z+f+Iff/b3+df/9asMTSlIJ6IkEw+vwvF4wvLkS7UDYmtYbVYmpuRMy5U035bwuf/8Jf79P/sML/zxv+W//Kt/yi/2HWDRE2TB5iSZ2VBJrZRZmBnmWssg8XQWh8d9Z/fnYWArpyPcbm1maNLIJ2mO3htXHpfHi8dlJJq7q7Fwr59n421bYoV+1WIxMKuYRT6rZFAyxOFXvsvJF75K//4X+eFXvsDxfW8zOjtPz5QWqysgIhfzLHDhSj/+aFgkey2RoFQpEQuvkEiliYSCJDJ18KMhL4l8GUFPJR1dxbuyqStcY2bwNt1SPatrUQq5HF6Pl6QYrkY6HsYXrOsDlVIxXAYl/RPTyCeamdLq8YfrilMlQY2mUqa0RT3laad3W2KzuTzDMhlXb3Vys7efoaFBbJLrWG4eRXr0DZpff5G+Uwdp6Bzk7O0x5ox2EbNyfo3Rjhv0jk1SLSaZ1WhQyG5x6fx5bjQ00HrjBleH5lg0jXH4wJscv3ILi1JF4/GLnLt6BaO/TkrYa6PlSgMasw/WYzQe2ceRy4O4F7VcbGzkytVLmJ1LSDtucrPxCs09MpSyZhovXKOl8xYapRqdYYk1rx250vC083knf9sSK9TYQamME1dv8NrRE7x14jTG0XYCPSe4+eNv8d43vsTJ/W/yXtsgb1/vYdpUJ7ZaWRcVxbTSLnplchSqOcaHmzGtBlDelBFZCdIpn6b54jEaWnuYkM+gG51BNecmqNczPVHXkqhQo1aM0t7VxohUi6KriwOXrzE+JWPaEiLjVXOz6zbTs4JWYZrB/lGkwzewxcskPWrarrWhNNmIOs2MyDR3Mv60P2xLrACA3mTkUksbPz96nFePHOfQoQMor7yF5P3v8/o3/oTvf+95Xjl9lZ+eb8IeqDej67kQ/Z03uNDcgd7pYEGvR6sawhkLY5JoiYWDDGkNmIxzXL9+hbEZKz69BasxyIrZgl7rF7Ffcai4dvkSreOzqGQjNDeeobFvCK1eg94dJe4xoDKbmei+TuOZS3QOz2JU93C6oYGrXX0Egl56b17g1MmLTKjqhe5pJ1XI346IDUcivH/2HK8fPsKL73zIH3z+j2j8wf/k8PP/g2996Y/40n/4PP/wM/+Cg2cbqG5RJ82lYsTTdTVQYWFDvASNCWH+BFQ3NDBzyRjxVLauCiq4bfiteyoTX4uwqcmZSsYobKhuCtHciWu9QDye2tBOrJFNJUgV6nPr9XyWRLquAy3G+Qx87YhYAYfhGTlf+eEr/IP/+HX2/L3f48/+8HNce/Fr7P9ff8J//5f/nH/zB59n0eF6BiB7MrK4Y2KF7NyWTvO5L/4Ze/7+77Fnz9/hDz/7Wd76xtdoOXaIYDD4ZOT4GZHyoYgVMBGWEKdmFNxs66KzZ0C0c/CMYPVEZfOhiX2icvcMC7tL7FNK/i6xu8Q+pQg8pdnarbG7xD6lCDyl2dpRjS2l15ifNxFNfvJh3HIpy2oq80CIMqsBFtQLrMTyd/xlMgkSHztNt/ljLpEivbH7s+n2oHutVsSoHGPaUDfa8SC/z8Jv2xNbyTE3rUFvcRCK1smrVQV9p014ahTzWdEGo+BSrQjL9pCKBVC7VjaWDWssSZWo53QoZsykioJBjwqZTIqMeKyyRnHLllqtWiGXypBai2A2L7N+z0bsxjrkZvIb92IxwcLcLF1dV9G5dhXHtye2WsKsEWw7LIqEBZeNjMvGkMkNxJKryCdmWDCZWFmLsmybZ3RsGJ1liUXjLGdbJCTyQgmosTxtJZZIYlPZsBjlyGdVOJcdRFMpbKYJBoZHsYViBJ0GJuU6lv1BHAYtLTfbMej0BFazJAPLOLfR9p8d70DvT3yM9mfvdXtiRUyqhJc06Mx2rCYtvmyVuNOFbkaFZslHPu7D5LBj0KtZiaVYss3j9PtR+tc2EBVq7ASdHf2YV+J4bDJc0RSRgIV5vYVFZ30nxzhhQKNV4Y0XWXE5WbQ7sdlDVEspbDYLerOVcOqTNSOq61nM+jE0ns1N+mePzK053p7YSgGPw4RKNYfC7sa+qGV8RolcrcfjtmP1hynE/ZgdduxOC6l8EbvDgi8UYGRcRTIv7LAINdZCNFE3thFYmiScyrPqs2L3+tBpxpHPzqEzu3A6TazmKyKxLm8AtXySSLqI36JEo7t//7nmVnPs5Cl6h6S4V3cPZm1PLJCNh3G4vJQq4F5SozY6CCeEbbAqhdI6tco6xVKJUqlIpVoT74LOcTwYJrdhUqyUK1Le6CvXSznKlSrl9YJomKqQiuBY9lCsQqVcpFwVrKyURP/p2ArxVBrTnBqXf8OS2taiufFcLqSxmAxodHpWU3ctxnyC12fCaUfEbkUiEvZxn9Zwq7dP9TkT8qCzLH+yXcVPNaWnJ7KHJvbpyfrTnZNdYp9SfneJfZaJLZfyrEVj3NdEU61KMV+s6yw9YqDCfi+x9KYd5RrVcom1SIjQqnBFKRYKhAJewrF7B2LCAC6aEgaEZUJBP4FgmEx2c6WtxmoojKD6LHySkSDJQv1F0NdaS95dTXvE2b+T/A5qbI0l9TgDg8NoVE7RfM+d0JsPtRKx4Np9Ta/m4nGK9y0Vm5H8Le+VPGrJAFcbrzA6rRFlSfsczM0omBrrZd+r79AhGUcq6+fQ2QaarjSgXPCJieYSQdraztHY0ILL5aGv4yYnDrxP27BR/N2plnPhxEl65Vq8ATuXLx/jZtsYoYCHnqsXOd/chi/+eJG7I2KdRrMIlF2nxRsKY1zQE4nGsWoUzGkMojHI5EqK0noOnU6DYyVOpZhBMylnaXmFOUkb/bMmMY5apYzLoGVqeo5MoULM6URvciBOd/8W3K7YdXT1103RCvNmYeEx7jAinai7KW5Oi7ErlDJUq8KSZgpJa5to9dwxMY7GFie5PMOYrq6iapqR4xbMeleS3B4cIVOroRoYpO1iN+E8ODUSpOPjTA+MManoZyH4eM2dd0SsdW6Uvv4RdPYVPIsLaHRW3HYb1uUwIbsZvdHK8rSdWd0ETS1t9IzLmNWZcLoj5HIF7Bo5Vm9EBDsWXEZn9BDxOzGazWgH5Sz5Yjs4l/Ng1u0LMiSGlXs8pZbNyKYEYqtMXJciLFErVOPMBurz3NnRdoQG2SGZxLqUpxjVMaKzU8mtIJPr6i1QJYFkfEycaulvD3Hj0G2EVVKvRcbQ5Czjtzrp6BvAKVqIuyf5R/qyI2JtKjlWzyqVKvidS3jDGVY9i+hsXvw2A0bzEp5ZJ2q1QgTE5Q9gnNdgWAqQzq0TtM5jEjYEhFoUdDE37yDgWsRgMmGW2clsWMkrZUJ4A26CKy5WQh5W1+qm1neCUCa4xI2rTSxYFlle9uEwW1icVyMdV4nEjl6UiMROT/bSPL7AwlQ/w30KFn0u1LNyesdkTPXeRu9axauZQrUUhnIKu0NBb98osqkphsbGmJCOIZlWMN3fS+/tLvrGdcwMDzKmfLzsS+2I2GQkSmljUyWdiJPIrlMr59EpFajnLZSLOUxyB7lcEvXsDBann3I+jWJajtOXoijY6Lc5xFIv7NwsGrVMK9RkC2WSgRjFcj3y9WyEYNjPasRHJBpgLf5wBpijXgMtza1oLV5WvB6CwRWCQWGnp4bP4hVr4KrbQNONJgZGFOIKl8vnIpzNoxnvQSLTC7rqrNo9xBIlqKRxe20kwgFa2tqxhtPUaikGO1tQmsNUy0Wk/R10D6nIbyjB76QQ/i787IDY7cSoYZRPo3bsLr5vh9Tv8vdPgdgquUxOLOm/S8F303owAp8CsQ9OYPfXR4PALrGPBvffeqq7xP7WIX40CewS+2hw/62nukvsbx3iR5PAtsQKM0xBK+JxuwQti82D05vQPWoZBZmERZzH4bMtsQJY8XzlsbtiuQr5LRsLwvpA4hHLKciUEfR7HoPPjogVABNBy1VIr0OhBrlyHcjN3z6te7JYI1Wsiuk9KM74JxArKM5thhHk3Pq+6b6Te6qEaOZgJ363+hFkeiKJFQD3et3IlTr0rqhIsgBeslAnQlAET208b7ptzXiyUAd+87dkQSCxJpIhuAnxh2NpVhJFksXqnXiFODbDbMZ3f2KFcOt4fXEimbIYbjPdzbD1u+DvY/IUERXY/YEYK/GSKM+mn60ypIrckWerXE8osVUypXUUshHG5uYZk86gXY6SLlVYy1bIl6uYrQ7sKxkRsFi2THqTNLEWVlhLl4jnyqxl1smUIbwSRG91EytWiWVK5GpgMlvQ2WPigr3gX/iz3sx6jXi2hFibN8i4P7FCIVjH508QzdVIF6sIfsUCJBSeQnVDrrLYvQg1O55dJ1GssizoMfujhMIpVlNVUnnBjxBHjVh2HaGpzVZqWE0WlqN5ciXBvXyncD6xxKYKRXSqBUIlyGXWkGudON1OWm4NoHEG6GtrpXfKwKJjkeZbA2h9aXLlGqlsHqVsgn6pAd/qGj3dfYwZfFjnZzjf1MViIMxYXw+yOTvmxWWMjgha7TytXUPoLGuiNbbbgxIGBuaw+3N1ou/bFFdJ5/OY7AEcy25GRmT0jM0ya3JgDSbwuIMYbUGUs2N09U2xZPfSIxllwRNmRtLB9YFJDM5VnH4PQ6MSuocmUAaSrNgttLf3Y1wK0Nt6he45G6alRW529qGwh0gLhe/JbIqF0l4QiV0tQyoeYFJnY9lpo6+vm44pA3qzE2c4j8u+wK2uTjoVdvHftZwOC7IFv7gfuxJwMTk2wKV+BQ63D4PVSygRZWRijFsto8yZ3Wg18yiMHrEv185I6J+Q48uDaVKHzhYX/x78/jW2Jv6XrVxtRbtgRD7vxup0MKU0oDaY0djsqBRq2m920z+kQKk2MD2jxR6KYbdYcQajGCxLjAxOYQnlcLutDBpcLHsW6Wi/zfC4GZN5CX8oRHv3bboGRpBoF0mW6l3KE9jH3m2Kh6aUDExIsfr8zEhGGJBNMqpaxGgSzt0oGe2vuw0rnQjaR6tBHwOSSZRGN8qJSQZGZfSM6/D4gkinZpEqxukenWJsVM6s3o7B7GJiao7RKSWzs2Y0Jg1SlRJJ1xR6R2oHxGaZ1VjFIymG5RjLrmX0jjV0iknGFvxEgj6G+keZMTkJxOJMjgwwMG1m2WFjTKlDaXCgVmqZnFAyMjnJsMHK+MQQfcNTTKsWMSxomVywMDExx9C0GkcwQapUb/KfQGKFfqqKPxhAvWDGFsqIyl3BUIh56zKBeIm1RByHdwV3IIR+0U0wXhQHGcJGuls4ymEJEIqnMNjsLIfSpPLrLHmDuENxzFYnzlCC1WSOaLZKaDWMSr/EShqS6RTaeSX9o5M4QsVtmuIKyfw6oXiO1USO1VSJaCpPJL3Oaiwjypkt13Avu9BYPfgjMYw2O/5EiWQmi8UdwL+WJ57NYzaaGJbI0LgTRMJh5m1uVpJFIrEYFn+MSDyBRm/GGUqK2DxxTbEgsHAJgwdhMJOrQloYOGy8Zysbo8QC4khZmC5ky3U3wY9wCacHRLciCP6F8ML8WBi8CP4zohskNkfVRUQzuJlyDc/yMv2DY0zZXCSK9b4slq2Q+/g8dkNOQVZhxC3GJcS3EacQVhjFivKUN2WsifIIgyphoCQcyRVkWo2uMiQdY0JhEkfXgtvWfAqFNVGoyygMzMR8ZiukC0/IPLZaq4nnb4QzOI/qEtQ+hXm/cAxoU4ZsqUppy7lZYYEi/2nKuF5D+ENrQXNE+HfmzXQfdBdkKmxogzzqNYptFygetYC76f9mCOwS+5vh9tiH2iX2safoNxNwl9jfDLfHPtQdYvepPey5pBMXBR57qXcF3BYB4U+vAoEAew7P+/lH1+dxBVZYDYcIhXavJxkDn89XJzaezhBKpIjFYsRjMfEuPO9eTy4GmUyG/w+1NWhmfy9sVgAAAABJRU5ErkJggg==;" vertex="1" parent="1">
          <mxGeometry x="-451" y="680.5" width="118" height="85" as="geometry" />
        </mxCell>
        <mxCell id="6ZfNqcn49MTVpPQ85q8o-11" value="" style="aspect=fixed;html=1;points=[];align=center;image;fontSize=12;image=img/lib/azure2/compute/Function_Apps.svg;" vertex="1" parent="1">
          <mxGeometry x="22" y="877" width="27.21" height="24" as="geometry" />
        </mxCell>
        <mxCell id="6ZfNqcn49MTVpPQ85q8o-18" value="" style="shape=image;verticalLabelPosition=bottom;labelBackgroundColor=#ffffff;verticalAlign=top;aspect=fixed;imageAspect=0;image=data:image/png,iVBORw0KGgoAAAANSUhEUgAAAHkAAABfCAYAAADMD2hiAAAgAElEQVR4Ae2dCXDc133fmU6mzSRxmsx0JpOknbbTNpcT24nbNBMnk6SdNo2nThwfikzHiSxZVmQ3smX50BFZB2lJpCgSFA8R90XcxH0s7vvaxe4CewJYYLHY+z6x9/Xp/P8LgKBEEqBMEpSF/86b/9v3fu/6fd97/9/7veuYJ7yFLxgiFAgQODI/MTzw+/2EQiGi0SjHfqlMwQvTBvwuB06HA8eReeB4IODidN6ZsdvtrK2tiUAfO3Z+jhcVDo6eB5sDWeCgJr9dFKfTKfZMx45dnOclhf3BLuGHPHeOcJo1bxKTP3Ugs+pJkgNcRyB/cGqOLZzGG80QTmT3NZFkVqwIQqs/GMi5PFvpLPl8HvJ5ouksqZ2+4IPDow98Tu3hNJ6tDMF4dl8TShwY5DwOf4hm+Rq/XLnIP81YKJ1a5Vcrl3haacPoT/BurBOp9HW3XIqs0F9sP+lMRrRlE2Ecni3R7to0YbY5CPgjpLdpc6kYZrMZu92GxeMnlYhg3jThDUbJJCNsbm4STQgp50nvTWAnoe13Lpsiu51Bl9mE2RUQffKZFHbLJpsWd4EynyOTFup84YkGvZhMJoLx9I7TTd+5XIZMbocDebLZLKlkjHDiergbaW4azYEdA/Ec7rsPco5pnZE3xzUcuzDPH3Su8mjbIscuLvC3E8t06r3XAQVU3Wf4zDdfJpPPoZut5m/+9yOshPKkAuu8/OgXeK1DQT5s5elvP8FXvvBNOicXabtQxKvffZw//vTTeJKF8sa9Rs69/kP+8fEneadnlOGiK7x08gxDUgNTF6/w0suvcrZ8BO3KPBWyjVsyaW2uGKXFgX6ojdOvvMHrZ99hZNGKQ93Nt557hdOvvkHbgJwtxyYDZbJCWTIRrhS9yKmzF5FagrtxJ6Ne9MHtDG67WlR9jK2HCv/SAToHezHZzWic18NZ1ZLrNLux3bklm/DRYwgSiGUJxrJs5YQqDqFEHqHpJLIQyW67xbPcQUvOIV3ZpGhSx7HLMv60Z41vdqk49o6cr0ytIln1Xwc55eC5z/5X/uffvUAmn6K7+Tn+4Jf+Cl0kj2d1lOOf+u88WyfHOPQmx793gcXuNzn+TJFY2oELz/DtCwM3ljzupr9jSHSbON2ITGsjnkwxebYfgdWjF6/RM9DLhRnDjeH2/FueOMvg5DANF+tFiZSsnwsNHchm2hleE8DJ0F1dg1wqp/v8dKEsCS/VTVUYXUFSqSTTXU3U9I1zrfoU//c7F7BYzdTVXGVUbmJzqYtzZSUUl1zDFfHQ3NWC2W7G6Q8jHemkvG0EvayDc6UllDZ0sJUptPqoy0hJRQULRiebuiWaWxoYmJyjpbSM2Y0AwQ0ZtTU1LDmDuBRLdHdIuHLhZZ640EIsA5F0jhXFFMXV/TjDEa5VVjOm9bC2NEtxlQRHNEf44N/kAsjnJrQcuyjlj7vXeLJziWOXFjg+uQfkXIzSk0/yvWe/z+Nf+wHeVA7COh76Tw+x5C/0waXf/Sov1MlRtj7LN19twiqr4ovffJFsws0jn/kcUtf1Lk7AKeE10dncIzJ+5LUzPPvi64wumBg7c5ETP3qd881DaDVTXNwGOeHb5J3iEuYM210wYJRdolPSTU+Dchf6rv4hZkau0a9ziW5qSTdT07P0XZotgJwOUXTq+7xR9A5anZo3vvtDBpZWWZi6xvP1E4RDJs688HX+6plzzI21UFTbw8xAFw01Q7SP9iGf7qBtap63//lZOmeWMcy1cLq8nc6rpxjWO8U0F7uu8OKpKjY8YerPnaa5q5sTr75KX1cX1aUS7IZ5vvHoV3ilpIK+H12ibVDF7FgzzzTPEk1BLA+S89/jN3/371mxb/K53/ot/rlGyWjJC/zGR4+zHMyxlcwdVPDKMb+8SZV0lV+pWuTTknWe7tXwy9UqnpatM7iy3ZLTAcrefJGXnnmMj33iz1G542Td8/yvX/w/KLZBfvPRz/JUyQy+xWY+88i3KH7t2zxb3I9TVsuff/HbxHdhKFji7nVaattExo+93orFX3AffLmU9v45AokcluVRTo0tix6ZRBiVWo0jGBP/J7Z8jFZdRW/QUX7mDDK9CZ10hJLmEfTzLZRJZBgWpbxW3MHGipbWNye2W7KH8voyjK4A0WiIpYl2XnmhGLlygrPDiyw0XKSqpornT77NQF8NJQNK1pTjNJT00NDfzsJUGx2KdQxSCW+8dJ6hwasMGML4tJ00L2yKeQu7N2g6/xa1bYNca5bg97lp7mvF6/MguVrFG+XlVFSWUFT0Q3reGMAaAM/GFN9vk7OVyhNMZPFFopg9YbFbtrn94rfaH4mJboJgdkfd9Zh6g+elVl6QWelY8yBfs/OqzMZL8xu8o/UVGFPgP0TNdLQPi2OzXMRC5clq7EK1A6ba6uiSCt/PDE3lZ/jhuRr8WbAt9dDUN7sTw+47E/WjWdKJ8RvHNXhCKVHQMk7oCCcKZH6XkckNz26YvRbz0gBNzYXu3mfScvnUm5y+Uoc1mCJiUXDqjdOcOV2NwRMnF/aimdwolCWfoq/pCqffPMfEkpauK5do6ZhkK2in4UojyplpLl96mybJHJaNRWpKijlX1oQjFka7rMVmXkZvtiBpuERtxzBWk5YV1xZhuxadvfCtdugnuXjpAmqjDZ16mXA4hEqvFt8rWi3SwXYuni1jXDbO6sQqvkiWZGCTyYFJ/MmcKFmHkhDNINq3hC48mWOv2x2ADLFkGo0/jj6YIJTOkU6lMQQTaP0JXEK3fPTcNw54k+CO3PUh1H3L/1FCB+CAME72bmUICd3xPkZQmAiasYMpQ/J5crtjwdvlRKC7dcuOb/mIpa6PRYWYBPqdUebtYt7xy6Xid0Qvhstlyd4mXztx77xz+TzpVLyQ13yCQDBANB69abqCckigv/HJk4jEyewM0G/0vPm/A/LYGkphCxUUIoJS5LYmmsHgSR4M5KhtncFK+c0zt9c1HWCkdxjhy/nuJxNzUlFyFp09coNX1fAQrr1Dz0wSj+Pm39iwW03D4MgN4ff9k88wMNjNZnhfyl2CmtEx9Jsb6H1RtJMtXO3sQbOm5UbZv0AedCxRufDecbpJbiC4LTfsRnwbi9+ipndEd3OKXGqXJ4F4FnMwhTWUPpgJFnK97wRF2KSj4/wsiaCNhuJiekblkE8zI2mkZUIhqjpn+9u4UF5KTU3nNjPyONYnKS4uZnbTyWJ3Kd94+jKBbS2VSTdCdUkZ36lswuSw0dTYzJzGimWxm8cffRKpcZPpa00MTC+JQpwwxF9s70Ru9WNZ0dJxrQHJ7KooxC1MtDA4p8a5YSAaj7GoXya4FcOxaSYesdPZN4HHo2G8o42hsTFG+toZmFkll48x0F5MacsgUcC8J09rdjsWywrPPf4UnWNq7M51cvk0s4NNTMzryOXCdDWUc+XKZc5Or4ngZONeJDV1TCwYsNldBAMepBPDVNW04k6CZ3OO0opyTIE4dtUc11rG8W/rhj3GBa51y1HJxmlsHsCXymFTTFFf14NyopXHH/1HZLZtpcvNq8JtXYVpY2GNwC1noSKbK/RfHKGns5XhyTl6K0qQGRw0Xj7BF770FYbGBimp7GZipJsLxR1i95AJOamufYfZ+TlK32lhXNLGm+fbiabypIMOSksvMjc7yQ9KyrF6Nzn13GP83++8hV4npejNt7EGAlSe+gF/++mnWBY4RJL26k780Rh1Z9+gsaOHM+WNjLSf5cl/fIRHv/oEV+sv0zGj4OKJFxhckDLQoUC/MIrcFEXXf4KiknpKn3uF1rYeflhZx1BfG43Dg4xK2qmr7qey5oqYp+fKqpiZuEa3TEnpmQtMzc3SJSlipLKCJ578Ko899DzNtVepGxymt/kK5yYKQzj7Ygffef4N9EY7bY1dKOeGOHnyHTpaa6joGqexoYoZxSIbummeeOzr/P3xf+D8mFBRwbuhoGNAhXKkkuN/+zAXhxRUFT1PVfs0tpV53jpVhCWyt8u7Labv8dwX5LBRR9fpXprbW9HZfSx21VPecJWXypopf/kxqmqraJZocaxKeftSk6hiS/utVNVexevz0XC+GZlsltY+jZh4wrVO4+UmfB4LL1SW0F52kfqrVXzvpbdYNZnoaupEPt/MG7VXOffdF5k1FjRTvWUdeENhWus7CaVSSK710FDyI169Us3w2CxOywYXT5xlZHaOolOnUFmdtHb1EM6DfuR15B4X82/14nL6Kerroq2+nmGdEbN6mpI36mmuaBXz9FxZOZNjzUjUBvra+rFaDXT3vUXn2QucK25idEbOSHkV8zobC6M1vDZcKFcy7EbScpHLNQ3U1/eyIJ2kbWCFpH+Z8kv1lFyqwh2KYFUP8+Rz5xgaHmFzW3/v2ZBTUdpAzbk3qSw7x9nGWUxrUt4+8wrjSh0d9S2EMzfKM+9B8jYO+4Kc8DnRTJhwrcp55ZWTVDcMEPKYKDn1NlWl5ZgcTjpKL/DKpWIGJ1XbY80MCxO1nDh5kmsKA7GgDbnaUshGPoO8p5IzJ4ooG55hRTZF0bm3qOkYJxqL0tFUSdf4IKXnz1NR04Z9W1+s7e+kd3EFlVxFJB5HrdDidBmpLTvFhXd6iKXSjE9N4N3aondkFOO6gjlpoaU4V4cwBfwYR9UE/CFGNTqc3nVKzr/Mj965iiOdYKm3SsxT6eAMJqMKvd2NRqnB53eh1kwS9G1Q/eZpLrUMEwisUHLidS6VVDOyXpAhInYtRUVFSORqVIt6LOZ1FnV2sexLeivK2XpOnjrNqtXDYFMNRecvseYuKG62fBaUch0dlVe4WF7JnHqTyd5azpQ14QqHaWsoZWzt5rLKbbDd9doX5F3KQ7akYjbG5mYOnAthpit5a2H/wPH8JBB+YED+SWD2YZXhroKcz2XJiKLXYRXnKN2bcWBfkKN2IyM1ipuFvdEtE2K8t52u5hZxzvNGz6N/h8mBfUEWxsntRbOkIk5aKyoYmFoC0swPXaNzRi3mfWGkhyvVlTQ0SVCNX6NnR8g6zJIdpb3LgX1BLoyTR+nrbKV3cJzOkmKU6y6aLr/KF44/wujECFdKWhmQtHGhrAeXQ09d9/X5292UjiyHxoF9QQ5vCOPkHhrb2jD6o2j7GilrqONEVas4Tq6sqaR1aJWAScnl4nZstkVq+lWHVqCjhN/LgX1BTnjtLI0YsevmeenlE1TW9uFzrnH59fNUXilm3Wqj9cp5Xr5wGcn4EnNtlUzsWZ3x3iSPXO43B/YF+c4yFGNysJ/YzbT5dxbREfVd5MBdBvku5uwoqrvGgSOQ7xorH9yIjkB+cLG5azk7AvmusfLBjei2IAvLcywWi7hlRNiaIhiLxYzb48Qf8opGsAtuO/5H7wKf7pQPGxsbhMN3sITlDurUbUEWdqfLZDKE5SMul5NQJIDL5WJiSEpjRS9NFX1MDctwu92in9PlFGkF+iNzZzwwGo3odLdYAnQHgN6MdF+QhV3qO8/S/Br/7/Nv8if/9nE++jMP8zs/8zB/8u++zrceegut3LhDdvR+HxxIJpOsrhbmv99H8NsG2RfknYQH2ub4b//mH/j1f/E5PvZzX+L3/vWXRfO7P/cw/+WnPscf/vIjjHYv3DaxI89bc0DoNXd4fWuq9+ezL8gbG0bMa04+9Wtf46M/8xCf+IUv87s/+zAf/8hxPvELx/mdn32YT3zkOB/9Vw/xp//+61iMhT1G7y87H95Qhw7y6e/X8ps//Xl+/xe/zKd+9TE+8/Gn+dSvPcYf/cpj/NXvPcOf/ccnxFb9Gz/9ed56/uouUiHnGkOSAVbNAfKZGDaT+6brl3cD7GvJsa6R0jc4gskdxOf3sr1RcN+QewkSES++rZstHt5LdX/thwZyPB5nSanmi3/4rNhFf/wjX+Jrnz7J2y838vSXzvLVv3iV15+p5K9//xl+b7uFP/RHz5FKFvSai30tdPUPUNXUhTcSw7O9bzeTyZDNJgn6C2ucdvaRZ7ctuWyWTHbPwrV8DnF9fypIU0MlkwoNLo+dnv4+toTDD7KZGypPOp0hn88hvMUnV3iHXQZmF4zYtMOM6ByFOLex3JuekP67l8zfa8gPDeREIo50VsGf/YcnxC754z9/nCc/+zrvvHaNHzzyNl//zI944fHLYjctfKOFLlxo1VvhAniq/lYa2tvoHh4m6POimTawpp6npKSE06+VoVApaaioZGJqnvbKBi6XXmbeEsSlmuXiufNIdU70g/3UNvTi2MpCJkxLQzmD0zL8fjdD4yNsrquoulhKdXkNi2tWJE0V1PfPsRW0UlFcTE1dJ/U1JbR0zzLfW8uzL55jYUbCO2XlFJdX4whF0Ex1cfHC28gV6wx319PUN4+4RPxeI7sn/kMDOZ6II5ct8pe//RQCwCLIf/M6J79VzqnvV/P08bO8/I0S/uI3/0nsrj/+81/iLz/6FLFoYfuAAHL3xDSjnSPodTpGKweQjPSiXl6krfYyIzODtHdLiXqM1F0ZxG1fobtxDv3yPOUXz1NW2894bQca0/bO/VSI1uYappVawiEfI5MSOqrbsEbBKu2kf17PeMc1pItr2NfUtF6t5BuPPc6ZkkqqyrpYWVEyIbXh1Q/TObeBdUlC79gkbz93gvKKSno6Rmm61oo7fv9XAB4ayLFYjJWVFZ764hlRsBIErb/+5DN87+/P85X/8SKf/eQzPPN3RXz2k98Tu+vf/pdfFLvxnb1Ti31NtPRKxIXxy6sGZhrGqas6yYm3S2iv72RJI2N4ykDcs8lo8yLRoI2RCgnVVy/Q1NRCQ5uEqfoxLN7t3cvpEE11pUgm5zFbNxkcG2B2tJf2rkHaq64wpLKgm+3l7JliBrvaqG/vor2phNa2XqbU64RcK9TWXEMlG2BmPYRvZZx+6RKdZRX0DoyyaTPTPzJIZLuX39PQ7rn10EAWEt40mxjukCEAKEjWovnIcT72cw/z8V8QJOwv8/u/+HeipC1I32N7hlFbXjNT4+OsWvwELHquNU+i0eiYnprFYAmSzyYJhGLk0kmC3i2ymSRh3xY+i4EZqRKXP0jYEyK5c2IMecyrKkbHp9h0+glFwmRTEaRjYzSVXkZucqJXzKIzOckmw0hlMoKxGNq5KWa1RrK5DGs6JXa3l0giQzoWJJLKErYbGRfidPkJhYO7h8ncc2T3JHCoIBsMBnG/0/Nfu8R/PvY3fOznC2NkAVjBCN9iYdws+L30jeLCMVB7Mi9aEy6ay2tY2l5M/m7vH+d/0KKkrqaSzh4pyUNogT9O3veGPVSQdwboyUSaE0+Vi8D++k99TlSKCIoRQRHyyV/6Cq9/t4pU6nC4LJ4vtpdjH0D7oYG8tbWFXq+/oXUqZpY583wt3/jcKb75+VOcfaGOxbmVXbYKDD8yd86DSCTC8nJh89wuM++S5bYar1QqhVwuR6PRoNVqRQX6hmkdk3kd4V2wGzGa1kQ/gebIvD8eLC4uijN5dwnXG6K5Lcg7lDdtmeQLv6OWe9d6rh1+3+33gUC+24kexXd/OXAE8v3l96GkdgTyobD9/iZ6BPL95fehpHYE8qGw/f4megCQ8wRtZgYGhlCtOG8xBZfH4na+56Dz2M5Un3BvQjzATFcvA0Nz2HfncrfD3WI+wGd2E02mSR10R0Y+xYpsmG7J6E2PZLq/rH1wUtsfZOFoo7EpNj1RUuk0mVQcn8fG+rpN3G4ejfiw2ZyEojHS6YToZ7S6SCdDNPf1Y7AXjiZK+F3opizEwy5kkwYiIRdOh5twtDAt6bKssrpZqERinHY3ka0YthUlfYMzeF1BMjnIJkNsJW4x4Z9LoZvu42pHNfH7PSH84GD6npzsDzIQ9WwyPdqHxREmYFbRPzaDbHYe3ZqV6dFhlrSrKPU6rOsqJGPTTE8NYrZZaenpZdlSOC0+FXIx2zmNQrOIWmtgcqKV1TUTi8taLKYVpuWz4oTCynohTvXaJmq1Hv2ilN6BaYyaRdadIdaUCqzbiw3eUxrBIRNgZLhRPC74pv4fQsf9QRZWWGRz5BJ+RmYXMBk1qO1bEHUjH1OjWNaQzaZZ0qmwGDXo3XHibj3LFhezBsMus1NBJ6P1A6gMZtKpAGrNFORzLOkX0StV2IWmF3Htxin04NpFHXaHBf26H3JRtBolSt066du00lzETp+kluhtaD5sOB8A5CwO4xKDQ0PMrdnwWTX09A8zNDGLIxTCaDKKJ7yvmYx4nCY2/XGi3g3M/girSilL+sI1RKlwALPWV+BvOoJxQ0U2k0YIFwhYGR3ppX9iToxz3bROOpdjY81EMOhldmKEUBoMM2Osb97+ZLpczMu8dPC+r+x4kCvO/iALuc/nxO+xYA1aVKjMvgMeECpcvnELqerdXMlmSN/i0FHhwJmw28rklFI81PvdQY/+354DBwN5TxypeFiccN/jdF+sQYcVe0A4BfPouVMO3DHId5rAEf3hc+AI5MPH4J7n4Ajke87iw0/gQCCnYgGMBgOe4LvvfLlegHgwvGfB3XX3+29LoJXLWDXvvUE2gU6xgHxxmXgmh8u8yoJSRSKbw+sPilq8bHILT+R6+aI+D/HtsZrXZkQ6P8ea7fohpplYBM8eGWHLHxDP8ox6rMgXFETSeUJ2EwrFkqiYyWx5kcsVuMM7ipwsQb//hgX+94pXBwLZvDTN8MQkcyNKQombS8tRn5/ELS5wzKdi2K17mX5vipNPRxlraqW1tYPRKRnJTJZ8NsFUezftnX0M9EnYcLlpbSilsaGB4RE185PtSJfNzPe2smAuKG6EG28kV8/TPbkuHkxXcbWUq9faaayqYknnFTPvXxnmhbeaSArj8WyMxqJzKDaMSGpr6JUMYnQEseqUdDXU0DesI+DeYKC3lYr2bvF6pNDqJC8VlRC7OTvvKoMOBLJVqyaSA7NmEaPNhnJuhjWTkzWFjMGBQZzeLQIbbqKxOFq1gtFZOZFEko2FOcYmlrCuKamprmV9W1MVdVmZGOhHuqAjGd1CPTGPzvTjb5QTToBvHb6+Tkrgv+DWPircApdkw2QktuWnq6OJsbFx+hc2yCUDtF65Qt/E4i5jhVP6F2bmGB6fJpuOUz86jrhdIGKlt7Nd1It7LTJ+ePosK44o4c0lyi6Wozet0VZdjcZR2EwuLAvWqhaYntOLJ987VpT0To+RyWeQDQj3SA1zP9bxHwhk89IE7R09TClNBDwbzMxoxJqpXHaSjgdQLirQja6wolmgtq2T7t5uJhUK5FqrOE4WDvxeVKgKm9PySVRKFYF4CufyIirtMlKJgviPcWj3Djp23ThtMtvOX/HtWp6gXW4Xroyjq/4S8jULbY1ldHT1Mzy/QDoVo/HyG3SKd1YVgqr7G2joHaGupBSjw0Pz2Dji9aEJD4P93WL37jbJqRkaZ3honMGJCYa7e1j1xslEbLR21DGtNpMJOxkb7md0SkUuG0c1Pkjv4AB9NfXU1bdQXFnBuv8OLqu4oWQH/3NAkGWs2f3CrbrE/BaWlt0kQw6mZ1WsrWpZUutZnzKwsaylf2QO3coaHts6k9NKTGYXyWgI6fQ0vlhKvL9Cr1SiWjGgk0pZXTWhnzLv5thv17DpsLO+ocNt1+Pe3le1S3AbSypopa68nCmZApV6jRX5grg5oLWumRmFioWJHnQmC+1t9cjkc7R1tzM20MPsygpDLbWo1jdRzc3QfLWCax2dtNSWipeZlbY2iCrdvsZa5hRmdIsatEsTtChNDDcWUzeqRDM6gGLDjGZRi3xUQkezFPPmGmrZGK2to9jsZpY1KmprWhgeGqKnvZEXT/6IJUFFfI+fA4EcCwZICFNAgv4/GSMQKggo1vVlpAsK8T5lw4wWfziFeU3HgmJJvHLHZtSzoDCQymYxb6xg2xbcMtEAC7J5DCYHuXSakPt6QYWtMr5QELfXTjhoJxzfEVQOxomY10h3ZydyvQWv1UwolSfhN9HT1UH/lFJUl+rlE7R3S7B5Aqysr4gtM+Q0smK2YzYYsLl3bk3NYd0woFNJaWvrQKo2iZmwbVrx+dyYgwkyIQe+eJawy0E4FkMjHaO7b5JwMsPK0gwd3X14Y3kCFi2dHZ1obTtxQyC4fTfhwYr2vqkOBPJ+sTtXVIxI9Rxd+LYfpw7H/66AnEklD3hB2OEU8sOe6l0B+cPOxAe9/EcgP+gI3YX8HYF8F5j4oEdxBPKDjtBdyN8RyHeBiQ96FAcCWTh550EwDzozH9T87QuyoOUSLmQOHrIRrm9/z1XFDypXH7B8vS+QQ4m8OBt1c+BzhJP5g1cKMa6dSpRDiPtm8R6B/P5rzp2DnMjhC2/hiRWuXN8LSDQNoVgKuy+IP5a7KVh76QW7LxLDG00XaGNpPOEYwmXQ76Y7Avk+gryVyiKbHWFyfoNwGoQ58HgWYqkMKosbz1aSDYcDYXIlJrhnIZzIs5VBnDvdEibTkwW74GfQj6NzbiHcDhwK+ZhXTOLZDhvNXv9UHIF8n0AWFgz4g2EUKg1jUhWuGDgsNjoHJlDoVrhQVceYYh2j3Yo74Gd8bIjuGSXOcBSNSsZA/ziKjTBOm5H+0UnU9ijry2NI+seRTCxg9bpFkJ2hGNL5SablBnyxQqs+Avk+gSy03DXNLL3zWsb6B1FbPMzPSFlxbOEPBmmbWsBgdTCvGGFhQY1m08vK6hJTci0D/Z1oVoziEYtGq4X6pgZah6XoNRNMKE2sri4xuaBFrp1BNjxJbWMztZV9rHmShBPCt/pI8Hq/MN/BNzlHJJFgeFhCz9AUvQO99I1IGZ2YRL7mwBOM0DezgGZ9kznlKAqFCpl6A6VaxoxSh3RxEm94C6msh9YhYTnRlHjarVo9xuCSgUX1AjOLOqRL4yxMzCIZkbG4ZsO7/e0/Avn9Qgx3BHJwK4rBbkdY4p7IZDCYNjFb7UhGp9Haw2ysrCJXb7DhsOMNBpkamWBQrscTibFhs+CLJDA5LKwurzAyKkdrsgB8X4QAAAG+SURBVOJwWZick+6hs+INh5gVzuRUGHYFvCOQ7zHIgqQrSLyBeI5Iim3JN0dkW/ASTpSNJPPimZTRDCKNMBSK5SEhCE+JnXA5UVAThDBh0cuWII0nEdc57dAJgtxOWEGg20k7eMDuOpfPYwul35exh9II4X/SngO15HAiK34ThdZ0WCacPNg3OZXNY/AkcW9lcEfuwGxlxHC32o/1QQZ+X5CFwgl1+0EwB2G0ALLJn0KsmPHCWF7Q2AkKmh03wS5W1r3+iawY7kML8kGY+6DQ7IAsgLirUElkcQdi4udFGJv7Iwl80cx1fwHsI5AfFAj3z8fNQBZ2M2jmRrnas8Dmho7K2h6skYwI7E5FOAJ5f94+MBQ3AzkoCH7xKN11lbz44nmk6z4iqRt15B8akF9W3vutLPe6Ngjnn28G0oSTggLluhGk9mgyg82bENWre/0Eu0AvhNteeXyvs3lf4xdu2wsEAhw79tYMT89ukk4mSCYSJD6gJhJLYHBGcIdiuIPXjUuwhxL4thI3uO/ShGJiuK3YB7fst8LMbDYXQD6ntDJgsOGx27DbbNg+wMZqtWG1vQ9j/WCX+3aYCWeX/39zlyjWb5fIzwAAAABJRU5ErkJggg==;" vertex="1" parent="1">
          <mxGeometry x="2279" y="160.5" width="121" height="95" as="geometry" />
        </mxCell>
        <mxCell id="6ZfNqcn49MTVpPQ85q8o-19" value="" style="shape=image;verticalLabelPosition=bottom;labelBackgroundColor=#ffffff;verticalAlign=top;aspect=fixed;imageAspect=0;image=data:image/png,iVBORw0KGgoAAAANSUhEUgAAAHkAAABfCAYAAADMD2hiAAAgAElEQVR4Ae2dCXDc133fmU6mzSRxmsx0JpOknbbTNpcT24nbNBMnk6SdNo2nThwfikzHiSxZVmQ3smX50BFZB2lJpCgSFA8R90XcxH0s7vvaxe4CewJYYLHY+z6x9/Xp/P8LgKBEEqBMEpSF/86b/9v3fu/6fd97/9/7veuYJ7yFLxgiFAgQODI/MTzw+/2EQiGi0SjHfqlMwQvTBvwuB06HA8eReeB4IODidN6ZsdvtrK2tiUAfO3Z+jhcVDo6eB5sDWeCgJr9dFKfTKfZMx45dnOclhf3BLuGHPHeOcJo1bxKTP3Ugs+pJkgNcRyB/cGqOLZzGG80QTmT3NZFkVqwIQqs/GMi5PFvpLPl8HvJ5ouksqZ2+4IPDow98Tu3hNJ6tDMF4dl8TShwY5DwOf4hm+Rq/XLnIP81YKJ1a5Vcrl3haacPoT/BurBOp9HW3XIqs0F9sP+lMRrRlE2Ecni3R7to0YbY5CPgjpLdpc6kYZrMZu92GxeMnlYhg3jThDUbJJCNsbm4STQgp50nvTWAnoe13Lpsiu51Bl9mE2RUQffKZFHbLJpsWd4EynyOTFup84YkGvZhMJoLx9I7TTd+5XIZMbocDebLZLKlkjHDiergbaW4azYEdA/Ec7rsPco5pnZE3xzUcuzDPH3Su8mjbIscuLvC3E8t06r3XAQVU3Wf4zDdfJpPPoZut5m/+9yOshPKkAuu8/OgXeK1DQT5s5elvP8FXvvBNOicXabtQxKvffZw//vTTeJKF8sa9Rs69/kP+8fEneadnlOGiK7x08gxDUgNTF6/w0suvcrZ8BO3KPBWyjVsyaW2uGKXFgX6ojdOvvMHrZ99hZNGKQ93Nt557hdOvvkHbgJwtxyYDZbJCWTIRrhS9yKmzF5FagrtxJ6Ne9MHtDG67WlR9jK2HCv/SAToHezHZzWic18NZ1ZLrNLux3bklm/DRYwgSiGUJxrJs5YQqDqFEHqHpJLIQyW67xbPcQUvOIV3ZpGhSx7HLMv60Z41vdqk49o6cr0ytIln1Xwc55eC5z/5X/uffvUAmn6K7+Tn+4Jf+Cl0kj2d1lOOf+u88WyfHOPQmx793gcXuNzn+TJFY2oELz/DtCwM3ljzupr9jSHSbON2ITGsjnkwxebYfgdWjF6/RM9DLhRnDjeH2/FueOMvg5DANF+tFiZSsnwsNHchm2hleE8DJ0F1dg1wqp/v8dKEsCS/VTVUYXUFSqSTTXU3U9I1zrfoU//c7F7BYzdTVXGVUbmJzqYtzZSUUl1zDFfHQ3NWC2W7G6Q8jHemkvG0EvayDc6UllDZ0sJUptPqoy0hJRQULRiebuiWaWxoYmJyjpbSM2Y0AwQ0ZtTU1LDmDuBRLdHdIuHLhZZ640EIsA5F0jhXFFMXV/TjDEa5VVjOm9bC2NEtxlQRHNEf44N/kAsjnJrQcuyjlj7vXeLJziWOXFjg+uQfkXIzSk0/yvWe/z+Nf+wHeVA7COh76Tw+x5C/0waXf/Sov1MlRtj7LN19twiqr4ovffJFsws0jn/kcUtf1Lk7AKeE10dncIzJ+5LUzPPvi64wumBg7c5ETP3qd881DaDVTXNwGOeHb5J3iEuYM210wYJRdolPSTU+Dchf6rv4hZkau0a9ziW5qSTdT07P0XZotgJwOUXTq+7xR9A5anZo3vvtDBpZWWZi6xvP1E4RDJs688HX+6plzzI21UFTbw8xAFw01Q7SP9iGf7qBtap63//lZOmeWMcy1cLq8nc6rpxjWO8U0F7uu8OKpKjY8YerPnaa5q5sTr75KX1cX1aUS7IZ5vvHoV3ilpIK+H12ibVDF7FgzzzTPEk1BLA+S89/jN3/371mxb/K53/ot/rlGyWjJC/zGR4+zHMyxlcwdVPDKMb+8SZV0lV+pWuTTknWe7tXwy9UqnpatM7iy3ZLTAcrefJGXnnmMj33iz1G542Td8/yvX/w/KLZBfvPRz/JUyQy+xWY+88i3KH7t2zxb3I9TVsuff/HbxHdhKFji7nVaattExo+93orFX3AffLmU9v45AokcluVRTo0tix6ZRBiVWo0jGBP/J7Z8jFZdRW/QUX7mDDK9CZ10hJLmEfTzLZRJZBgWpbxW3MHGipbWNye2W7KH8voyjK4A0WiIpYl2XnmhGLlygrPDiyw0XKSqpornT77NQF8NJQNK1pTjNJT00NDfzsJUGx2KdQxSCW+8dJ6hwasMGML4tJ00L2yKeQu7N2g6/xa1bYNca5bg97lp7mvF6/MguVrFG+XlVFSWUFT0Q3reGMAaAM/GFN9vk7OVyhNMZPFFopg9YbFbtrn94rfaH4mJboJgdkfd9Zh6g+elVl6QWelY8yBfs/OqzMZL8xu8o/UVGFPgP0TNdLQPi2OzXMRC5clq7EK1A6ba6uiSCt/PDE3lZ/jhuRr8WbAt9dDUN7sTw+47E/WjWdKJ8RvHNXhCKVHQMk7oCCcKZH6XkckNz26YvRbz0gBNzYXu3mfScvnUm5y+Uoc1mCJiUXDqjdOcOV2NwRMnF/aimdwolCWfoq/pCqffPMfEkpauK5do6ZhkK2in4UojyplpLl96mybJHJaNRWpKijlX1oQjFka7rMVmXkZvtiBpuERtxzBWk5YV1xZhuxadvfCtdugnuXjpAmqjDZ16mXA4hEqvFt8rWi3SwXYuni1jXDbO6sQqvkiWZGCTyYFJ/MmcKFmHkhDNINq3hC48mWOv2x2ADLFkGo0/jj6YIJTOkU6lMQQTaP0JXEK3fPTcNw54k+CO3PUh1H3L/1FCB+CAME72bmUICd3xPkZQmAiasYMpQ/J5crtjwdvlRKC7dcuOb/mIpa6PRYWYBPqdUebtYt7xy6Xid0Qvhstlyd4mXztx77xz+TzpVLyQ13yCQDBANB69abqCckigv/HJk4jEyewM0G/0vPm/A/LYGkphCxUUIoJS5LYmmsHgSR4M5KhtncFK+c0zt9c1HWCkdxjhy/nuJxNzUlFyFp09coNX1fAQrr1Dz0wSj+Pm39iwW03D4MgN4ff9k88wMNjNZnhfyl2CmtEx9Jsb6H1RtJMtXO3sQbOm5UbZv0AedCxRufDecbpJbiC4LTfsRnwbi9+ipndEd3OKXGqXJ4F4FnMwhTWUPpgJFnK97wRF2KSj4/wsiaCNhuJiekblkE8zI2mkZUIhqjpn+9u4UF5KTU3nNjPyONYnKS4uZnbTyWJ3Kd94+jKBbS2VSTdCdUkZ36lswuSw0dTYzJzGimWxm8cffRKpcZPpa00MTC+JQpwwxF9s70Ru9WNZ0dJxrQHJ7KooxC1MtDA4p8a5YSAaj7GoXya4FcOxaSYesdPZN4HHo2G8o42hsTFG+toZmFkll48x0F5MacsgUcC8J09rdjsWywrPPf4UnWNq7M51cvk0s4NNTMzryOXCdDWUc+XKZc5Or4ngZONeJDV1TCwYsNldBAMepBPDVNW04k6CZ3OO0opyTIE4dtUc11rG8W/rhj3GBa51y1HJxmlsHsCXymFTTFFf14NyopXHH/1HZLZtpcvNq8JtXYVpY2GNwC1noSKbK/RfHKGns5XhyTl6K0qQGRw0Xj7BF770FYbGBimp7GZipJsLxR1i95AJOamufYfZ+TlK32lhXNLGm+fbiabypIMOSksvMjc7yQ9KyrF6Nzn13GP83++8hV4npejNt7EGAlSe+gF/++mnWBY4RJL26k780Rh1Z9+gsaOHM+WNjLSf5cl/fIRHv/oEV+sv0zGj4OKJFxhckDLQoUC/MIrcFEXXf4KiknpKn3uF1rYeflhZx1BfG43Dg4xK2qmr7qey5oqYp+fKqpiZuEa3TEnpmQtMzc3SJSlipLKCJ578Ko899DzNtVepGxymt/kK5yYKQzj7Ygffef4N9EY7bY1dKOeGOHnyHTpaa6joGqexoYoZxSIbummeeOzr/P3xf+D8mFBRwbuhoGNAhXKkkuN/+zAXhxRUFT1PVfs0tpV53jpVhCWyt8u7Labv8dwX5LBRR9fpXprbW9HZfSx21VPecJWXypopf/kxqmqraJZocaxKeftSk6hiS/utVNVexevz0XC+GZlsltY+jZh4wrVO4+UmfB4LL1SW0F52kfqrVXzvpbdYNZnoaupEPt/MG7VXOffdF5k1FjRTvWUdeENhWus7CaVSSK710FDyI169Us3w2CxOywYXT5xlZHaOolOnUFmdtHb1EM6DfuR15B4X82/14nL6Kerroq2+nmGdEbN6mpI36mmuaBXz9FxZOZNjzUjUBvra+rFaDXT3vUXn2QucK25idEbOSHkV8zobC6M1vDZcKFcy7EbScpHLNQ3U1/eyIJ2kbWCFpH+Z8kv1lFyqwh2KYFUP8+Rz5xgaHmFzW3/v2ZBTUdpAzbk3qSw7x9nGWUxrUt4+8wrjSh0d9S2EMzfKM+9B8jYO+4Kc8DnRTJhwrcp55ZWTVDcMEPKYKDn1NlWl5ZgcTjpKL/DKpWIGJ1XbY80MCxO1nDh5kmsKA7GgDbnaUshGPoO8p5IzJ4ooG55hRTZF0bm3qOkYJxqL0tFUSdf4IKXnz1NR04Z9W1+s7e+kd3EFlVxFJB5HrdDidBmpLTvFhXd6iKXSjE9N4N3aondkFOO6gjlpoaU4V4cwBfwYR9UE/CFGNTqc3nVKzr/Mj965iiOdYKm3SsxT6eAMJqMKvd2NRqnB53eh1kwS9G1Q/eZpLrUMEwisUHLidS6VVDOyXpAhInYtRUVFSORqVIt6LOZ1FnV2sexLeivK2XpOnjrNqtXDYFMNRecvseYuKG62fBaUch0dlVe4WF7JnHqTyd5azpQ14QqHaWsoZWzt5rLKbbDd9doX5F3KQ7akYjbG5mYOnAthpit5a2H/wPH8JBB+YED+SWD2YZXhroKcz2XJiKLXYRXnKN2bcWBfkKN2IyM1ipuFvdEtE2K8t52u5hZxzvNGz6N/h8mBfUEWxsntRbOkIk5aKyoYmFoC0swPXaNzRi3mfWGkhyvVlTQ0SVCNX6NnR8g6zJIdpb3LgX1BLoyTR+nrbKV3cJzOkmKU6y6aLr/KF44/wujECFdKWhmQtHGhrAeXQ09d9/X5292UjiyHxoF9QQ5vCOPkHhrb2jD6o2j7GilrqONEVas4Tq6sqaR1aJWAScnl4nZstkVq+lWHVqCjhN/LgX1BTnjtLI0YsevmeenlE1TW9uFzrnH59fNUXilm3Wqj9cp5Xr5wGcn4EnNtlUzsWZ3x3iSPXO43B/YF+c4yFGNysJ/YzbT5dxbREfVd5MBdBvku5uwoqrvGgSOQ7xorH9yIjkB+cLG5azk7AvmusfLBjei2IAvLcywWi7hlRNiaIhiLxYzb48Qf8opGsAtuO/5H7wKf7pQPGxsbhMN3sITlDurUbUEWdqfLZDKE5SMul5NQJIDL5WJiSEpjRS9NFX1MDctwu92in9PlFGkF+iNzZzwwGo3odLdYAnQHgN6MdF+QhV3qO8/S/Br/7/Nv8if/9nE++jMP8zs/8zB/8u++zrceegut3LhDdvR+HxxIJpOsrhbmv99H8NsG2RfknYQH2ub4b//mH/j1f/E5PvZzX+L3/vWXRfO7P/cw/+WnPscf/vIjjHYv3DaxI89bc0DoNXd4fWuq9+ezL8gbG0bMa04+9Wtf46M/8xCf+IUv87s/+zAf/8hxPvELx/mdn32YT3zkOB/9Vw/xp//+61iMhT1G7y87H95Qhw7y6e/X8ps//Xl+/xe/zKd+9TE+8/Gn+dSvPcYf/cpj/NXvPcOf/ccnxFb9Gz/9ed56/uouUiHnGkOSAVbNAfKZGDaT+6brl3cD7GvJsa6R0jc4gskdxOf3sr1RcN+QewkSES++rZstHt5LdX/thwZyPB5nSanmi3/4rNhFf/wjX+Jrnz7J2y838vSXzvLVv3iV15+p5K9//xl+b7uFP/RHz5FKFvSai30tdPUPUNXUhTcSw7O9bzeTyZDNJgn6C2ucdvaRZ7ctuWyWTHbPwrV8DnF9fypIU0MlkwoNLo+dnv4+toTDD7KZGypPOp0hn88hvMUnV3iHXQZmF4zYtMOM6ByFOLex3JuekP67l8zfa8gPDeREIo50VsGf/YcnxC754z9/nCc/+zrvvHaNHzzyNl//zI944fHLYjctfKOFLlxo1VvhAniq/lYa2tvoHh4m6POimTawpp6npKSE06+VoVApaaioZGJqnvbKBi6XXmbeEsSlmuXiufNIdU70g/3UNvTi2MpCJkxLQzmD0zL8fjdD4yNsrquoulhKdXkNi2tWJE0V1PfPsRW0UlFcTE1dJ/U1JbR0zzLfW8uzL55jYUbCO2XlFJdX4whF0Ex1cfHC28gV6wx319PUN4+4RPxeI7sn/kMDOZ6II5ct8pe//RQCwCLIf/M6J79VzqnvV/P08bO8/I0S/uI3/0nsrj/+81/iLz/6FLFoYfuAAHL3xDSjnSPodTpGKweQjPSiXl6krfYyIzODtHdLiXqM1F0ZxG1fobtxDv3yPOUXz1NW2894bQca0/bO/VSI1uYappVawiEfI5MSOqrbsEbBKu2kf17PeMc1pItr2NfUtF6t5BuPPc6ZkkqqyrpYWVEyIbXh1Q/TObeBdUlC79gkbz93gvKKSno6Rmm61oo7fv9XAB4ayLFYjJWVFZ764hlRsBIErb/+5DN87+/P85X/8SKf/eQzPPN3RXz2k98Tu+vf/pdfFLvxnb1Ti31NtPRKxIXxy6sGZhrGqas6yYm3S2iv72RJI2N4ykDcs8lo8yLRoI2RCgnVVy/Q1NRCQ5uEqfoxLN7t3cvpEE11pUgm5zFbNxkcG2B2tJf2rkHaq64wpLKgm+3l7JliBrvaqG/vor2phNa2XqbU64RcK9TWXEMlG2BmPYRvZZx+6RKdZRX0DoyyaTPTPzJIZLuX39PQ7rn10EAWEt40mxjukCEAKEjWovnIcT72cw/z8V8QJOwv8/u/+HeipC1I32N7hlFbXjNT4+OsWvwELHquNU+i0eiYnprFYAmSzyYJhGLk0kmC3i2ymSRh3xY+i4EZqRKXP0jYEyK5c2IMecyrKkbHp9h0+glFwmRTEaRjYzSVXkZucqJXzKIzOckmw0hlMoKxGNq5KWa1RrK5DGs6JXa3l0giQzoWJJLKErYbGRfidPkJhYO7h8ncc2T3JHCoIBsMBnG/0/Nfu8R/PvY3fOznC2NkAVjBCN9iYdws+L30jeLCMVB7Mi9aEy6ay2tY2l5M/m7vH+d/0KKkrqaSzh4pyUNogT9O3veGPVSQdwboyUSaE0+Vi8D++k99TlSKCIoRQRHyyV/6Cq9/t4pU6nC4LJ4vtpdjH0D7oYG8tbWFXq+/oXUqZpY583wt3/jcKb75+VOcfaGOxbmVXbYKDD8yd86DSCTC8nJh89wuM++S5bYar1QqhVwuR6PRoNVqRQX6hmkdk3kd4V2wGzGa1kQ/gebIvD8eLC4uijN5dwnXG6K5Lcg7lDdtmeQLv6OWe9d6rh1+3+33gUC+24kexXd/OXAE8v3l96GkdgTyobD9/iZ6BPL95fehpHYE8qGw/f4megCQ8wRtZgYGhlCtOG8xBZfH4na+56Dz2M5Un3BvQjzATFcvA0Nz2HfncrfD3WI+wGd2E02mSR10R0Y+xYpsmG7J6E2PZLq/rH1wUtsfZOFoo7EpNj1RUuk0mVQcn8fG+rpN3G4ejfiw2ZyEojHS6YToZ7S6SCdDNPf1Y7AXjiZK+F3opizEwy5kkwYiIRdOh5twtDAt6bKssrpZqERinHY3ka0YthUlfYMzeF1BMjnIJkNsJW4x4Z9LoZvu42pHNfH7PSH84GD6npzsDzIQ9WwyPdqHxREmYFbRPzaDbHYe3ZqV6dFhlrSrKPU6rOsqJGPTTE8NYrZZaenpZdlSOC0+FXIx2zmNQrOIWmtgcqKV1TUTi8taLKYVpuWz4oTCynohTvXaJmq1Hv2ilN6BaYyaRdadIdaUCqzbiw3eUxrBIRNgZLhRPC74pv4fQsf9QRZWWGRz5BJ+RmYXMBk1qO1bEHUjH1OjWNaQzaZZ0qmwGDXo3XHibj3LFhezBsMus1NBJ6P1A6gMZtKpAGrNFORzLOkX0StV2IWmF3Htxin04NpFHXaHBf26H3JRtBolSt066du00lzETp+kluhtaD5sOB8A5CwO4xKDQ0PMrdnwWTX09A8zNDGLIxTCaDKKJ7yvmYx4nCY2/XGi3g3M/girSilL+sI1RKlwALPWV+BvOoJxQ0U2k0YIFwhYGR3ppX9iToxz3bROOpdjY81EMOhldmKEUBoMM2Osb97+ZLpczMu8dPC+r+x4kCvO/iALuc/nxO+xYA1aVKjMvgMeECpcvnELqerdXMlmSN/i0FHhwJmw28rklFI81PvdQY/+354DBwN5TxypeFiccN/jdF+sQYcVe0A4BfPouVMO3DHId5rAEf3hc+AI5MPH4J7n4Ajke87iw0/gQCCnYgGMBgOe4LvvfLlegHgwvGfB3XX3+29LoJXLWDXvvUE2gU6xgHxxmXgmh8u8yoJSRSKbw+sPilq8bHILT+R6+aI+D/HtsZrXZkQ6P8ea7fohpplYBM8eGWHLHxDP8ox6rMgXFETSeUJ2EwrFkqiYyWx5kcsVuMM7ipwsQb//hgX+94pXBwLZvDTN8MQkcyNKQombS8tRn5/ELS5wzKdi2K17mX5vipNPRxlraqW1tYPRKRnJTJZ8NsFUezftnX0M9EnYcLlpbSilsaGB4RE185PtSJfNzPe2smAuKG6EG28kV8/TPbkuHkxXcbWUq9faaayqYknnFTPvXxnmhbeaSArj8WyMxqJzKDaMSGpr6JUMYnQEseqUdDXU0DesI+DeYKC3lYr2bvF6pNDqJC8VlRC7OTvvKoMOBLJVqyaSA7NmEaPNhnJuhjWTkzWFjMGBQZzeLQIbbqKxOFq1gtFZOZFEko2FOcYmlrCuKamprmV9W1MVdVmZGOhHuqAjGd1CPTGPzvTjb5QTToBvHb6+Tkrgv+DWPircApdkw2QktuWnq6OJsbFx+hc2yCUDtF65Qt/E4i5jhVP6F2bmGB6fJpuOUz86jrhdIGKlt7Nd1It7LTJ+ePosK44o4c0lyi6Wozet0VZdjcZR2EwuLAvWqhaYntOLJ987VpT0To+RyWeQDQj3SA1zP9bxHwhk89IE7R09TClNBDwbzMxoxJqpXHaSjgdQLirQja6wolmgtq2T7t5uJhUK5FqrOE4WDvxeVKgKm9PySVRKFYF4CufyIirtMlKJgviPcWj3Djp23ThtMtvOX/HtWp6gXW4Xroyjq/4S8jULbY1ldHT1Mzy/QDoVo/HyG3SKd1YVgqr7G2joHaGupBSjw0Pz2Dji9aEJD4P93WL37jbJqRkaZ3honMGJCYa7e1j1xslEbLR21DGtNpMJOxkb7md0SkUuG0c1Pkjv4AB9NfXU1bdQXFnBuv8OLqu4oWQH/3NAkGWs2f3CrbrE/BaWlt0kQw6mZ1WsrWpZUutZnzKwsaylf2QO3coaHts6k9NKTGYXyWgI6fQ0vlhKvL9Cr1SiWjGgk0pZXTWhnzLv5thv17DpsLO+ocNt1+Pe3le1S3AbSypopa68nCmZApV6jRX5grg5oLWumRmFioWJHnQmC+1t9cjkc7R1tzM20MPsygpDLbWo1jdRzc3QfLWCax2dtNSWipeZlbY2iCrdvsZa5hRmdIsatEsTtChNDDcWUzeqRDM6gGLDjGZRi3xUQkezFPPmGmrZGK2to9jsZpY1KmprWhgeGqKnvZEXT/6IJUFFfI+fA4EcCwZICFNAgv4/GSMQKggo1vVlpAsK8T5lw4wWfziFeU3HgmJJvHLHZtSzoDCQymYxb6xg2xbcMtEAC7J5DCYHuXSakPt6QYWtMr5QELfXTjhoJxzfEVQOxomY10h3ZydyvQWv1UwolSfhN9HT1UH/lFJUl+rlE7R3S7B5Aqysr4gtM+Q0smK2YzYYsLl3bk3NYd0woFNJaWvrQKo2iZmwbVrx+dyYgwkyIQe+eJawy0E4FkMjHaO7b5JwMsPK0gwd3X14Y3kCFi2dHZ1obTtxQyC4fTfhwYr2vqkOBPJ+sTtXVIxI9Rxd+LYfpw7H/66AnEklD3hB2OEU8sOe6l0B+cPOxAe9/EcgP+gI3YX8HYF8F5j4oEdxBPKDjtBdyN8RyHeBiQ96FAcCWTh550EwDzozH9T87QuyoOUSLmQOHrIRrm9/z1XFDypXH7B8vS+QQ4m8OBt1c+BzhJP5g1cKMa6dSpRDiPtm8R6B/P5rzp2DnMjhC2/hiRWuXN8LSDQNoVgKuy+IP5a7KVh76QW7LxLDG00XaGNpPOEYwmXQ76Y7Avk+gryVyiKbHWFyfoNwGoQ58HgWYqkMKosbz1aSDYcDYXIlJrhnIZzIs5VBnDvdEibTkwW74GfQj6NzbiHcDhwK+ZhXTOLZDhvNXv9UHIF8n0AWFgz4g2EUKg1jUhWuGDgsNjoHJlDoVrhQVceYYh2j3Yo74Gd8bIjuGSXOcBSNSsZA/ziKjTBOm5H+0UnU9ijry2NI+seRTCxg9bpFkJ2hGNL5SablBnyxQqs+Avk+gSy03DXNLL3zWsb6B1FbPMzPSFlxbOEPBmmbWsBgdTCvGGFhQY1m08vK6hJTci0D/Z1oVoziEYtGq4X6pgZah6XoNRNMKE2sri4xuaBFrp1BNjxJbWMztZV9rHmShBPCt/pI8Hq/MN/BNzlHJJFgeFhCz9AUvQO99I1IGZ2YRL7mwBOM0DezgGZ9kznlKAqFCpl6A6VaxoxSh3RxEm94C6msh9YhYTnRlHjarVo9xuCSgUX1AjOLOqRL4yxMzCIZkbG4ZsO7/e0/Avn9Qgx3BHJwK4rBbkdY4p7IZDCYNjFb7UhGp9Haw2ysrCJXb7DhsOMNBpkamWBQrscTibFhs+CLJDA5LKwurzAyKkdrsgB8X4QAAAG+SURBVOJwWZick+6hs+INh5gVzuRUGHYFvCOQ7zHIgqQrSLyBeI5Iim3JN0dkW/ASTpSNJPPimZTRDCKNMBSK5SEhCE+JnXA5UVAThDBh0cuWII0nEdc57dAJgtxOWEGg20k7eMDuOpfPYwul35exh9II4X/SngO15HAiK34ThdZ0WCacPNg3OZXNY/AkcW9lcEfuwGxlxHC32o/1QQZ+X5CFwgl1+0EwB2G0ALLJn0KsmPHCWF7Q2AkKmh03wS5W1r3+iawY7kML8kGY+6DQ7IAsgLirUElkcQdi4udFGJv7Iwl80cx1fwHsI5AfFAj3z8fNQBZ2M2jmRrnas8Dmho7K2h6skYwI7E5FOAJ5f94+MBQ3AzkoCH7xKN11lbz44nmk6z4iqRt15B8akF9W3vutLPe6Ngjnn28G0oSTggLluhGk9mgyg82bENWre/0Eu0AvhNteeXyvs3lf4xdu2wsEAhw79tYMT89ukk4mSCYSJD6gJhJLYHBGcIdiuIPXjUuwhxL4thI3uO/ShGJiuK3YB7fst8LMbDYXQD6ntDJgsOGx27DbbNg+wMZqtWG1vQ9j/WCX+3aYCWeX/39zlyjWb5fIzwAAAABJRU5ErkJggg==;" vertex="1" parent="1">
          <mxGeometry x="2279" y="280.5" width="121" height="95" as="geometry" />
        </mxCell>
        <mxCell id="6ZfNqcn49MTVpPQ85q8o-20" value="" style="shape=image;verticalLabelPosition=bottom;labelBackgroundColor=#ffffff;verticalAlign=top;aspect=fixed;imageAspect=0;image=data:image/png,iVBORw0KGgoAAAANSUhEUgAAAHYAAABVCAYAAACcnxCJAAAbo0lEQVR4Ae2dd2yj6Z3fJ0CAAAkC5C8Dl4IYKcgd4iBGLsghcQ7xxTnDcGwgOZ9zsC+Xtbd4ffa5bLW9a8/O7M7u7JSdXqXp0qiMpFGnGqlKSqwSOyWSYqdIkWLvYvkE70tpRrPeGWl8a08TgZfv+z58yu/5fp/+/J4f98j9MY7qvHj8AYKBAIHd64nGwOfzsba2xp63lB72nFMTy+YpFYsUd68nGoNUKoVA7p73NF7+7pV5cpUau58nH4FSqSS2OHeIzZarT36udnMgtjZCd7pL7FNWGISu9AHE1iiUSozZgrw84WHGn2TIEuDlSQ/TazmKu832Y1sctiG2zNyim1f6F9hzZJbvjNj5couaPafUvKGwow/nxIzVahkGz5/gZ28eQOnLkl9zcmLfPk5faSdbhqxnnpMXL5MEguYZ3nl3Hx2D86TSXo7vf4W91/oobOkBLOoR3jnwPjfGpih/EnS1PNValVjQgD0YvuMjHLRjWIndef/4Q61cpvJJhbFWZGlJTbL08RA7e3dYlDhj9w+cL69TYZ3FRdVDp5GOLNLcep1oYWeybPralthZm5tfDJvYc1rNS1InX+vQsadxnrdnHSxsEFut5omHo5x+8wVePith5ur7vP3uKd76mx8wYHTSf+Db/JN/9+ckqHL8Jy9x7FQjr736Nntf+zH7j57ntRef4/qke1MmOke6kJi9dA9fR6K1Y5hfIFZah1wel81Gz9U3ONXWSzQWRAAt6V9CoTATjceIZ7Jk0yG0cyrCqQrr2Sja+QXSuTLW0SaOnmkSC5Fr0cRyOFVPs1YmthYkV8oSdprRGJ1U7kgD3sUFfKEw0VROdC9Gc6yFfegW9KQyVRSyJsZMQfL5IuVinkKhxFrYxcLCIoVchg9OHeLGhJlIPCTG6jLNIjc6xed8wse8ap6V3N0U02E7M3IlmXKVlhvH+HnDMKUtBX+LaPd93JZYocZuEvs9qZOvbxD7yznHnRorxL4w0cnLL3yXIY0T+3QTf/yFL/K1v/gey8kCedsgf/qVF4lUK/Qfe4v/9oUv8+P3D/Cr535Ai8pDx6++z/4L8jtCDgy3c7q9m/beNnSGBd544S85dG6EhY5bnDzSyrXTL/NOQxdGVTOymSFunrhIS+s4qjkJ05o5Gk4d5OyZ85xtmiS6auLVF7/FmzdkqPsusu/9U4zODvP8957nuTf340rVoJpgQnoJ+WQrh/fv5fD+w2iWVkV57JO9/OQH3+ZH393LmUsdLIcC9PWMs2ib5afP/R8+bJYyr5fS0TWASmMhZFUj11hw6/r4zl98m+ahSfZ+8CtOtUiQTzei1Si4duEUJy+fRa6b4cpHr3PoveNcvjmGMB/JRey0Nh6nseE03bJRTp8+yJvnpfcUtDtAPeBhW2JVS272jpjYc1LFd0YcfLldy56GefarHBg3m+L1Apl8hr4TP+fHP7/Au3uf551WKe/+9H/z/pAdPFK+8MXnCKZDvPx/v8rtaQWvvfh1/vxr3+JMq4QjP3qeC5KlO2L29FzmlaMN6J0rTM92ceHyZT768BzDl0axWKqs2ZvReYOsGJo4f+EATdJ6WKuym8FJGc3dfWJcvafa6Lp+lc4bDbx+vBmHUY/ZuEh/y0n2nW2nb2yCaBGoxBmRnGFCeo0p6zIRYxPDSq0Yh+T9Axw83cygRIFFp+DC6TNMW0yo20a4dfEMf32+kXH5MLc6O5mYU+JSzdDXN8LkFQmXLh3hndYuejVK9Cth5mSHuNXWjyNYpRyZ58qli/SNXCGXXaWv8yOE1nZ1cZa+gXmgxO3WdrrkU/Q579+93AHtYw/bEtujdfCuysf3p1zctgZp0rn5/oyXX83YGQtkxeiqSR9nTh3kpy++woDSw+LCMC/9zau8sXc/zmiesk/JD3/8HrFKiYmus/zotdc5cq6JJessr7zwl7x98sY9fc+Ubha90CED8u4z7P/gGB19I8xLdCw7CmR8UxxsvMX8fD9Ws5rmkx9x8GgH8/pZ9JZ5Gs4e4O29H9CpszDX2cwHhw9ytVdBasXOiYYGZlQ6jh0+TFPXUL0Pr6TQKLvRL4xgcvsIL0nQLNULS9Sp5Nz+D7jYOwnVHE3nL+POlZhpvsCRQ+9wdngC7YIS87KVppP7eHvvMeZUZrobTnL42Hs0a83My/ppuNiBemEAr9vE2V/+gl+ePsuSx4pWM0AqGUYu7xSJreQidJ8+yP539iKzLGG06ZA6o3UwHuJ7G2JruKJp+jxJpME0yWKZWDKL1J+k153EX7zbLxTzOdbvvkK5JDYtnyTLemnLQKO6fedRLAjV6t7P+nqZuyErZHMbo4u0k6buW4Qyd0cbheLd8Ovl+nCsul4gly/cV8atqVVLBbK/JkONYnFLPgBhcFYsb4JQpljcHPrVKAtjhI2PEF9+/UELQTVy+bsyb4Z7mPs2xD5MVI+J33KO4OrqFtIfE7l+x2I8fcT+jgF8XJP77RFbyzI3PsXWxqpQzLG2frcB3RaUapGV/NYYIOrSMGVybBv0WfewLbHldAarUkW/bFwkKR/zI51QEo4ESBdiJINRYms50ukwm1Mxl2GOtpYbtNzsIRSyI5VKWckUGWw/yfOHWgkEXIxKpfhC9QUOgYRU0E5X9xAra2uoFDJ0xiBuwxDf/NmH4lbizKQUgy1KyDZK56yZQsJJZ1cXhqAwFy2jGOlhdHqBYPbegvCsErwtsaGZEd597SNONVxibHKWQ8ff5rm/eo6fHfsAiXyOoQsnuCpRMDM4RKIChZCN86evcqu9mTOX+4m4NLz07W9y5FoPI0M3eeXCABGvntf/3zf54fF2hCFFLR/k1oWrdEqmiKQS3HjvVb710tsMTQ3x1wfPE1oNcuqN7/HtVz9Ca5QzPK2gv7uRzp5eGm9I6Om+yYXmJs6fP8qpaduzyuU9+d6WWI90mvFuO3GrncGPmnjr4Af0jgyjtS8zeP0crX1TtFw4wa0pqxhxdHGa5n4d+egyN842cr6vnzPnjnPm+BE0SxauL1hQX+mg9dxpnjt+ijSwHlZz9tI1hHHg8vgEbR9e4o3j++mYU3JJqcM8MEb70Yv85NQhuqSD9Eok3O7oJl9aZ/hqJ2f3nsbiTaKZu83pKcs9GXxWX7Ylds1qx6IJEHO5sat9KCcHOXbmLGZ/BI9SgWkphko+itoXFzGsFvP0XzrLviPHGJpUMzXUydGDRxmZmiQe8XLtTAuDXS2cOfY+jWMKkUxq68z0tvDekfMo5xRcPv4hJ9o6WIyu0nOpmcHuXi4eP8TZ3iH0i0Zs/iBG5S3eefc9bs7ZSGZctJ44zb5393Fde3dp8lklVcj3tsQ+CeAU435u3Wqn8VgjywGhDdj9PBXEFlJhpqenWfLV13d3aX1Kauwukb+OwFNRY389W7suu8Q+pWVgl9hdYusI1Go1yoKKSblMtVqhVnuIJcKnFMTHMVsPVWMFXVVBETmfzZJIJonE4uSyWXK5HJXK5nbV45jNZ0+mHRFbq4HT5WXJ7iCRiDOhXuBM6wD7L7Rwpn2QlVCYZCIu1uJnD8LHM8c7IjYUjjAqnWZGrmJOq+dPX3iTz/z+f+Iff/b3+df/9asMTSlIJ6IkEw+vwvF4wvLkS7UDYmtYbVYmpuRMy5U035bwuf/8Jf79P/sML/zxv+W//Kt/yi/2HWDRE2TB5iSZ2VBJrZRZmBnmWssg8XQWh8d9Z/fnYWArpyPcbm1maNLIJ2mO3htXHpfHi8dlJJq7q7Fwr59n421bYoV+1WIxMKuYRT6rZFAyxOFXvsvJF75K//4X+eFXvsDxfW8zOjtPz5QWqysgIhfzLHDhSj/+aFgkey2RoFQpEQuvkEiliYSCJDJ18KMhL4l8GUFPJR1dxbuyqStcY2bwNt1SPatrUQq5HF6Pl6QYrkY6HsYXrOsDlVIxXAYl/RPTyCeamdLq8YfrilMlQY2mUqa0RT3laad3W2KzuTzDMhlXb3Vys7efoaFBbJLrWG4eRXr0DZpff5G+Uwdp6Bzk7O0x5ox2EbNyfo3Rjhv0jk1SLSaZ1WhQyG5x6fx5bjQ00HrjBleH5lg0jXH4wJscv3ILi1JF4/GLnLt6BaO/TkrYa6PlSgMasw/WYzQe2ceRy4O4F7VcbGzkytVLmJ1LSDtucrPxCs09MpSyZhovXKOl8xYapRqdYYk1rx250vC083knf9sSK9TYQamME1dv8NrRE7x14jTG0XYCPSe4+eNv8d43vsTJ/W/yXtsgb1/vYdpUJ7ZaWRcVxbTSLnplchSqOcaHmzGtBlDelBFZCdIpn6b54jEaWnuYkM+gG51BNecmqNczPVHXkqhQo1aM0t7VxohUi6KriwOXrzE+JWPaEiLjVXOz6zbTs4JWYZrB/lGkwzewxcskPWrarrWhNNmIOs2MyDR3Mv60P2xLrACA3mTkUksbPz96nFePHOfQoQMor7yF5P3v8/o3/oTvf+95Xjl9lZ+eb8IeqDej67kQ/Z03uNDcgd7pYEGvR6sawhkLY5JoiYWDDGkNmIxzXL9+hbEZKz69BasxyIrZgl7rF7Ffcai4dvkSreOzqGQjNDeeobFvCK1eg94dJe4xoDKbmei+TuOZS3QOz2JU93C6oYGrXX0Egl56b17g1MmLTKjqhe5pJ1XI346IDUcivH/2HK8fPsKL73zIH3z+j2j8wf/k8PP/g2996Y/40n/4PP/wM/+Cg2cbqG5RJ82lYsTTdTVQYWFDvASNCWH+BFQ3NDBzyRjxVLauCiq4bfiteyoTX4uwqcmZSsYobKhuCtHciWu9QDye2tBOrJFNJUgV6nPr9XyWRLquAy3G+Qx87YhYAYfhGTlf+eEr/IP/+HX2/L3f48/+8HNce/Fr7P9ff8J//5f/nH/zB59n0eF6BiB7MrK4Y2KF7NyWTvO5L/4Ze/7+77Fnz9/hDz/7Wd76xtdoOXaIYDD4ZOT4GZHyoYgVMBGWEKdmFNxs66KzZ0C0c/CMYPVEZfOhiX2icvcMC7tL7FNK/i6xu8Q+pQg8pdnarbG7xD6lCDyl2dpRjS2l15ifNxFNfvJh3HIpy2oq80CIMqsBFtQLrMTyd/xlMgkSHztNt/ljLpEivbH7s+n2oHutVsSoHGPaUDfa8SC/z8Jv2xNbyTE3rUFvcRCK1smrVQV9p014ahTzWdEGo+BSrQjL9pCKBVC7VjaWDWssSZWo53QoZsykioJBjwqZTIqMeKyyRnHLllqtWiGXypBai2A2L7N+z0bsxjrkZvIb92IxwcLcLF1dV9G5dhXHtye2WsKsEWw7LIqEBZeNjMvGkMkNxJKryCdmWDCZWFmLsmybZ3RsGJ1liUXjLGdbJCTyQgmosTxtJZZIYlPZsBjlyGdVOJcdRFMpbKYJBoZHsYViBJ0GJuU6lv1BHAYtLTfbMej0BFazJAPLOLfR9p8d70DvT3yM9mfvdXtiRUyqhJc06Mx2rCYtvmyVuNOFbkaFZslHPu7D5LBj0KtZiaVYss3j9PtR+tc2EBVq7ASdHf2YV+J4bDJc0RSRgIV5vYVFZ30nxzhhQKNV4Y0XWXE5WbQ7sdlDVEspbDYLerOVcOqTNSOq61nM+jE0ns1N+mePzK053p7YSgGPw4RKNYfC7sa+qGV8RolcrcfjtmP1hynE/ZgdduxOC6l8EbvDgi8UYGRcRTIv7LAINdZCNFE3thFYmiScyrPqs2L3+tBpxpHPzqEzu3A6TazmKyKxLm8AtXySSLqI36JEo7t//7nmVnPs5Cl6h6S4V3cPZm1PLJCNh3G4vJQq4F5SozY6CCeEbbAqhdI6tco6xVKJUqlIpVoT74LOcTwYJrdhUqyUK1Le6CvXSznKlSrl9YJomKqQiuBY9lCsQqVcpFwVrKyURP/p2ArxVBrTnBqXf8OS2taiufFcLqSxmAxodHpWU3ctxnyC12fCaUfEbkUiEvZxn9Zwq7dP9TkT8qCzLH+yXcVPNaWnJ7KHJvbpyfrTnZNdYp9SfneJfZaJLZfyrEVj3NdEU61KMV+s6yw9YqDCfi+x9KYd5RrVcom1SIjQqnBFKRYKhAJewrF7B2LCAC6aEgaEZUJBP4FgmEx2c6WtxmoojKD6LHySkSDJQv1F0NdaS95dTXvE2b+T/A5qbI0l9TgDg8NoVE7RfM+d0JsPtRKx4Np9Ta/m4nGK9y0Vm5H8Le+VPGrJAFcbrzA6rRFlSfsczM0omBrrZd+r79AhGUcq6+fQ2QaarjSgXPCJieYSQdraztHY0ILL5aGv4yYnDrxP27BR/N2plnPhxEl65Vq8ATuXLx/jZtsYoYCHnqsXOd/chi/+eJG7I2KdRrMIlF2nxRsKY1zQE4nGsWoUzGkMojHI5EqK0noOnU6DYyVOpZhBMylnaXmFOUkb/bMmMY5apYzLoGVqeo5MoULM6URvciBOd/8W3K7YdXT1103RCvNmYeEx7jAinai7KW5Oi7ErlDJUq8KSZgpJa5to9dwxMY7GFie5PMOYrq6iapqR4xbMeleS3B4cIVOroRoYpO1iN+E8ODUSpOPjTA+MManoZyH4eM2dd0SsdW6Uvv4RdPYVPIsLaHRW3HYb1uUwIbsZvdHK8rSdWd0ETS1t9IzLmNWZcLoj5HIF7Bo5Vm9EBDsWXEZn9BDxOzGazWgH5Sz5Yjs4l/Ng1u0LMiSGlXs8pZbNyKYEYqtMXJciLFErVOPMBurz3NnRdoQG2SGZxLqUpxjVMaKzU8mtIJPr6i1QJYFkfEycaulvD3Hj0G2EVVKvRcbQ5Czjtzrp6BvAKVqIuyf5R/qyI2JtKjlWzyqVKvidS3jDGVY9i+hsXvw2A0bzEp5ZJ2q1QgTE5Q9gnNdgWAqQzq0TtM5jEjYEhFoUdDE37yDgWsRgMmGW2clsWMkrZUJ4A26CKy5WQh5W1+qm1neCUCa4xI2rTSxYFlle9uEwW1icVyMdV4nEjl6UiMROT/bSPL7AwlQ/w30KFn0u1LNyesdkTPXeRu9axauZQrUUhnIKu0NBb98osqkphsbGmJCOIZlWMN3fS+/tLvrGdcwMDzKmfLzsS+2I2GQkSmljUyWdiJPIrlMr59EpFajnLZSLOUxyB7lcEvXsDBann3I+jWJajtOXoijY6Lc5xFIv7NwsGrVMK9RkC2WSgRjFcj3y9WyEYNjPasRHJBpgLf5wBpijXgMtza1oLV5WvB6CwRWCQWGnp4bP4hVr4KrbQNONJgZGFOIKl8vnIpzNoxnvQSLTC7rqrNo9xBIlqKRxe20kwgFa2tqxhtPUaikGO1tQmsNUy0Wk/R10D6nIbyjB76QQ/i787IDY7cSoYZRPo3bsLr5vh9Tv8vdPgdgquUxOLOm/S8F303owAp8CsQ9OYPfXR4PALrGPBvffeqq7xP7WIX40CewS+2hw/62nukvsbx3iR5PAtsQKM0xBK+JxuwQti82D05vQPWoZBZmERZzH4bMtsQJY8XzlsbtiuQr5LRsLwvpA4hHLKciUEfR7HoPPjogVABNBy1VIr0OhBrlyHcjN3z6te7JYI1Wsiuk9KM74JxArKM5thhHk3Pq+6b6Te6qEaOZgJ363+hFkeiKJFQD3et3IlTr0rqhIsgBeslAnQlAET208b7ptzXiyUAd+87dkQSCxJpIhuAnxh2NpVhJFksXqnXiFODbDbMZ3f2KFcOt4fXEimbIYbjPdzbD1u+DvY/IUERXY/YEYK/GSKM+mn60ypIrckWerXE8osVUypXUUshHG5uYZk86gXY6SLlVYy1bIl6uYrQ7sKxkRsFi2THqTNLEWVlhLl4jnyqxl1smUIbwSRG91EytWiWVK5GpgMlvQ2WPigr3gX/iz3sx6jXi2hFibN8i4P7FCIVjH508QzdVIF6sIfsUCJBSeQnVDrrLYvQg1O55dJ1GssizoMfujhMIpVlNVUnnBjxBHjVh2HaGpzVZqWE0WlqN5ciXBvXyncD6xxKYKRXSqBUIlyGXWkGudON1OWm4NoHEG6GtrpXfKwKJjkeZbA2h9aXLlGqlsHqVsgn6pAd/qGj3dfYwZfFjnZzjf1MViIMxYXw+yOTvmxWWMjgha7TytXUPoLGuiNbbbgxIGBuaw+3N1ou/bFFdJ5/OY7AEcy25GRmT0jM0ya3JgDSbwuIMYbUGUs2N09U2xZPfSIxllwRNmRtLB9YFJDM5VnH4PQ6MSuocmUAaSrNgttLf3Y1wK0Nt6he45G6alRW529qGwh0gLhe/JbIqF0l4QiV0tQyoeYFJnY9lpo6+vm44pA3qzE2c4j8u+wK2uTjoVdvHftZwOC7IFv7gfuxJwMTk2wKV+BQ63D4PVSygRZWRijFsto8yZ3Wg18yiMHrEv185I6J+Q48uDaVKHzhYX/x78/jW2Jv6XrVxtRbtgRD7vxup0MKU0oDaY0djsqBRq2m920z+kQKk2MD2jxR6KYbdYcQajGCxLjAxOYQnlcLutDBpcLHsW6Wi/zfC4GZN5CX8oRHv3bboGRpBoF0mW6l3KE9jH3m2Kh6aUDExIsfr8zEhGGJBNMqpaxGgSzt0oGe2vuw0rnQjaR6tBHwOSSZRGN8qJSQZGZfSM6/D4gkinZpEqxukenWJsVM6s3o7B7GJiao7RKSWzs2Y0Jg1SlRJJ1xR6R2oHxGaZ1VjFIymG5RjLrmX0jjV0iknGFvxEgj6G+keZMTkJxOJMjgwwMG1m2WFjTKlDaXCgVmqZnFAyMjnJsMHK+MQQfcNTTKsWMSxomVywMDExx9C0GkcwQapUb/KfQGKFfqqKPxhAvWDGFsqIyl3BUIh56zKBeIm1RByHdwV3IIR+0U0wXhQHGcJGuls4ymEJEIqnMNjsLIfSpPLrLHmDuENxzFYnzlCC1WSOaLZKaDWMSr/EShqS6RTaeSX9o5M4QsVtmuIKyfw6oXiO1USO1VSJaCpPJL3Oaiwjypkt13Avu9BYPfgjMYw2O/5EiWQmi8UdwL+WJ57NYzaaGJbI0LgTRMJh5m1uVpJFIrEYFn+MSDyBRm/GGUqK2DxxTbEgsHAJgwdhMJOrQloYOGy8Zysbo8QC4khZmC5ky3U3wY9wCacHRLciCP6F8ML8WBi8CP4zohskNkfVRUQzuJlyDc/yMv2DY0zZXCSK9b4slq2Q+/g8dkNOQVZhxC3GJcS3EacQVhjFivKUN2WsifIIgyphoCQcyRVkWo2uMiQdY0JhEkfXgtvWfAqFNVGoyygMzMR8ZiukC0/IPLZaq4nnb4QzOI/qEtQ+hXm/cAxoU4ZsqUppy7lZYYEi/2nKuF5D+ENrQXNE+HfmzXQfdBdkKmxogzzqNYptFygetYC76f9mCOwS+5vh9tiH2iX2safoNxNwl9jfDLfHPtQdYvepPey5pBMXBR57qXcF3BYB4U+vAoEAew7P+/lH1+dxBVZYDYcIhXavJxkDn89XJzaezhBKpIjFYsRjMfEuPO9eTy4GmUyG/w+1NWhmfy9sVgAAAABJRU5ErkJggg==;" vertex="1" parent="1">
          <mxGeometry x="2279" y="400.5" width="118" height="85" as="geometry" />
        </mxCell>
        <mxCell id="6ZfNqcn49MTVpPQ85q8o-21" value="" style="shape=image;verticalLabelPosition=bottom;labelBackgroundColor=#ffffff;verticalAlign=top;aspect=fixed;imageAspect=0;image=data:image/png,iVBORw0KGgoAAAANSUhEUgAAAHYAAABVCAYAAACcnxCJAAAbo0lEQVR4Ae2dd2yj6Z3fJ0CAAAkC5C8Dl4IYKcgd4iBGLsghcQ7xxTnDcGwgOZ9zsC+Xtbd4ffa5bLW9a8/O7M7u7JSdXqXp0qiMpFGnGqlKSqwSOyWSYqdIkWLvYvkE70tpRrPeGWl8a08TgZfv+z58yu/5fp/+/J4f98j9MY7qvHj8AYKBAIHd64nGwOfzsba2xp63lB72nFMTy+YpFYsUd68nGoNUKoVA7p73NF7+7pV5cpUau58nH4FSqSS2OHeIzZarT36udnMgtjZCd7pL7FNWGISu9AHE1iiUSozZgrw84WHGn2TIEuDlSQ/TazmKu832Y1sctiG2zNyim1f6F9hzZJbvjNj5couaPafUvKGwow/nxIzVahkGz5/gZ28eQOnLkl9zcmLfPk5faSdbhqxnnpMXL5MEguYZ3nl3Hx2D86TSXo7vf4W91/oobOkBLOoR3jnwPjfGpih/EnS1PNValVjQgD0YvuMjHLRjWIndef/4Q61cpvJJhbFWZGlJTbL08RA7e3dYlDhj9w+cL69TYZ3FRdVDp5GOLNLcep1oYWeybPralthZm5tfDJvYc1rNS1InX+vQsadxnrdnHSxsEFut5omHo5x+8wVePith5ur7vP3uKd76mx8wYHTSf+Db/JN/9+ckqHL8Jy9x7FQjr736Nntf+zH7j57ntRef4/qke1MmOke6kJi9dA9fR6K1Y5hfIFZah1wel81Gz9U3ONXWSzQWRAAt6V9CoTATjceIZ7Jk0yG0cyrCqQrr2Sja+QXSuTLW0SaOnmkSC5Fr0cRyOFVPs1YmthYkV8oSdprRGJ1U7kgD3sUFfKEw0VROdC9Gc6yFfegW9KQyVRSyJsZMQfL5IuVinkKhxFrYxcLCIoVchg9OHeLGhJlIPCTG6jLNIjc6xed8wse8ap6V3N0U02E7M3IlmXKVlhvH+HnDMKUtBX+LaPd93JZYocZuEvs9qZOvbxD7yznHnRorxL4w0cnLL3yXIY0T+3QTf/yFL/K1v/gey8kCedsgf/qVF4lUK/Qfe4v/9oUv8+P3D/Cr535Ai8pDx6++z/4L8jtCDgy3c7q9m/beNnSGBd544S85dG6EhY5bnDzSyrXTL/NOQxdGVTOymSFunrhIS+s4qjkJ05o5Gk4d5OyZ85xtmiS6auLVF7/FmzdkqPsusu/9U4zODvP8957nuTf340rVoJpgQnoJ+WQrh/fv5fD+w2iWVkV57JO9/OQH3+ZH393LmUsdLIcC9PWMs2ib5afP/R8+bJYyr5fS0TWASmMhZFUj11hw6/r4zl98m+ahSfZ+8CtOtUiQTzei1Si4duEUJy+fRa6b4cpHr3PoveNcvjmGMB/JRey0Nh6nseE03bJRTp8+yJvnpfcUtDtAPeBhW2JVS272jpjYc1LFd0YcfLldy56GefarHBg3m+L1Apl8hr4TP+fHP7/Au3uf551WKe/+9H/z/pAdPFK+8MXnCKZDvPx/v8rtaQWvvfh1/vxr3+JMq4QjP3qeC5KlO2L29FzmlaMN6J0rTM92ceHyZT768BzDl0axWKqs2ZvReYOsGJo4f+EATdJ6WKuym8FJGc3dfWJcvafa6Lp+lc4bDbx+vBmHUY/ZuEh/y0n2nW2nb2yCaBGoxBmRnGFCeo0p6zIRYxPDSq0Yh+T9Axw83cygRIFFp+DC6TNMW0yo20a4dfEMf32+kXH5MLc6O5mYU+JSzdDXN8LkFQmXLh3hndYuejVK9Cth5mSHuNXWjyNYpRyZ58qli/SNXCGXXaWv8yOE1nZ1cZa+gXmgxO3WdrrkU/Q579+93AHtYw/bEtujdfCuysf3p1zctgZp0rn5/oyXX83YGQtkxeiqSR9nTh3kpy++woDSw+LCMC/9zau8sXc/zmiesk/JD3/8HrFKiYmus/zotdc5cq6JJessr7zwl7x98sY9fc+Ubha90CED8u4z7P/gGB19I8xLdCw7CmR8UxxsvMX8fD9Ws5rmkx9x8GgH8/pZ9JZ5Gs4e4O29H9CpszDX2cwHhw9ytVdBasXOiYYGZlQ6jh0+TFPXUL0Pr6TQKLvRL4xgcvsIL0nQLNULS9Sp5Nz+D7jYOwnVHE3nL+POlZhpvsCRQ+9wdngC7YIS87KVppP7eHvvMeZUZrobTnL42Hs0a83My/ppuNiBemEAr9vE2V/+gl+ePsuSx4pWM0AqGUYu7xSJreQidJ8+yP539iKzLGG06ZA6o3UwHuJ7G2JruKJp+jxJpME0yWKZWDKL1J+k153EX7zbLxTzOdbvvkK5JDYtnyTLemnLQKO6fedRLAjV6t7P+nqZuyErZHMbo4u0k6buW4Qyd0cbheLd8Ovl+nCsul4gly/cV8atqVVLBbK/JkONYnFLPgBhcFYsb4JQpljcHPrVKAtjhI2PEF9+/UELQTVy+bsyb4Z7mPs2xD5MVI+J33KO4OrqFtIfE7l+x2I8fcT+jgF8XJP77RFbyzI3PsXWxqpQzLG2frcB3RaUapGV/NYYIOrSMGVybBv0WfewLbHldAarUkW/bFwkKR/zI51QEo4ESBdiJINRYms50ukwm1Mxl2GOtpYbtNzsIRSyI5VKWckUGWw/yfOHWgkEXIxKpfhC9QUOgYRU0E5X9xAra2uoFDJ0xiBuwxDf/NmH4lbizKQUgy1KyDZK56yZQsJJZ1cXhqAwFy2jGOlhdHqBYPbegvCsErwtsaGZEd597SNONVxibHKWQ8ff5rm/eo6fHfsAiXyOoQsnuCpRMDM4RKIChZCN86evcqu9mTOX+4m4NLz07W9y5FoPI0M3eeXCABGvntf/3zf54fF2hCFFLR/k1oWrdEqmiKQS3HjvVb710tsMTQ3x1wfPE1oNcuqN7/HtVz9Ca5QzPK2gv7uRzp5eGm9I6Om+yYXmJs6fP8qpaduzyuU9+d6WWI90mvFuO3GrncGPmnjr4Af0jgyjtS8zeP0crX1TtFw4wa0pqxhxdHGa5n4d+egyN842cr6vnzPnjnPm+BE0SxauL1hQX+mg9dxpnjt+ijSwHlZz9tI1hHHg8vgEbR9e4o3j++mYU3JJqcM8MEb70Yv85NQhuqSD9Eok3O7oJl9aZ/hqJ2f3nsbiTaKZu83pKcs9GXxWX7Ylds1qx6IJEHO5sat9KCcHOXbmLGZ/BI9SgWkphko+itoXFzGsFvP0XzrLviPHGJpUMzXUydGDRxmZmiQe8XLtTAuDXS2cOfY+jWMKkUxq68z0tvDekfMo5xRcPv4hJ9o6WIyu0nOpmcHuXi4eP8TZ3iH0i0Zs/iBG5S3eefc9bs7ZSGZctJ44zb5393Fde3dp8lklVcj3tsQ+CeAU435u3Wqn8VgjywGhDdj9PBXEFlJhpqenWfLV13d3aX1Kauwukb+OwFNRY389W7suu8Q+pWVgl9hdYusI1Go1yoKKSblMtVqhVnuIJcKnFMTHMVsPVWMFXVVBETmfzZJIJonE4uSyWXK5HJXK5nbV45jNZ0+mHRFbq4HT5WXJ7iCRiDOhXuBM6wD7L7Rwpn2QlVCYZCIu1uJnD8LHM8c7IjYUjjAqnWZGrmJOq+dPX3iTz/z+f+Iff/b3+df/9asMTSlIJ6IkEw+vwvF4wvLkS7UDYmtYbVYmpuRMy5U035bwuf/8Jf79P/sML/zxv+W//Kt/yi/2HWDRE2TB5iSZ2VBJrZRZmBnmWssg8XQWh8d9Z/fnYWArpyPcbm1maNLIJ2mO3htXHpfHi8dlJJq7q7Fwr59n421bYoV+1WIxMKuYRT6rZFAyxOFXvsvJF75K//4X+eFXvsDxfW8zOjtPz5QWqysgIhfzLHDhSj/+aFgkey2RoFQpEQuvkEiliYSCJDJ18KMhL4l8GUFPJR1dxbuyqStcY2bwNt1SPatrUQq5HF6Pl6QYrkY6HsYXrOsDlVIxXAYl/RPTyCeamdLq8YfrilMlQY2mUqa0RT3laad3W2KzuTzDMhlXb3Vys7efoaFBbJLrWG4eRXr0DZpff5G+Uwdp6Bzk7O0x5ox2EbNyfo3Rjhv0jk1SLSaZ1WhQyG5x6fx5bjQ00HrjBleH5lg0jXH4wJscv3ILi1JF4/GLnLt6BaO/TkrYa6PlSgMasw/WYzQe2ceRy4O4F7VcbGzkytVLmJ1LSDtucrPxCs09MpSyZhovXKOl8xYapRqdYYk1rx250vC083knf9sSK9TYQamME1dv8NrRE7x14jTG0XYCPSe4+eNv8d43vsTJ/W/yXtsgb1/vYdpUJ7ZaWRcVxbTSLnplchSqOcaHmzGtBlDelBFZCdIpn6b54jEaWnuYkM+gG51BNecmqNczPVHXkqhQo1aM0t7VxohUi6KriwOXrzE+JWPaEiLjVXOz6zbTs4JWYZrB/lGkwzewxcskPWrarrWhNNmIOs2MyDR3Mv60P2xLrACA3mTkUksbPz96nFePHOfQoQMor7yF5P3v8/o3/oTvf+95Xjl9lZ+eb8IeqDej67kQ/Z03uNDcgd7pYEGvR6sawhkLY5JoiYWDDGkNmIxzXL9+hbEZKz69BasxyIrZgl7rF7Ffcai4dvkSreOzqGQjNDeeobFvCK1eg94dJe4xoDKbmei+TuOZS3QOz2JU93C6oYGrXX0Egl56b17g1MmLTKjqhe5pJ1XI346IDUcivH/2HK8fPsKL73zIH3z+j2j8wf/k8PP/g2996Y/40n/4PP/wM/+Cg2cbqG5RJ82lYsTTdTVQYWFDvASNCWH+BFQ3NDBzyRjxVLauCiq4bfiteyoTX4uwqcmZSsYobKhuCtHciWu9QDye2tBOrJFNJUgV6nPr9XyWRLquAy3G+Qx87YhYAYfhGTlf+eEr/IP/+HX2/L3f48/+8HNce/Fr7P9ff8J//5f/nH/zB59n0eF6BiB7MrK4Y2KF7NyWTvO5L/4Ze/7+77Fnz9/hDz/7Wd76xtdoOXaIYDD4ZOT4GZHyoYgVMBGWEKdmFNxs66KzZ0C0c/CMYPVEZfOhiX2icvcMC7tL7FNK/i6xu8Q+pQg8pdnarbG7xD6lCDyl2dpRjS2l15ifNxFNfvJh3HIpy2oq80CIMqsBFtQLrMTyd/xlMgkSHztNt/ljLpEivbH7s+n2oHutVsSoHGPaUDfa8SC/z8Jv2xNbyTE3rUFvcRCK1smrVQV9p014ahTzWdEGo+BSrQjL9pCKBVC7VjaWDWssSZWo53QoZsykioJBjwqZTIqMeKyyRnHLllqtWiGXypBai2A2L7N+z0bsxjrkZvIb92IxwcLcLF1dV9G5dhXHtye2WsKsEWw7LIqEBZeNjMvGkMkNxJKryCdmWDCZWFmLsmybZ3RsGJ1liUXjLGdbJCTyQgmosTxtJZZIYlPZsBjlyGdVOJcdRFMpbKYJBoZHsYViBJ0GJuU6lv1BHAYtLTfbMej0BFazJAPLOLfR9p8d70DvT3yM9mfvdXtiRUyqhJc06Mx2rCYtvmyVuNOFbkaFZslHPu7D5LBj0KtZiaVYss3j9PtR+tc2EBVq7ASdHf2YV+J4bDJc0RSRgIV5vYVFZ30nxzhhQKNV4Y0XWXE5WbQ7sdlDVEspbDYLerOVcOqTNSOq61nM+jE0ns1N+mePzK053p7YSgGPw4RKNYfC7sa+qGV8RolcrcfjtmP1hynE/ZgdduxOC6l8EbvDgi8UYGRcRTIv7LAINdZCNFE3thFYmiScyrPqs2L3+tBpxpHPzqEzu3A6TazmKyKxLm8AtXySSLqI36JEo7t//7nmVnPs5Cl6h6S4V3cPZm1PLJCNh3G4vJQq4F5SozY6CCeEbbAqhdI6tco6xVKJUqlIpVoT74LOcTwYJrdhUqyUK1Le6CvXSznKlSrl9YJomKqQiuBY9lCsQqVcpFwVrKyURP/p2ArxVBrTnBqXf8OS2taiufFcLqSxmAxodHpWU3ctxnyC12fCaUfEbkUiEvZxn9Zwq7dP9TkT8qCzLH+yXcVPNaWnJ7KHJvbpyfrTnZNdYp9SfneJfZaJLZfyrEVj3NdEU61KMV+s6yw9YqDCfi+x9KYd5RrVcom1SIjQqnBFKRYKhAJewrF7B2LCAC6aEgaEZUJBP4FgmEx2c6WtxmoojKD6LHySkSDJQv1F0NdaS95dTXvE2b+T/A5qbI0l9TgDg8NoVE7RfM+d0JsPtRKx4Np9Ta/m4nGK9y0Vm5H8Le+VPGrJAFcbrzA6rRFlSfsczM0omBrrZd+r79AhGUcq6+fQ2QaarjSgXPCJieYSQdraztHY0ILL5aGv4yYnDrxP27BR/N2plnPhxEl65Vq8ATuXLx/jZtsYoYCHnqsXOd/chi/+eJG7I2KdRrMIlF2nxRsKY1zQE4nGsWoUzGkMojHI5EqK0noOnU6DYyVOpZhBMylnaXmFOUkb/bMmMY5apYzLoGVqeo5MoULM6URvciBOd/8W3K7YdXT1103RCvNmYeEx7jAinai7KW5Oi7ErlDJUq8KSZgpJa5to9dwxMY7GFie5PMOYrq6iapqR4xbMeleS3B4cIVOroRoYpO1iN+E8ODUSpOPjTA+MManoZyH4eM2dd0SsdW6Uvv4RdPYVPIsLaHRW3HYb1uUwIbsZvdHK8rSdWd0ETS1t9IzLmNWZcLoj5HIF7Bo5Vm9EBDsWXEZn9BDxOzGazWgH5Sz5Yjs4l/Ng1u0LMiSGlXs8pZbNyKYEYqtMXJciLFErVOPMBurz3NnRdoQG2SGZxLqUpxjVMaKzU8mtIJPr6i1QJYFkfEycaulvD3Hj0G2EVVKvRcbQ5Czjtzrp6BvAKVqIuyf5R/qyI2JtKjlWzyqVKvidS3jDGVY9i+hsXvw2A0bzEp5ZJ2q1QgTE5Q9gnNdgWAqQzq0TtM5jEjYEhFoUdDE37yDgWsRgMmGW2clsWMkrZUJ4A26CKy5WQh5W1+qm1neCUCa4xI2rTSxYFlle9uEwW1icVyMdV4nEjl6UiMROT/bSPL7AwlQ/w30KFn0u1LNyesdkTPXeRu9axauZQrUUhnIKu0NBb98osqkphsbGmJCOIZlWMN3fS+/tLvrGdcwMDzKmfLzsS+2I2GQkSmljUyWdiJPIrlMr59EpFajnLZSLOUxyB7lcEvXsDBann3I+jWJajtOXoijY6Lc5xFIv7NwsGrVMK9RkC2WSgRjFcj3y9WyEYNjPasRHJBpgLf5wBpijXgMtza1oLV5WvB6CwRWCQWGnp4bP4hVr4KrbQNONJgZGFOIKl8vnIpzNoxnvQSLTC7rqrNo9xBIlqKRxe20kwgFa2tqxhtPUaikGO1tQmsNUy0Wk/R10D6nIbyjB76QQ/i787IDY7cSoYZRPo3bsLr5vh9Tv8vdPgdgquUxOLOm/S8F303owAp8CsQ9OYPfXR4PALrGPBvffeqq7xP7WIX40CewS+2hw/62nukvsbx3iR5PAtsQKM0xBK+JxuwQti82D05vQPWoZBZmERZzH4bMtsQJY8XzlsbtiuQr5LRsLwvpA4hHLKciUEfR7HoPPjogVABNBy1VIr0OhBrlyHcjN3z6te7JYI1Wsiuk9KM74JxArKM5thhHk3Pq+6b6Te6qEaOZgJ363+hFkeiKJFQD3et3IlTr0rqhIsgBeslAnQlAET208b7ptzXiyUAd+87dkQSCxJpIhuAnxh2NpVhJFksXqnXiFODbDbMZ3f2KFcOt4fXEimbIYbjPdzbD1u+DvY/IUERXY/YEYK/GSKM+mn60ypIrckWerXE8osVUypXUUshHG5uYZk86gXY6SLlVYy1bIl6uYrQ7sKxkRsFi2THqTNLEWVlhLl4jnyqxl1smUIbwSRG91EytWiWVK5GpgMlvQ2WPigr3gX/iz3sx6jXi2hFibN8i4P7FCIVjH508QzdVIF6sIfsUCJBSeQnVDrrLYvQg1O55dJ1GssizoMfujhMIpVlNVUnnBjxBHjVh2HaGpzVZqWE0WlqN5ciXBvXyncD6xxKYKRXSqBUIlyGXWkGudON1OWm4NoHEG6GtrpXfKwKJjkeZbA2h9aXLlGqlsHqVsgn6pAd/qGj3dfYwZfFjnZzjf1MViIMxYXw+yOTvmxWWMjgha7TytXUPoLGuiNbbbgxIGBuaw+3N1ou/bFFdJ5/OY7AEcy25GRmT0jM0ya3JgDSbwuIMYbUGUs2N09U2xZPfSIxllwRNmRtLB9YFJDM5VnH4PQ6MSuocmUAaSrNgttLf3Y1wK0Nt6he45G6alRW529qGwh0gLhe/JbIqF0l4QiV0tQyoeYFJnY9lpo6+vm44pA3qzE2c4j8u+wK2uTjoVdvHftZwOC7IFv7gfuxJwMTk2wKV+BQ63D4PVSygRZWRijFsto8yZ3Wg18yiMHrEv185I6J+Q48uDaVKHzhYX/x78/jW2Jv6XrVxtRbtgRD7vxup0MKU0oDaY0djsqBRq2m920z+kQKk2MD2jxR6KYbdYcQajGCxLjAxOYQnlcLutDBpcLHsW6Wi/zfC4GZN5CX8oRHv3bboGRpBoF0mW6l3KE9jH3m2Kh6aUDExIsfr8zEhGGJBNMqpaxGgSzt0oGe2vuw0rnQjaR6tBHwOSSZRGN8qJSQZGZfSM6/D4gkinZpEqxukenWJsVM6s3o7B7GJiao7RKSWzs2Y0Jg1SlRJJ1xR6R2oHxGaZ1VjFIymG5RjLrmX0jjV0iknGFvxEgj6G+keZMTkJxOJMjgwwMG1m2WFjTKlDaXCgVmqZnFAyMjnJsMHK+MQQfcNTTKsWMSxomVywMDExx9C0GkcwQapUb/KfQGKFfqqKPxhAvWDGFsqIyl3BUIh56zKBeIm1RByHdwV3IIR+0U0wXhQHGcJGuls4ymEJEIqnMNjsLIfSpPLrLHmDuENxzFYnzlCC1WSOaLZKaDWMSr/EShqS6RTaeSX9o5M4QsVtmuIKyfw6oXiO1USO1VSJaCpPJL3Oaiwjypkt13Avu9BYPfgjMYw2O/5EiWQmi8UdwL+WJ57NYzaaGJbI0LgTRMJh5m1uVpJFIrEYFn+MSDyBRm/GGUqK2DxxTbEgsHAJgwdhMJOrQloYOGy8Zysbo8QC4khZmC5ky3U3wY9wCacHRLciCP6F8ML8WBi8CP4zohskNkfVRUQzuJlyDc/yMv2DY0zZXCSK9b4slq2Q+/g8dkNOQVZhxC3GJcS3EacQVhjFivKUN2WsifIIgyphoCQcyRVkWo2uMiQdY0JhEkfXgtvWfAqFNVGoyygMzMR8ZiukC0/IPLZaq4nnb4QzOI/qEtQ+hXm/cAxoU4ZsqUppy7lZYYEi/2nKuF5D+ENrQXNE+HfmzXQfdBdkKmxogzzqNYptFygetYC76f9mCOwS+5vh9tiH2iX2safoNxNwl9jfDLfHPtQdYvepPey5pBMXBR57qXcF3BYB4U+vAoEAew7P+/lH1+dxBVZYDYcIhXavJxkDn89XJzaezhBKpIjFYsRjMfEuPO9eTy4GmUyG/w+1NWhmfy9sVgAAAABJRU5ErkJggg==;" vertex="1" parent="1">
          <mxGeometry x="2279" y="520.5" width="118" height="85" as="geometry" />
        </mxCell>
        <mxCell id="6ZfNqcn49MTVpPQ85q8o-22" value="" style="shape=image;verticalLabelPosition=bottom;labelBackgroundColor=#ffffff;verticalAlign=top;aspect=fixed;imageAspect=0;image=data:image/png,iVBORw0KGgoAAAANSUhEUgAAAHYAAABVCAYAAACcnxCJAAAbo0lEQVR4Ae2dd2yj6Z3fJ0CAAAkC5C8Dl4IYKcgd4iBGLsghcQ7xxTnDcGwgOZ9zsC+Xtbd4ffa5bLW9a8/O7M7u7JSdXqXp0qiMpFGnGqlKSqwSOyWSYqdIkWLvYvkE70tpRrPeGWl8a08TgZfv+z58yu/5fp/+/J4f98j9MY7qvHj8AYKBAIHd64nGwOfzsba2xp63lB72nFMTy+YpFYsUd68nGoNUKoVA7p73NF7+7pV5cpUau58nH4FSqSS2OHeIzZarT36udnMgtjZCd7pL7FNWGISu9AHE1iiUSozZgrw84WHGn2TIEuDlSQ/TazmKu832Y1sctiG2zNyim1f6F9hzZJbvjNj5couaPafUvKGwow/nxIzVahkGz5/gZ28eQOnLkl9zcmLfPk5faSdbhqxnnpMXL5MEguYZ3nl3Hx2D86TSXo7vf4W91/oobOkBLOoR3jnwPjfGpih/EnS1PNValVjQgD0YvuMjHLRjWIndef/4Q61cpvJJhbFWZGlJTbL08RA7e3dYlDhj9w+cL69TYZ3FRdVDp5GOLNLcep1oYWeybPralthZm5tfDJvYc1rNS1InX+vQsadxnrdnHSxsEFut5omHo5x+8wVePith5ur7vP3uKd76mx8wYHTSf+Db/JN/9+ckqHL8Jy9x7FQjr736Nntf+zH7j57ntRef4/qke1MmOke6kJi9dA9fR6K1Y5hfIFZah1wel81Gz9U3ONXWSzQWRAAt6V9CoTATjceIZ7Jk0yG0cyrCqQrr2Sja+QXSuTLW0SaOnmkSC5Fr0cRyOFVPs1YmthYkV8oSdprRGJ1U7kgD3sUFfKEw0VROdC9Gc6yFfegW9KQyVRSyJsZMQfL5IuVinkKhxFrYxcLCIoVchg9OHeLGhJlIPCTG6jLNIjc6xed8wse8ap6V3N0U02E7M3IlmXKVlhvH+HnDMKUtBX+LaPd93JZYocZuEvs9qZOvbxD7yznHnRorxL4w0cnLL3yXIY0T+3QTf/yFL/K1v/gey8kCedsgf/qVF4lUK/Qfe4v/9oUv8+P3D/Cr535Ai8pDx6++z/4L8jtCDgy3c7q9m/beNnSGBd544S85dG6EhY5bnDzSyrXTL/NOQxdGVTOymSFunrhIS+s4qjkJ05o5Gk4d5OyZ85xtmiS6auLVF7/FmzdkqPsusu/9U4zODvP8957nuTf340rVoJpgQnoJ+WQrh/fv5fD+w2iWVkV57JO9/OQH3+ZH393LmUsdLIcC9PWMs2ib5afP/R8+bJYyr5fS0TWASmMhZFUj11hw6/r4zl98m+ahSfZ+8CtOtUiQTzei1Si4duEUJy+fRa6b4cpHr3PoveNcvjmGMB/JRey0Nh6nseE03bJRTp8+yJvnpfcUtDtAPeBhW2JVS272jpjYc1LFd0YcfLldy56GefarHBg3m+L1Apl8hr4TP+fHP7/Au3uf551WKe/+9H/z/pAdPFK+8MXnCKZDvPx/v8rtaQWvvfh1/vxr3+JMq4QjP3qeC5KlO2L29FzmlaMN6J0rTM92ceHyZT768BzDl0axWKqs2ZvReYOsGJo4f+EATdJ6WKuym8FJGc3dfWJcvafa6Lp+lc4bDbx+vBmHUY/ZuEh/y0n2nW2nb2yCaBGoxBmRnGFCeo0p6zIRYxPDSq0Yh+T9Axw83cygRIFFp+DC6TNMW0yo20a4dfEMf32+kXH5MLc6O5mYU+JSzdDXN8LkFQmXLh3hndYuejVK9Cth5mSHuNXWjyNYpRyZ58qli/SNXCGXXaWv8yOE1nZ1cZa+gXmgxO3WdrrkU/Q579+93AHtYw/bEtujdfCuysf3p1zctgZp0rn5/oyXX83YGQtkxeiqSR9nTh3kpy++woDSw+LCMC/9zau8sXc/zmiesk/JD3/8HrFKiYmus/zotdc5cq6JJessr7zwl7x98sY9fc+Ubha90CED8u4z7P/gGB19I8xLdCw7CmR8UxxsvMX8fD9Ws5rmkx9x8GgH8/pZ9JZ5Gs4e4O29H9CpszDX2cwHhw9ytVdBasXOiYYGZlQ6jh0+TFPXUL0Pr6TQKLvRL4xgcvsIL0nQLNULS9Sp5Nz+D7jYOwnVHE3nL+POlZhpvsCRQ+9wdngC7YIS87KVppP7eHvvMeZUZrobTnL42Hs0a83My/ppuNiBemEAr9vE2V/+gl+ePsuSx4pWM0AqGUYu7xSJreQidJ8+yP539iKzLGG06ZA6o3UwHuJ7G2JruKJp+jxJpME0yWKZWDKL1J+k153EX7zbLxTzOdbvvkK5JDYtnyTLemnLQKO6fedRLAjV6t7P+nqZuyErZHMbo4u0k6buW4Qyd0cbheLd8Ovl+nCsul4gly/cV8atqVVLBbK/JkONYnFLPgBhcFYsb4JQpljcHPrVKAtjhI2PEF9+/UELQTVy+bsyb4Z7mPs2xD5MVI+J33KO4OrqFtIfE7l+x2I8fcT+jgF8XJP77RFbyzI3PsXWxqpQzLG2frcB3RaUapGV/NYYIOrSMGVybBv0WfewLbHldAarUkW/bFwkKR/zI51QEo4ESBdiJINRYms50ukwm1Mxl2GOtpYbtNzsIRSyI5VKWckUGWw/yfOHWgkEXIxKpfhC9QUOgYRU0E5X9xAra2uoFDJ0xiBuwxDf/NmH4lbizKQUgy1KyDZK56yZQsJJZ1cXhqAwFy2jGOlhdHqBYPbegvCsErwtsaGZEd597SNONVxibHKWQ8ff5rm/eo6fHfsAiXyOoQsnuCpRMDM4RKIChZCN86evcqu9mTOX+4m4NLz07W9y5FoPI0M3eeXCABGvntf/3zf54fF2hCFFLR/k1oWrdEqmiKQS3HjvVb710tsMTQ3x1wfPE1oNcuqN7/HtVz9Ca5QzPK2gv7uRzp5eGm9I6Om+yYXmJs6fP8qpaduzyuU9+d6WWI90mvFuO3GrncGPmnjr4Af0jgyjtS8zeP0crX1TtFw4wa0pqxhxdHGa5n4d+egyN842cr6vnzPnjnPm+BE0SxauL1hQX+mg9dxpnjt+ijSwHlZz9tI1hHHg8vgEbR9e4o3j++mYU3JJqcM8MEb70Yv85NQhuqSD9Eok3O7oJl9aZ/hqJ2f3nsbiTaKZu83pKcs9GXxWX7Ylds1qx6IJEHO5sat9KCcHOXbmLGZ/BI9SgWkphko+itoXFzGsFvP0XzrLviPHGJpUMzXUydGDRxmZmiQe8XLtTAuDXS2cOfY+jWMKkUxq68z0tvDekfMo5xRcPv4hJ9o6WIyu0nOpmcHuXi4eP8TZ3iH0i0Zs/iBG5S3eefc9bs7ZSGZctJ44zb5393Fde3dp8lklVcj3tsQ+CeAU435u3Wqn8VgjywGhDdj9PBXEFlJhpqenWfLV13d3aX1Kauwukb+OwFNRY389W7suu8Q+pWVgl9hdYusI1Go1yoKKSblMtVqhVnuIJcKnFMTHMVsPVWMFXVVBETmfzZJIJonE4uSyWXK5HJXK5nbV45jNZ0+mHRFbq4HT5WXJ7iCRiDOhXuBM6wD7L7Rwpn2QlVCYZCIu1uJnD8LHM8c7IjYUjjAqnWZGrmJOq+dPX3iTz/z+f+Iff/b3+df/9asMTSlIJ6IkEw+vwvF4wvLkS7UDYmtYbVYmpuRMy5U035bwuf/8Jf79P/sML/zxv+W//Kt/yi/2HWDRE2TB5iSZ2VBJrZRZmBnmWssg8XQWh8d9Z/fnYWArpyPcbm1maNLIJ2mO3htXHpfHi8dlJJq7q7Fwr59n421bYoV+1WIxMKuYRT6rZFAyxOFXvsvJF75K//4X+eFXvsDxfW8zOjtPz5QWqysgIhfzLHDhSj/+aFgkey2RoFQpEQuvkEiliYSCJDJ18KMhL4l8GUFPJR1dxbuyqStcY2bwNt1SPatrUQq5HF6Pl6QYrkY6HsYXrOsDlVIxXAYl/RPTyCeamdLq8YfrilMlQY2mUqa0RT3laad3W2KzuTzDMhlXb3Vys7efoaFBbJLrWG4eRXr0DZpff5G+Uwdp6Bzk7O0x5ox2EbNyfo3Rjhv0jk1SLSaZ1WhQyG5x6fx5bjQ00HrjBleH5lg0jXH4wJscv3ILi1JF4/GLnLt6BaO/TkrYa6PlSgMasw/WYzQe2ceRy4O4F7VcbGzkytVLmJ1LSDtucrPxCs09MpSyZhovXKOl8xYapRqdYYk1rx250vC083knf9sSK9TYQamME1dv8NrRE7x14jTG0XYCPSe4+eNv8d43vsTJ/W/yXtsgb1/vYdpUJ7ZaWRcVxbTSLnplchSqOcaHmzGtBlDelBFZCdIpn6b54jEaWnuYkM+gG51BNecmqNczPVHXkqhQo1aM0t7VxohUi6KriwOXrzE+JWPaEiLjVXOz6zbTs4JWYZrB/lGkwzewxcskPWrarrWhNNmIOs2MyDR3Mv60P2xLrACA3mTkUksbPz96nFePHOfQoQMor7yF5P3v8/o3/oTvf+95Xjl9lZ+eb8IeqDej67kQ/Z03uNDcgd7pYEGvR6sawhkLY5JoiYWDDGkNmIxzXL9+hbEZKz69BasxyIrZgl7rF7Ffcai4dvkSreOzqGQjNDeeobFvCK1eg94dJe4xoDKbmei+TuOZS3QOz2JU93C6oYGrXX0Egl56b17g1MmLTKjqhe5pJ1XI346IDUcivH/2HK8fPsKL73zIH3z+j2j8wf/k8PP/g2996Y/40n/4PP/wM/+Cg2cbqG5RJ82lYsTTdTVQYWFDvASNCWH+BFQ3NDBzyRjxVLauCiq4bfiteyoTX4uwqcmZSsYobKhuCtHciWu9QDye2tBOrJFNJUgV6nPr9XyWRLquAy3G+Qx87YhYAYfhGTlf+eEr/IP/+HX2/L3f48/+8HNce/Fr7P9ff8J//5f/nH/zB59n0eF6BiB7MrK4Y2KF7NyWTvO5L/4Ze/7+77Fnz9/hDz/7Wd76xtdoOXaIYDD4ZOT4GZHyoYgVMBGWEKdmFNxs66KzZ0C0c/CMYPVEZfOhiX2icvcMC7tL7FNK/i6xu8Q+pQg8pdnarbG7xD6lCDyl2dpRjS2l15ifNxFNfvJh3HIpy2oq80CIMqsBFtQLrMTyd/xlMgkSHztNt/ljLpEivbH7s+n2oHutVsSoHGPaUDfa8SC/z8Jv2xNbyTE3rUFvcRCK1smrVQV9p014ahTzWdEGo+BSrQjL9pCKBVC7VjaWDWssSZWo53QoZsykioJBjwqZTIqMeKyyRnHLllqtWiGXypBai2A2L7N+z0bsxjrkZvIb92IxwcLcLF1dV9G5dhXHtye2WsKsEWw7LIqEBZeNjMvGkMkNxJKryCdmWDCZWFmLsmybZ3RsGJ1liUXjLGdbJCTyQgmosTxtJZZIYlPZsBjlyGdVOJcdRFMpbKYJBoZHsYViBJ0GJuU6lv1BHAYtLTfbMej0BFazJAPLOLfR9p8d70DvT3yM9mfvdXtiRUyqhJc06Mx2rCYtvmyVuNOFbkaFZslHPu7D5LBj0KtZiaVYss3j9PtR+tc2EBVq7ASdHf2YV+J4bDJc0RSRgIV5vYVFZ30nxzhhQKNV4Y0XWXE5WbQ7sdlDVEspbDYLerOVcOqTNSOq61nM+jE0ns1N+mePzK053p7YSgGPw4RKNYfC7sa+qGV8RolcrcfjtmP1hynE/ZgdduxOC6l8EbvDgi8UYGRcRTIv7LAINdZCNFE3thFYmiScyrPqs2L3+tBpxpHPzqEzu3A6TazmKyKxLm8AtXySSLqI36JEo7t//7nmVnPs5Cl6h6S4V3cPZm1PLJCNh3G4vJQq4F5SozY6CCeEbbAqhdI6tco6xVKJUqlIpVoT74LOcTwYJrdhUqyUK1Le6CvXSznKlSrl9YJomKqQiuBY9lCsQqVcpFwVrKyURP/p2ArxVBrTnBqXf8OS2taiufFcLqSxmAxodHpWU3ctxnyC12fCaUfEbkUiEvZxn9Zwq7dP9TkT8qCzLH+yXcVPNaWnJ7KHJvbpyfrTnZNdYp9SfneJfZaJLZfyrEVj3NdEU61KMV+s6yw9YqDCfi+x9KYd5RrVcom1SIjQqnBFKRYKhAJewrF7B2LCAC6aEgaEZUJBP4FgmEx2c6WtxmoojKD6LHySkSDJQv1F0NdaS95dTXvE2b+T/A5qbI0l9TgDg8NoVE7RfM+d0JsPtRKx4Np9Ta/m4nGK9y0Vm5H8Le+VPGrJAFcbrzA6rRFlSfsczM0omBrrZd+r79AhGUcq6+fQ2QaarjSgXPCJieYSQdraztHY0ILL5aGv4yYnDrxP27BR/N2plnPhxEl65Vq8ATuXLx/jZtsYoYCHnqsXOd/chi/+eJG7I2KdRrMIlF2nxRsKY1zQE4nGsWoUzGkMojHI5EqK0noOnU6DYyVOpZhBMylnaXmFOUkb/bMmMY5apYzLoGVqeo5MoULM6URvciBOd/8W3K7YdXT1103RCvNmYeEx7jAinai7KW5Oi7ErlDJUq8KSZgpJa5to9dwxMY7GFie5PMOYrq6iapqR4xbMeleS3B4cIVOroRoYpO1iN+E8ODUSpOPjTA+MManoZyH4eM2dd0SsdW6Uvv4RdPYVPIsLaHRW3HYb1uUwIbsZvdHK8rSdWd0ETS1t9IzLmNWZcLoj5HIF7Bo5Vm9EBDsWXEZn9BDxOzGazWgH5Sz5Yjs4l/Ng1u0LMiSGlXs8pZbNyKYEYqtMXJciLFErVOPMBurz3NnRdoQG2SGZxLqUpxjVMaKzU8mtIJPr6i1QJYFkfEycaulvD3Hj0G2EVVKvRcbQ5Czjtzrp6BvAKVqIuyf5R/qyI2JtKjlWzyqVKvidS3jDGVY9i+hsXvw2A0bzEp5ZJ2q1QgTE5Q9gnNdgWAqQzq0TtM5jEjYEhFoUdDE37yDgWsRgMmGW2clsWMkrZUJ4A26CKy5WQh5W1+qm1neCUCa4xI2rTSxYFlle9uEwW1icVyMdV4nEjl6UiMROT/bSPL7AwlQ/w30KFn0u1LNyesdkTPXeRu9axauZQrUUhnIKu0NBb98osqkphsbGmJCOIZlWMN3fS+/tLvrGdcwMDzKmfLzsS+2I2GQkSmljUyWdiJPIrlMr59EpFajnLZSLOUxyB7lcEvXsDBann3I+jWJajtOXoijY6Lc5xFIv7NwsGrVMK9RkC2WSgRjFcj3y9WyEYNjPasRHJBpgLf5wBpijXgMtza1oLV5WvB6CwRWCQWGnp4bP4hVr4KrbQNONJgZGFOIKl8vnIpzNoxnvQSLTC7rqrNo9xBIlqKRxe20kwgFa2tqxhtPUaikGO1tQmsNUy0Wk/R10D6nIbyjB76QQ/i787IDY7cSoYZRPo3bsLr5vh9Tv8vdPgdgquUxOLOm/S8F303owAp8CsQ9OYPfXR4PALrGPBvffeqq7xP7WIX40CewS+2hw/62nukvsbx3iR5PAtsQKM0xBK+JxuwQti82D05vQPWoZBZmERZzH4bMtsQJY8XzlsbtiuQr5LRsLwvpA4hHLKciUEfR7HoPPjogVABNBy1VIr0OhBrlyHcjN3z6te7JYI1Wsiuk9KM74JxArKM5thhHk3Pq+6b6Te6qEaOZgJ363+hFkeiKJFQD3et3IlTr0rqhIsgBeslAnQlAET208b7ptzXiyUAd+87dkQSCxJpIhuAnxh2NpVhJFksXqnXiFODbDbMZ3f2KFcOt4fXEimbIYbjPdzbD1u+DvY/IUERXY/YEYK/GSKM+mn60ypIrckWerXE8osVUypXUUshHG5uYZk86gXY6SLlVYy1bIl6uYrQ7sKxkRsFi2THqTNLEWVlhLl4jnyqxl1smUIbwSRG91EytWiWVK5GpgMlvQ2WPigr3gX/iz3sx6jXi2hFibN8i4P7FCIVjH508QzdVIF6sIfsUCJBSeQnVDrrLYvQg1O55dJ1GssizoMfujhMIpVlNVUnnBjxBHjVh2HaGpzVZqWE0WlqN5ciXBvXyncD6xxKYKRXSqBUIlyGXWkGudON1OWm4NoHEG6GtrpXfKwKJjkeZbA2h9aXLlGqlsHqVsgn6pAd/qGj3dfYwZfFjnZzjf1MViIMxYXw+yOTvmxWWMjgha7TytXUPoLGuiNbbbgxIGBuaw+3N1ou/bFFdJ5/OY7AEcy25GRmT0jM0ya3JgDSbwuIMYbUGUs2N09U2xZPfSIxllwRNmRtLB9YFJDM5VnH4PQ6MSuocmUAaSrNgttLf3Y1wK0Nt6he45G6alRW529qGwh0gLhe/JbIqF0l4QiV0tQyoeYFJnY9lpo6+vm44pA3qzE2c4j8u+wK2uTjoVdvHftZwOC7IFv7gfuxJwMTk2wKV+BQ63D4PVSygRZWRijFsto8yZ3Wg18yiMHrEv185I6J+Q48uDaVKHzhYX/x78/jW2Jv6XrVxtRbtgRD7vxup0MKU0oDaY0djsqBRq2m920z+kQKk2MD2jxR6KYbdYcQajGCxLjAxOYQnlcLutDBpcLHsW6Wi/zfC4GZN5CX8oRHv3bboGRpBoF0mW6l3KE9jH3m2Kh6aUDExIsfr8zEhGGJBNMqpaxGgSzt0oGe2vuw0rnQjaR6tBHwOSSZRGN8qJSQZGZfSM6/D4gkinZpEqxukenWJsVM6s3o7B7GJiao7RKSWzs2Y0Jg1SlRJJ1xR6R2oHxGaZ1VjFIymG5RjLrmX0jjV0iknGFvxEgj6G+keZMTkJxOJMjgwwMG1m2WFjTKlDaXCgVmqZnFAyMjnJsMHK+MQQfcNTTKsWMSxomVywMDExx9C0GkcwQapUb/KfQGKFfqqKPxhAvWDGFsqIyl3BUIh56zKBeIm1RByHdwV3IIR+0U0wXhQHGcJGuls4ymEJEIqnMNjsLIfSpPLrLHmDuENxzFYnzlCC1WSOaLZKaDWMSr/EShqS6RTaeSX9o5M4QsVtmuIKyfw6oXiO1USO1VSJaCpPJL3Oaiwjypkt13Avu9BYPfgjMYw2O/5EiWQmi8UdwL+WJ57NYzaaGJbI0LgTRMJh5m1uVpJFIrEYFn+MSDyBRm/GGUqK2DxxTbEgsHAJgwdhMJOrQloYOGy8Zysbo8QC4khZmC5ky3U3wY9wCacHRLciCP6F8ML8WBi8CP4zohskNkfVRUQzuJlyDc/yMv2DY0zZXCSK9b4slq2Q+/g8dkNOQVZhxC3GJcS3EacQVhjFivKUN2WsifIIgyphoCQcyRVkWo2uMiQdY0JhEkfXgtvWfAqFNVGoyygMzMR8ZiukC0/IPLZaq4nnb4QzOI/qEtQ+hXm/cAxoU4ZsqUppy7lZYYEi/2nKuF5D+ENrQXNE+HfmzXQfdBdkKmxogzzqNYptFygetYC76f9mCOwS+5vh9tiH2iX2safoNxNwl9jfDLfHPtQdYvepPey5pBMXBR57qXcF3BYB4U+vAoEAew7P+/lH1+dxBVZYDYcIhXavJxkDn89XJzaezhBKpIjFYsRjMfEuPO9eTy4GmUyG/w+1NWhmfy9sVgAAAABJRU5ErkJggg==;" vertex="1" parent="1">
          <mxGeometry x="2279" y="650.5" width="118" height="85" as="geometry" />
        </mxCell>
        <mxCell id="6ZfNqcn49MTVpPQ85q8o-23" value="" style="ellipse;shape=cloud;whiteSpace=wrap;html=1;labelBackgroundColor=#FF297E;fontColor=#FFFFFF;" vertex="1" parent="1">
          <mxGeometry x="-145" y="-848" width="1364" height="368" as="geometry" />
        </mxCell>
        <mxCell id="6ZfNqcn49MTVpPQ85q8o-25" value="" style="strokeWidth=2;html=1;shape=mxgraph.flowchart.database;whiteSpace=wrap;labelBackgroundColor=#FF297E;fontColor=#FFFFFF;" vertex="1" parent="1">
          <mxGeometry x="320" y="218" width="731" height="834" as="geometry" />
        </mxCell>
        <mxCell id="6ZfNqcn49MTVpPQ85q8o-26" value="" style="shape=image;html=1;verticalAlign=top;verticalLabelPosition=bottom;labelBackgroundColor=#ffffff;imageAspect=0;aspect=fixed;image=https://cdn3.iconfinder.com/data/icons/simple-files-1/128/Settings-128.png;fontColor=#FFFFFF;" vertex="1" parent="1">
          <mxGeometry x="1004" y="860" width="183" height="183" as="geometry" />
        </mxCell>
        <mxCell id="6ZfNqcn49MTVpPQ85q8o-28" value="Dataloaders" style="text;html=1;strokeColor=none;fillColor=none;align=center;verticalAlign=middle;whiteSpace=wrap;rounded=0;labelBackgroundColor=none;" vertex="1" parent="1">
          <mxGeometry x="81" y="833" width="40" height="20" as="geometry" />
        </mxCell>
        <mxCell id="6ZfNqcn49MTVpPQ85q8o-30" value="Investigate" style="text;html=1;strokeColor=none;fillColor=none;align=center;verticalAlign=middle;whiteSpace=wrap;rounded=0;labelBackgroundColor=none;fontColor=none;" vertex="1" parent="1">
          <mxGeometry x="553" y="-783" width="40" height="20" as="geometry" />
        </mxCell>
        <mxCell id="6ZfNqcn49MTVpPQ85q8o-34" value="" style="shape=flexArrow;endArrow=classic;html=1;fontColor=none;endWidth=42;endSize=9.33;width=32;" edge="1" parent="1">
          <mxGeometry width="50" height="50" relative="1" as="geometry">
            <mxPoint x="233" y="921.5" as="sourcePoint" />
            <mxPoint x="292" y="921.5" as="targetPoint" />
          </mxGeometry>
        </mxCell>
      </root>
    </mxGraphModel>
  </diagram>
</mxfile>
